<?xml version="1.0" encoding="UTF-8" standalone="no"?>
<!-- Generator: Adobe Illustrator 18.1.1, SVG Export Plug-In . SVG Version: 6.00 Build 0)  -->

<svg
   version="1.1"
   id="Layer_1"
   x="0px"
   y="0px"
   viewBox="-145.2 359 325.4 77.2"
   enable-background="new -145.2 359 325.4 77.2"
   xml:space="preserve"
   sodipodi:docname="keyclok-logo.svg"
   inkscape:version="1.1.2 (0a00cf5339, 2022-02-04, custom)"
   xmlns:inkscape="http://www.inkscape.org/namespaces/inkscape"
   xmlns:sodipodi="http://sodipodi.sourceforge.net/DTD/sodipodi-0.dtd"
   xmlns="http://www.w3.org/2000/svg"
   xmlns:svg="http://www.w3.org/2000/svg"><defs
   id="defs182"><clipPath
     clipPathUnits="userSpaceOnUse"
     id="clipPath18"><path
       d="M 0,612 H 792 V 0 H 0 Z"
       id="path16" /></clipPath></defs><sodipodi:namedview
   id="namedview180"
   pagecolor="#ffffff"
   bordercolor="#666666"
   borderopacity="1.0"
   inkscape:pageshadow="2"
   inkscape:pageopacity="0.0"
   inkscape:pagecheckerboard="0"
   showgrid="false"
   inkscape:zoom="0.95673122"
   inkscape:cx="194.93458"
   inkscape:cy="21.427126"
   inkscape:window-width="1005"
   inkscape:window-height="1005"
   inkscape:window-x="2831"
   inkscape:window-y="43"
   inkscape:window-maximized="1"
   inkscape:current-layer="g14" />

<g
   id="g14"
   clip-path="url(#clipPath18)"
   transform="matrix(0.61700743,0,0,-0.61700743,-223.26396,600.68316)"><g
     id="g20"
     transform="translate(301.4736,319.0552)"><path
       d="m 0,0 h -12.109 c -9.004,0 -13.455,-2.277 -13.455,-9.004 0,-7.038 5.588,-8.798 11.591,-8.798 8.695,0 13.973,1.656 13.973,9.936 z m 7.763,-8.177 c 0,-11.591 -6.831,-16.353 -21.632,-16.353 -11.074,0 -19.458,4.244 -19.458,15.526 0,11.074 7.556,15.11 21.114,15.11 H 0 v 6.21 c 0,7.453 -5.382,9.419 -13.559,9.419 -6.003,0 -11.074,-0.828 -14.696,-2.07 v 7.038 c 3.829,1.242 8.59,1.863 14.282,1.863 12.732,0 21.736,-3.933 21.736,-16.25 z"
       style="fill:#808285;fill-opacity:1;fill-rule:nonzero;stroke:none"
       id="path22" /></g><g
     id="g24"
     transform="translate(358.501,325.8862)"><path
       d="M 0,0 C 0,9.418 -2.794,14.386 -14.8,14.386 -26.703,14.386 -29.704,9.418 -29.704,0 v -9.625 c 0,-9.315 3.001,-14.387 14.904,-14.387 11.903,0 14.8,5.072 14.8,14.387 z m -37.467,0.104 c 0,14.076 7.349,21.631 22.667,21.631 15.939,0 22.666,-7.555 22.666,-21.631 v -9.626 c 0,-13.352 -5.899,-21.839 -21.425,-21.839 -8.693,0 -13.662,2.899 -16.145,7.659 v -27.324 h -7.763 z"
       style="fill:#808285;fill-opacity:1;fill-rule:nonzero;stroke:none"
       id="path26" /></g><g
     id="g28"
     transform="translate(415.6318,325.8862)"><path
       d="M 0,0 C 0,9.418 -2.794,14.386 -14.8,14.386 -26.703,14.386 -29.704,9.418 -29.704,0 v -9.625 c 0,-9.315 3.001,-14.387 14.904,-14.387 11.903,0 14.8,5.072 14.8,14.387 z m -37.467,0.104 c 0,14.076 7.349,21.631 22.667,21.631 15.939,0 22.666,-7.555 22.666,-21.631 v -9.626 c 0,-13.352 -5.899,-21.839 -21.425,-21.839 -8.693,0 -13.662,2.899 -16.145,7.659 v -27.324 h -7.763 z"
       style="fill:#808285;fill-opacity:1;fill-rule:nonzero;stroke:none"
       id="path30" /></g><g
     id="g32"
     transform="translate(447.4062,307.4629)"><path
       d="m 0,0 c 1.346,-4.761 2.897,-5.692 6.313,-5.692 2.898,0 4.658,1.035 5.796,5.692 l 9.419,39.124 h 7.969 L 16.767,-11.902 C 13.455,-25.15 6.831,-34.361 -7.038,-33.947 l -1.656,6.934 C 2.587,-27.53 6.21,-20.596 9.004,-11.281 7.763,-12.006 5.899,-12.42 3.829,-12.42 c -7.452,0 -9.625,4.762 -11.592,12.109 l -10.763,39.435 h 7.865 z"
       style="fill:#808285;fill-opacity:1;fill-rule:nonzero;stroke:none"
       id="path34" /></g><g
     id="g36"
     transform="translate(481.1465,345.3442)"><path
       d="m 0,0 8.693,1.242 1.45,13.455 h 6.313 V 1.242 H 36.432 V -6.106 H 16.456 v -26.29 c 0,-8.486 3.83,-10.971 9.523,-10.971 4.553,0 9.314,0.725 12.316,2.071 v -7.349 c -3.209,-1.346 -7.556,-2.07 -12.213,-2.07 -10.144,0 -17.389,4.658 -17.389,18.319 v 26.29 H 0 Z"
       style="fill:#808285;fill-opacity:1;fill-rule:nonzero;stroke:none"
       id="path38" /></g><g
     id="g40"
     transform="translate(535.5859,324.644)"><path
       d="m 0,0 h 27.945 v 3.416 c 0,9.004 -5.382,12.626 -13.972,12.626 C 5.175,16.042 0,12.42 0,3.416 Z M 34.466,-6.521 H 0 v -3.104 c 0,-9.522 4.864,-13.145 16.146,-13.145 6.21,0 13.456,1.449 17.388,3.105 v -7.348 c -4.657,-1.967 -11.178,-3.106 -17.388,-3.106 -15.939,0 -23.909,6.107 -23.909,21.632 v 9.626 c 0,12.523 5.279,21.838 21.839,21.838 13.559,0 21.218,-6.831 21.218,-20.7 0,-2.588 -0.207,-6.21 -0.828,-8.798"
       style="fill:#808285;fill-opacity:1;fill-rule:nonzero;stroke:none"
       id="path42" /></g><g
     id="g44"
     transform="translate(589.0937,295.5605)"><path
       d="m 0,0 h -7.763 v 34.155 c 0,10.971 5.175,17.906 17.699,17.906 2.691,0 4.658,-0.311 6.417,-0.828 V 43.781 C 14.801,44.298 12.73,44.712 9.936,44.712 2.07,44.712 0,40.779 0,33.741 Z"
       style="fill:#808285;fill-opacity:1;fill-rule:nonzero;stroke:none"
       id="path46" /></g><g
     id="g48"
     transform="translate(612.0693,304.7725)"><path
       d="m 0,0 c 4.865,-1.449 10.454,-3.002 18.526,-3.002 7.763,0 11.283,1.449 11.283,5.899 0,3.416 -1.967,5.176 -6.728,7.453 l -12.627,6.003 c -5.899,2.794 -9.626,5.796 -9.626,13.455 0,9.005 5.796,13.041 18.319,13.041 6.832,0 11.179,-1.139 16.043,-3.105 v -7.349 c -4.864,2.07 -9.833,3.209 -16.25,3.209 -7.554,0 -10.453,-1.656 -10.453,-5.796 0,-3.105 1.553,-5.072 5.486,-6.831 l 13.144,-6.003 c 6.314,-2.898 10.351,-6.003 10.351,-13.87 0,-9.314 -6.21,-13.351 -19.562,-13.351 -7.452,0 -12.628,1.242 -17.906,3.002 z"
       style="fill:#808285;fill-opacity:1;fill-rule:nonzero;stroke:none"
       id="path50" /></g><g
     id="g156"
     transform="translate(177.6997,314.396)"><path
       d="M 0,0 0.53,0.483 12.758,-3.43 22.676,5.581 15.41,39.038 35.347,17.091 35.458,17.19 23.313,72.84 Z"
       style="fill:#1b75bc;fill-opacity:1;fill-rule:nonzero;stroke:none"
       id="path158" /></g><g
     id="g160"
     transform="translate(213.0464,331.4868)"><path
       d="M 0,0 -12.67,-11.51 -9.827,-24.605 19.528,-34.001 3.6,-37.459 46.439,-51.121 Z"
       style="fill:#ec008c;fill-opacity:1;fill-rule:nonzero;stroke:none"
       id="path162-1" /></g><g
     id="g164"
     transform="translate(203.2192,306.8813)"><path
       d="M 0,0 -12.762,4.085 -32.298,-13.661 -25.52,7.515 -67.109,-30.345 13.427,-12.854 2,-9.21 Z"
       style="fill:#00aeef;fill-opacity:1;fill-rule:nonzero;stroke:none"
       id="path166" /></g><g
     id="g168"
     transform="translate(200.376,319.9766)"><path
       d="M 0,0 12.67,11.51 -7.266,33.457 Z"
       style="fill:#2e3092;fill-opacity:1;fill-rule:nonzero;stroke:none"
       id="path170" /></g><g
     id="g172"
     transform="translate(177.6997,314.396)"><path
       d="M 0,0 -6.778,-21.175 12.758,-3.43 0.53,0.483 Z"
       style="fill:#2e3092;fill-opacity:1;fill-rule:nonzero;stroke:none"
       id="path174" /></g><g
     id="g176"
     transform="translate(203.2192,306.8813)"><path
       d="m 0,0 2,-9.21 11.427,-3.644 15.928,3.458 z"
       style="fill:#2e3092;fill-opacity:1;fill-rule:nonzero;stroke:none"
       id="path178" /></g></g></svg>
