<svg width="1500" height="377" viewBox="0 0 1500 377" fill="none" xmlns="http://www.w3.org/2000/svg">
<rect x="121.471" width="328" height="348" rx="36" fill="#4B4C55"/>
<rect x="152" y="75" width="265" height="148" rx="11" fill="#F2F2F2"/>
<rect x="153" y="32" width="264" height="19" rx="9.5" fill="white"/>
<rect x="152.471" y="245" width="265" height="78" rx="14" fill="#F2F2F2"/>
<path d="M669.983 214.891H610.413L597.034 252H577.698L631.995 109.812H648.401L702.796 252H683.557L669.983 214.891ZM616.077 199.461H664.417L640.198 132.957L616.077 199.461ZM827.362 200.34C827.362 216.421 823.684 229.376 816.327 239.207C808.97 249.038 799.009 253.953 786.444 253.953C773.619 253.953 763.527 249.884 756.171 241.746V292.625H738.104V146.336H754.608L755.487 158.055C762.844 148.94 773.065 144.383 786.151 144.383C798.846 144.383 808.872 149.168 816.229 158.738C823.651 168.309 827.362 181.622 827.362 198.68V200.34ZM809.296 198.289C809.296 186.375 806.757 176.967 801.678 170.066C796.6 163.165 789.634 159.715 780.78 159.715C769.843 159.715 761.639 164.565 756.171 174.266V224.754C761.574 234.389 769.843 239.207 780.975 239.207C789.634 239.207 796.503 235.789 801.581 228.953C806.724 222.052 809.296 211.831 809.296 198.289ZM958.667 200.34C958.667 216.421 954.988 229.376 947.632 239.207C940.275 249.038 930.314 253.953 917.749 253.953C904.923 253.953 894.832 249.884 887.475 241.746V292.625H869.409V146.336H885.913L886.792 158.055C894.149 148.94 904.37 144.383 917.456 144.383C930.151 144.383 940.177 149.168 947.534 158.738C954.956 168.309 958.667 181.622 958.667 198.68V200.34ZM940.6 198.289C940.6 186.375 938.061 176.967 932.983 170.066C927.905 163.165 920.939 159.715 912.085 159.715C901.147 159.715 892.944 164.565 887.475 174.266V224.754C892.879 234.389 901.147 239.207 912.28 239.207C920.939 239.207 927.807 235.789 932.885 228.953C938.029 222.052 940.6 211.831 940.6 198.289ZM1034.11 225.535L1058.72 146.336H1078.06L1035.58 268.309C1029 285.887 1018.55 294.676 1004.23 294.676L1000.81 294.383L994.073 293.113V278.465L998.956 278.855C1005.08 278.855 1009.83 277.618 1013.21 275.145C1016.66 272.671 1019.5 268.146 1021.71 261.57L1025.71 250.828L988.018 146.336H1007.74L1034.11 225.535ZM1137.78 120.75V146.336H1157.51V160.301H1137.78V225.828C1137.78 230.06 1138.66 233.25 1140.42 235.398C1142.17 237.482 1145.17 238.523 1149.4 238.523C1151.48 238.523 1154.35 238.133 1157.99 237.352V252C1153.24 253.302 1148.62 253.953 1144.13 253.953C1136.05 253.953 1129.97 251.512 1125.87 246.629C1121.76 241.746 1119.71 234.812 1119.71 225.828V160.301H1100.48V146.336H1119.71V120.75H1137.78ZM1241.55 253.953C1227.22 253.953 1215.57 249.266 1206.58 239.891C1197.6 230.451 1193.11 217.853 1193.11 202.098V198.777C1193.11 188.296 1195.09 178.953 1199.07 170.75C1203.1 162.482 1208.7 156.036 1215.86 151.414C1223.09 146.727 1230.9 144.383 1239.3 144.383C1253.04 144.383 1263.71 148.908 1271.33 157.957C1278.95 167.007 1282.76 179.962 1282.76 196.824V204.344H1211.17C1211.43 214.76 1214.46 223.191 1220.26 229.637C1226.12 236.017 1233.54 239.207 1242.52 239.207C1248.9 239.207 1254.31 237.905 1258.73 235.301C1263.16 232.697 1267.03 229.246 1270.35 224.949L1281.39 233.543C1272.54 247.15 1259.25 253.953 1241.55 253.953ZM1239.3 159.227C1232.01 159.227 1225.89 161.896 1220.94 167.234C1215.99 172.508 1212.93 179.93 1211.76 189.5H1264.69V188.133C1264.17 178.953 1261.7 171.857 1257.27 166.844C1252.84 161.766 1246.85 159.227 1239.3 159.227ZM1373.83 162.547C1371.09 162.091 1368.13 161.863 1364.94 161.863C1353.09 161.863 1345.05 166.909 1340.82 177V252H1322.75V146.336H1340.33L1340.62 158.543C1346.55 149.103 1354.95 144.383 1365.82 144.383C1369.33 144.383 1372 144.839 1373.83 145.75V162.547ZM1471.05 223.973C1471.05 219.09 1469.19 215.314 1465.48 212.645C1461.84 209.91 1455.42 207.566 1446.24 205.613C1437.13 203.66 1429.87 201.316 1424.47 198.582C1419.13 195.848 1415.16 192.592 1412.55 188.816C1410.01 185.04 1408.74 180.548 1408.74 175.34C1408.74 166.681 1412.39 159.357 1419.68 153.367C1427.04 147.378 1436.41 144.383 1447.81 144.383C1459.79 144.383 1469.49 147.475 1476.91 153.66C1484.4 159.845 1488.14 167.755 1488.14 177.391H1469.98C1469.98 172.443 1467.86 168.178 1463.63 164.598C1459.46 161.017 1454.19 159.227 1447.81 159.227C1441.23 159.227 1436.09 160.659 1432.38 163.523C1428.67 166.388 1426.81 170.132 1426.81 174.754C1426.81 179.116 1428.54 182.404 1431.99 184.617C1435.44 186.831 1441.66 188.947 1450.64 190.965C1459.69 192.983 1467.01 195.392 1472.61 198.191C1478.21 200.991 1482.35 204.376 1485.01 208.348C1487.75 212.254 1489.12 217.039 1489.12 222.703C1489.12 232.143 1485.34 239.728 1477.79 245.457C1470.24 251.121 1460.44 253.953 1448.39 253.953C1439.93 253.953 1432.44 252.456 1425.93 249.461C1419.42 246.466 1414.31 242.299 1410.6 236.961C1406.95 231.557 1405.13 225.73 1405.13 219.48H1423.2C1423.52 225.535 1425.93 230.353 1430.42 233.934C1434.98 237.449 1440.97 239.207 1448.39 239.207C1455.23 239.207 1460.7 237.84 1464.8 235.105C1468.97 232.306 1471.05 228.595 1471.05 223.973Z" fill="#4B4C55"/>
<path fill-rule="evenodd" clip-rule="evenodd" d="M502.233 99.0165C497.894 87.7478 483.301 78.085 449.472 76.0002C449.472 64.0002 449.472 45.5002 449.472 45.5002C489.303 47.1733 524.968 58.4231 535.645 86.1504C541.831 102.215 537.957 119.96 528.461 136.961C519.012 153.876 503.494 171.085 484.032 187.673C445.058 220.893 387.59 253.902 320.958 279.56C254.327 305.218 189.562 319.277 138.372 320.776C112.811 321.525 89.7585 319.168 71.4059 312.959C52.9599 306.718 38.1845 296.154 31.9986 280.089C23.479 257.965 33.913 232.957 52.2387 210.202C68.4237 190.104 92.3485 169.614 121.472 150.216C121.472 164.48 121.472 186.74 121.472 186.74C121.472 186.74 89.9037 213.082 80.1365 225.21C64.9515 244.066 61.8459 257.965 65.411 267.223C68.0207 274.001 74.7829 280.131 87.7535 284.519C100.817 288.939 119.061 291.148 141.812 290.482C187.246 289.151 247.17 276.459 310.39 252.115C373.61 227.77 426.57 196.994 461.163 167.509C478.485 152.745 490.535 138.871 497.261 126.83C503.938 114.876 504.843 105.794 502.233 99.0165Z" fill="#F37726"/>
<rect width="58" height="17" transform="matrix(0 -1 -1 0 314 197)" fill="#4B4C55"/>
<rect width="40" height="17" transform="matrix(0 -1 -1 0 340 197)" fill="#4B4C55"/>
<rect width="48" height="17" transform="matrix(0 -1 -1 0 236 197)" fill="#4B4C55"/>
<rect width="80" height="17" transform="matrix(0 -1 -1 0 288 197)" fill="#4B4C55"/>
<rect width="96" height="17" transform="matrix(0 -1 -1 0 262 197)" fill="#4B4C55"/>
</svg>
