<?xml version="1.0" encoding="UTF-8" standalone="no"?>
<svg
   xmlns:dc="http://purl.org/dc/elements/1.1/"
   xmlns:cc="http://creativecommons.org/ns#"
   xmlns:rdf="http://www.w3.org/1999/02/22-rdf-syntax-ns#"
   xmlns:svg="http://www.w3.org/2000/svg"
   xmlns="http://www.w3.org/2000/svg"
   xmlns:sodipodi="http://sodipodi.sourceforge.net/DTD/sodipodi-0.dtd"
   xmlns:inkscape="http://www.inkscape.org/namespaces/inkscape"
   version="1.1"
   id="svg2"
   xml:space="preserve"
   width="684.56946"
   height="213.35905"
   viewBox="0 0 684.56946 213.35905"
   sodipodi:docname="appyters_logo.svg"
   inkscape:version="1.0.1 (3bc2e813f5, 2020-09-07)"><metadata
     id="metadata8"><rdf:RDF><cc:Work
         rdf:about=""><dc:format>image/svg+xml</dc:format><dc:type
           rdf:resource="http://purl.org/dc/dcmitype/StillImage" /><dc:title /></cc:Work></rdf:RDF></metadata><defs
     id="defs6"><clipPath
       clipPathUnits="userSpaceOnUse"
       id="clipPath18"><path
         d="M 0,612 H 792 V 0 H 0 Z"
         id="path16" /></clipPath></defs><sodipodi:namedview
     pagecolor="#ffffff"
     bordercolor="#666666"
     borderopacity="1"
     objecttolerance="10"
     gridtolerance="10"
     guidetolerance="10"
     inkscape:pageopacity="0"
     inkscape:pageshadow="2"
     inkscape:window-width="1092"
     inkscape:window-height="977"
     id="namedview4"
     showgrid="false"
     inkscape:zoom="1.125"
     inkscape:cx="-8.1469255"
     inkscape:cy="72.759098"
     inkscape:window-x="15"
     inkscape:window-y="56"
     inkscape:window-maximized="0"
     inkscape:current-layer="g10"
     inkscape:document-rotation="0" /><g
     id="g10"
     inkscape:groupmode="layer"
     inkscape:label="Appyters_Logo_Artwork"
     transform="matrix(1.3333333,0,0,-1.3333333,-181.48026,516.31465)"><g
       id="g12"><g
         id="g14"
         clip-path="url(#clipPath18)"><g
           id="g20"
           transform="translate(301.4736,319.0552)"><path
             d="m 0,0 h -12.109 c -9.004,0 -13.455,-2.277 -13.455,-9.004 0,-7.038 5.588,-8.798 11.591,-8.798 8.695,0 13.973,1.656 13.973,9.936 z m 7.763,-8.177 c 0,-11.591 -6.831,-16.353 -21.632,-16.353 -11.074,0 -19.458,4.244 -19.458,15.526 0,11.074 7.556,15.11 21.114,15.11 H 0 v 6.21 c 0,7.453 -5.382,9.419 -13.559,9.419 -6.003,0 -11.074,-0.828 -14.696,-2.07 v 7.038 c 3.829,1.242 8.59,1.863 14.282,1.863 12.732,0 21.736,-3.933 21.736,-16.25 z"
             style="fill:#808285;fill-opacity:1;fill-rule:nonzero;stroke:none"
             id="path22" /></g><g
           id="g24"
           transform="translate(358.501,325.8862)"><path
             d="M 0,0 C 0,9.418 -2.794,14.386 -14.8,14.386 -26.703,14.386 -29.704,9.418 -29.704,0 v -9.625 c 0,-9.315 3.001,-14.387 14.904,-14.387 11.903,0 14.8,5.072 14.8,14.387 z m -37.467,0.104 c 0,14.076 7.349,21.631 22.667,21.631 15.939,0 22.666,-7.555 22.666,-21.631 v -9.626 c 0,-13.352 -5.899,-21.839 -21.425,-21.839 -8.693,0 -13.662,2.899 -16.145,7.659 v -27.324 h -7.763 z"
             style="fill:#808285;fill-opacity:1;fill-rule:nonzero;stroke:none"
             id="path26" /></g><g
           id="g28"
           transform="translate(415.6318,325.8862)"><path
             d="M 0,0 C 0,9.418 -2.794,14.386 -14.8,14.386 -26.703,14.386 -29.704,9.418 -29.704,0 v -9.625 c 0,-9.315 3.001,-14.387 14.904,-14.387 11.903,0 14.8,5.072 14.8,14.387 z m -37.467,0.104 c 0,14.076 7.349,21.631 22.667,21.631 15.939,0 22.666,-7.555 22.666,-21.631 v -9.626 c 0,-13.352 -5.899,-21.839 -21.425,-21.839 -8.693,0 -13.662,2.899 -16.145,7.659 v -27.324 h -7.763 z"
             style="fill:#808285;fill-opacity:1;fill-rule:nonzero;stroke:none"
             id="path30" /></g><g
           id="g32"
           transform="translate(447.4062,307.4629)"><path
             d="m 0,0 c 1.346,-4.761 2.897,-5.692 6.313,-5.692 2.898,0 4.658,1.035 5.796,5.692 l 9.419,39.124 h 7.969 L 16.767,-11.902 C 13.455,-25.15 6.831,-34.361 -7.038,-33.947 l -1.656,6.934 C 2.587,-27.53 6.21,-20.596 9.004,-11.281 7.763,-12.006 5.899,-12.42 3.829,-12.42 c -7.452,0 -9.625,4.762 -11.592,12.109 l -10.763,39.435 h 7.865 z"
             style="fill:#808285;fill-opacity:1;fill-rule:nonzero;stroke:none"
             id="path34" /></g><g
           id="g36"
           transform="translate(481.1465,345.3442)"><path
             d="m 0,0 8.693,1.242 1.45,13.455 h 6.313 V 1.242 H 36.432 V -6.106 H 16.456 v -26.29 c 0,-8.486 3.83,-10.971 9.523,-10.971 4.553,0 9.314,0.725 12.316,2.071 v -7.349 c -3.209,-1.346 -7.556,-2.07 -12.213,-2.07 -10.144,0 -17.389,4.658 -17.389,18.319 v 26.29 H 0 Z"
             style="fill:#808285;fill-opacity:1;fill-rule:nonzero;stroke:none"
             id="path38" /></g><g
           id="g40"
           transform="translate(535.5859,324.644)"><path
             d="m 0,0 h 27.945 v 3.416 c 0,9.004 -5.382,12.626 -13.972,12.626 C 5.175,16.042 0,12.42 0,3.416 Z M 34.466,-6.521 H 0 v -3.104 c 0,-9.522 4.864,-13.145 16.146,-13.145 6.21,0 13.456,1.449 17.388,3.105 v -7.348 c -4.657,-1.967 -11.178,-3.106 -17.388,-3.106 -15.939,0 -23.909,6.107 -23.909,21.632 v 9.626 c 0,12.523 5.279,21.838 21.839,21.838 13.559,0 21.218,-6.831 21.218,-20.7 0,-2.588 -0.207,-6.21 -0.828,-8.798"
             style="fill:#808285;fill-opacity:1;fill-rule:nonzero;stroke:none"
             id="path42" /></g><g
           id="g44"
           transform="translate(589.0937,295.5605)"><path
             d="m 0,0 h -7.763 v 34.155 c 0,10.971 5.175,17.906 17.699,17.906 2.691,0 4.658,-0.311 6.417,-0.828 V 43.781 C 14.801,44.298 12.73,44.712 9.936,44.712 2.07,44.712 0,40.779 0,33.741 Z"
             style="fill:#808285;fill-opacity:1;fill-rule:nonzero;stroke:none"
             id="path46" /></g><g
           id="g48"
           transform="translate(612.0693,304.7725)"><path
             d="m 0,0 c 4.865,-1.449 10.454,-3.002 18.526,-3.002 7.763,0 11.283,1.449 11.283,5.899 0,3.416 -1.967,5.176 -6.728,7.453 l -12.627,6.003 c -5.899,2.794 -9.626,5.796 -9.626,13.455 0,9.005 5.796,13.041 18.319,13.041 6.832,0 11.179,-1.139 16.043,-3.105 v -7.349 c -4.864,2.07 -9.833,3.209 -16.25,3.209 -7.554,0 -10.453,-1.656 -10.453,-5.796 0,-3.105 1.553,-5.072 5.486,-6.831 l 13.144,-6.003 c 6.314,-2.898 10.351,-6.003 10.351,-13.87 0,-9.314 -6.21,-13.351 -19.562,-13.351 -7.452,0 -12.628,1.242 -17.906,3.002 z"
             style="fill:#808285;fill-opacity:1;fill-rule:nonzero;stroke:none"
             id="path50" /></g><g
           id="g52"
           transform="translate(284.6118,241.7109)"><path
             d="M 0,0 C -1.827,5.309 -2.836,8.291 -3.026,8.949 L -6.183,0 Z m 2.974,-7.975 -2.247,6.092 h -7.664 l -2.324,-6.092 h -2.286 l 7.377,19.249 h 2.299 L 5.286,-7.975 Z"
             style="fill:#808285;fill-opacity:1;fill-rule:nonzero;stroke:none"
             id="path54" /></g><g
           id="g56"
           transform="translate(304.4575,233.4375)"><path
             d="m 0,0 c -2.096,0 -3.734,0.68 -4.916,2.039 -1.182,1.359 -1.772,3.139 -1.772,5.339 0.007,2.216 0.612,4.016 1.811,5.396 1.199,1.381 2.842,2.072 4.929,2.072 0.736,0 1.448,-0.091 2.136,-0.273 0.689,-0.181 1.232,-0.42 1.63,-0.715 L 3.222,12.17 c -1.014,0.546 -2.083,0.818 -3.209,0.818 -1.376,0 -2.466,-0.502 -3.267,-1.506 -0.801,-1.004 -1.201,-2.377 -1.201,-4.118 0,-1.696 0.396,-3.041 1.188,-4.032 0.792,-0.992 1.89,-1.487 3.293,-1.487 1.118,0 2.26,0.302 3.429,0.909 L 3.728,1.026 C 2.784,0.343 1.541,0 0,0"
             style="fill:#808285;fill-opacity:1;fill-rule:nonzero;stroke:none"
             id="path58" /></g><g
           id="g60"
           transform="translate(315.1206,235.1914)"><path
             d="M 0,0 C 1.03,0 1.937,0.283 2.721,0.851 3.505,1.418 4.009,2.182 4.234,3.143 V 5.546 C 4.19,5.546 3.929,5.524 3.448,5.48 2.968,5.437 2.654,5.411 2.507,5.403 0.628,5.238 -0.682,4.931 -1.422,4.48 -2.162,4.03 -2.533,3.308 -2.533,2.312 -2.533,1.55 -2.308,0.974 -1.857,0.584 -1.407,0.194 -0.788,0 0,0 M 4.715,-1.455 C 4.585,-0.9 4.459,-0.304 4.338,0.338 3.55,-0.45 2.81,-0.996 2.117,-1.299 1.424,-1.602 0.61,-1.754 -0.324,-1.754 c -1.334,0 -2.405,0.349 -3.215,1.046 -0.81,0.697 -1.215,1.699 -1.215,3.007 0,1.455 0.552,2.532 1.656,3.234 1.104,0.701 2.696,1.138 4.774,1.312 0.285,0.026 0.716,0.062 1.292,0.11 0.576,0.048 1.007,0.084 1.292,0.11 v 1.26 c 0,1.005 -0.234,1.749 -0.701,2.235 -0.468,0.484 -1.204,0.727 -2.208,0.727 -1.403,0 -2.819,-0.347 -4.247,-1.039 -0.043,0.104 -0.157,0.404 -0.338,0.902 -0.182,0.498 -0.278,0.755 -0.286,0.773 0.632,0.355 1.383,0.639 2.253,0.85 0.871,0.213 1.756,0.319 2.657,0.319 1.775,0 3.054,-0.388 3.838,-1.162 0.784,-0.776 1.175,-2.094 1.175,-3.955 v -9.43 z"
             style="fill:#808285;fill-opacity:1;fill-rule:nonzero;stroke:none"
             id="path62" /></g><g
           id="g64"
           transform="translate(329.811,233.4766)"><path
             d="M 0,0 C -1.403,0 -2.398,0.342 -2.987,1.026 -3.576,1.71 -3.888,2.814 -3.923,4.338 v 8.559 H -6.04 l 0.092,1.429 2.012,0.182 0.741,3.261 1.428,0.051 V 14.508 H 2.195 V 12.897 H -1.767 V 4.728 c 0,-1.082 0.164,-1.844 0.495,-2.286 C -0.944,2 -0.381,1.779 0.415,1.779 c 0.286,0 0.905,0.07 1.857,0.208 L 2.364,0.273 C 1.333,0.091 0.546,0 0,0"
             style="fill:#808285;fill-opacity:1;fill-rule:nonzero;stroke:none"
             id="path66" /></g><g
           id="g68"
           transform="translate(338.5649,235.1914)"><path
             d="M 0,0 C 1.03,0 1.937,0.283 2.721,0.851 3.505,1.418 4.009,2.182 4.234,3.143 V 5.546 C 4.19,5.546 3.929,5.524 3.448,5.48 2.968,5.437 2.654,5.411 2.507,5.403 0.628,5.238 -0.682,4.931 -1.422,4.48 -2.162,4.03 -2.533,3.308 -2.533,2.312 -2.533,1.55 -2.308,0.974 -1.857,0.584 -1.407,0.194 -0.788,0 0,0 M 4.715,-1.455 C 4.585,-0.9 4.459,-0.304 4.338,0.338 3.55,-0.45 2.81,-0.996 2.117,-1.299 1.424,-1.602 0.61,-1.754 -0.324,-1.754 c -1.334,0 -2.405,0.349 -3.215,1.046 -0.81,0.697 -1.215,1.699 -1.215,3.007 0,1.455 0.552,2.532 1.656,3.234 1.104,0.701 2.696,1.138 4.774,1.312 0.285,0.026 0.716,0.062 1.292,0.11 0.576,0.048 1.007,0.084 1.292,0.11 v 1.26 c 0,1.005 -0.234,1.749 -0.701,2.235 -0.468,0.484 -1.204,0.727 -2.208,0.727 -1.403,0 -2.819,-0.347 -4.247,-1.039 -0.043,0.104 -0.157,0.404 -0.338,0.902 -0.182,0.498 -0.278,0.755 -0.286,0.773 0.632,0.355 1.383,0.639 2.253,0.85 0.871,0.213 1.756,0.319 2.657,0.319 1.775,0 3.054,-0.388 3.838,-1.162 0.784,-0.776 1.175,-2.094 1.175,-3.955 v -9.43 z"
             style="fill:#808285;fill-opacity:1;fill-rule:nonzero;stroke:none"
             id="path70" /></g><g
           id="g72"
           transform="translate(352.5396,233.4766)"><path
             d="m 0,0 c -1.385,0 -2.365,0.372 -2.941,1.117 -0.577,0.745 -0.865,2.039 -0.865,3.884 v 15.04 l 2.157,0.13 V 5.858 c 0,-0.589 0.006,-1.061 0.019,-1.416 0.014,-0.355 0.046,-0.704 0.098,-1.046 0.052,-0.341 0.121,-0.599 0.208,-0.772 0.086,-0.174 0.212,-0.331 0.376,-0.475 0.165,-0.142 0.362,-0.238 0.592,-0.285 0.228,-0.048 0.512,-0.071 0.85,-0.071 0.277,0 0.822,0.052 1.637,0.155 L 2.247,0.221 C 1.355,0.074 0.606,0 0,0"
             style="fill:#808285;fill-opacity:1;fill-rule:nonzero;stroke:none"
             id="path74" /></g><g
           id="g76"
           transform="translate(357.6831,240.8281)"><path
             d="m 0,0 c 0,-1.688 0.375,-3.041 1.124,-4.059 0.749,-1.017 1.842,-1.526 3.279,-1.526 1.42,0 2.493,0.507 3.215,1.52 0.723,1.013 1.085,2.377 1.085,4.091 0,1.741 -0.357,3.111 -1.072,4.111 -0.714,1 -1.803,1.5 -3.267,1.5 C 2.944,5.637 1.862,5.126 1.117,4.104 0.373,3.083 0,1.715 0,0 m 10.949,0.039 c 0,-2.208 -0.589,-3.998 -1.765,-5.371 C 8.006,-6.704 6.378,-7.391 4.3,-7.391 c -2,0 -3.592,0.694 -4.774,2.079 -1.181,1.385 -1.772,3.165 -1.772,5.338 0,2.216 0.593,4.009 1.779,5.377 1.186,1.368 2.814,2.052 4.883,2.052 2.035,0 3.633,-0.686 4.793,-2.059 1.16,-1.372 1.74,-3.158 1.74,-5.357"
             style="fill:#808285;fill-opacity:1;fill-rule:nonzero;stroke:none"
             id="path78" /></g><g
           id="g80"
           transform="translate(377.231,235.5937)"><path
             d="M 0,0 C 0.735,0 1.381,0.13 1.935,0.39 2.489,0.649 2.922,1.009 3.233,1.468 3.546,1.927 3.777,2.438 3.929,3 4.08,3.563 4.156,4.178 4.156,4.845 V 5.896 C 4.156,6.59 4.078,7.229 3.922,7.812 3.767,8.397 3.526,8.921 3.201,9.384 2.877,9.848 2.443,10.209 1.902,10.469 c -0.541,0.26 -1.171,0.389 -1.889,0.389 -0.598,0 -1.141,-0.112 -1.63,-0.337 C -2.106,10.295 -2.509,9.999 -2.825,9.631 -3.142,9.263 -3.41,8.834 -3.631,8.345 -3.852,7.855 -4.01,7.36 -4.104,6.858 -4.2,6.355 -4.247,5.85 -4.247,5.338 c 0,-0.502 0.052,-1 0.155,-1.493 C -3.987,3.352 -3.823,2.87 -3.598,2.403 -3.373,1.936 -3.101,1.526 -2.779,1.176 -2.46,0.825 -2.059,0.541 -1.578,0.325 -1.098,0.108 -0.572,0 0,0 m -3.338,-8.377 -0.195,1.961 h 2.649 c 0.737,0 1.377,0.052 1.923,0.156 0.545,0.104 1,0.275 1.363,0.513 0.365,0.238 0.659,0.502 0.884,0.792 0.225,0.29 0.396,0.667 0.513,1.13 0.117,0.464 0.194,0.923 0.233,1.377 0.039,0.455 0.059,1.011 0.059,1.669 V 0.48 C 3.571,-0.264 2.97,-0.838 2.285,-1.24 1.602,-1.643 0.731,-1.844 -0.325,-1.844 c -0.814,0 -1.565,0.141 -2.253,0.422 -0.689,0.281 -1.269,0.655 -1.741,1.123 -0.472,0.468 -0.874,1.009 -1.207,1.624 -0.334,0.614 -0.577,1.251 -0.728,1.909 -0.151,0.659 -0.227,1.321 -0.227,1.988 0,1.039 0.127,2 0.382,2.882 0.256,0.884 0.635,1.671 1.137,2.365 0.502,0.692 1.162,1.236 1.981,1.63 0.818,0.393 1.755,0.59 2.812,0.59 0.935,0 1.751,-0.179 2.448,-0.539 0.697,-0.359 1.323,-0.911 1.877,-1.655 v 1.896 H 6.273 V -0.831 C 6.273,-1.437 6.258,-1.968 6.228,-2.422 6.197,-2.877 6.124,-3.381 6.007,-3.936 5.89,-4.489 5.731,-4.966 5.533,-5.364 5.333,-5.762 5.054,-6.163 4.695,-6.565 4.336,-6.968 3.907,-7.293 3.409,-7.54 2.911,-7.786 2.294,-7.987 1.559,-8.144 0.822,-8.3 -0.009,-8.377 -0.936,-8.377 Z"
             style="fill:#808285;fill-opacity:1;fill-rule:nonzero;stroke:none"
             id="path82" /></g><g
           id="g84"
           transform="translate(395.3364,240.8281)"><path
             d="m 0,0 c 0,-1.688 0.375,-3.041 1.124,-4.059 0.749,-1.017 1.842,-1.526 3.28,-1.526 1.42,0 2.492,0.507 3.215,1.52 0.722,1.013 1.084,2.377 1.084,4.091 0,1.741 -0.358,3.111 -1.073,4.111 -0.713,1 -1.802,1.5 -3.265,1.5 C 2.945,5.637 1.863,5.126 1.117,4.104 0.373,3.083 0,1.715 0,0 m 10.949,0.039 c 0,-2.208 -0.588,-3.998 -1.766,-5.371 C 8.005,-6.704 6.378,-7.391 4.3,-7.391 c -2,0 -3.592,0.694 -4.774,2.079 -1.181,1.385 -1.772,3.165 -1.772,5.338 0,2.216 0.593,4.009 1.779,5.377 1.186,1.368 2.814,2.052 4.883,2.052 2.035,0 3.632,-0.686 4.792,-2.059 1.161,-1.372 1.741,-3.158 1.741,-5.357"
             style="fill:#808285;fill-opacity:1;fill-rule:nonzero;stroke:none"
             id="path86" /></g><g
           id="g88"
           transform="translate(414.7676,252.1279)"><path
             d="m 0,0 c -0.9,0 -1.518,-0.26 -1.852,-0.779 -0.334,-0.52 -0.5,-1.42 -0.5,-2.701 v -0.664 h 3.43 v -1.61 h -3.43 V -18.392 H -4.52 v 12.638 h -2.312 l 0.182,1.429 2.13,0.181 v 0.637 c 0.016,1.836 0.362,3.167 1.032,3.994 0.672,0.826 1.756,1.241 3.254,1.241 0.58,0 1.291,-0.066 2.13,-0.196 L 1.754,-0.169 C 0.982,-0.057 0.398,0 0,0"
             style="fill:#808285;fill-opacity:1;fill-rule:nonzero;stroke:none"
             id="path90" /></g><g
           id="g92"
           transform="translate(428.7949,235.1914)"><path
             d="M 0,0 C 1.029,0 1.937,0.283 2.721,0.851 3.504,1.418 4.008,2.182 4.234,3.143 V 5.546 C 4.189,5.546 3.928,5.524 3.447,5.48 2.967,5.437 2.654,5.411 2.506,5.403 0.627,5.238 -0.682,4.931 -1.422,4.48 -2.162,4.03 -2.533,3.308 -2.533,2.312 -2.533,1.55 -2.309,0.974 -1.857,0.584 -1.408,0.194 -0.789,0 0,0 M 4.715,-1.455 C 4.584,-0.9 4.459,-0.304 4.338,0.338 3.549,-0.45 2.809,-0.996 2.117,-1.299 1.424,-1.602 0.609,-1.754 -0.324,-1.754 c -1.334,0 -2.406,0.349 -3.215,1.046 -0.811,0.697 -1.215,1.699 -1.215,3.007 0,1.455 0.551,2.532 1.656,3.234 1.104,0.701 2.696,1.138 4.774,1.312 0.285,0.026 0.715,0.062 1.291,0.11 0.576,0.048 1.008,0.084 1.293,0.11 v 1.26 c 0,1.005 -0.235,1.749 -0.701,2.235 -0.469,0.484 -1.204,0.727 -2.209,0.727 -1.403,0 -2.819,-0.347 -4.246,-1.039 -0.043,0.104 -0.157,0.404 -0.338,0.902 -0.182,0.498 -0.278,0.755 -0.286,0.773 0.631,0.355 1.383,0.639 2.252,0.85 0.872,0.213 1.756,0.319 2.657,0.319 1.775,0 3.054,-0.388 3.838,-1.162 0.785,-0.776 1.175,-2.094 1.175,-3.955 v -9.43 z"
             style="fill:#808285;fill-opacity:1;fill-rule:nonzero;stroke:none"
             id="path94" /></g><g
           id="g96"
           transform="translate(445.25,235.2695)"><path
             d="M 0,0 C 0.658,0 1.246,0.149 1.766,0.447 2.285,0.746 2.705,1.155 3.027,1.675 3.348,2.194 3.59,2.785 3.754,3.448 3.918,4.11 4,4.827 4,5.598 4,7.226 3.658,8.561 2.975,9.604 c -0.684,1.043 -1.684,1.566 -3,1.566 -2.754,0 -4.131,-1.779 -4.131,-5.339 0,-1.931 0.322,-3.386 0.968,-4.363 C -2.543,0.488 -1.48,0 0,0 m -6.312,-7.716 v 20.431 h 1.91 l 0.207,-1.935 c 1.248,1.49 2.744,2.234 4.494,2.234 1.299,0 2.398,-0.325 3.299,-0.974 0.9,-0.649 1.564,-1.528 1.994,-2.637 C 6.02,8.295 6.234,7 6.234,5.52 6.234,4.1 6,2.838 5.533,1.733 5.066,0.63 4.379,-0.24 3.475,-0.877 2.57,-1.514 1.512,-1.832 0.299,-1.832 c -0.918,0 -1.779,0.206 -2.584,0.617 -0.807,0.411 -1.451,0.955 -1.936,1.63 0.051,-0.935 0.078,-1.844 0.078,-2.728 v -5.259 z"
             style="fill:#808285;fill-opacity:1;fill-rule:nonzero;stroke:none"
             id="path98" /></g><g
           id="g100"
           transform="translate(460.8496,235.2695)"><path
             d="M 0,0 C 0.658,0 1.246,0.149 1.766,0.447 2.285,0.746 2.705,1.155 3.027,1.675 3.348,2.194 3.59,2.785 3.754,3.448 3.918,4.11 4,4.827 4,5.598 4,7.226 3.658,8.561 2.975,9.604 c -0.684,1.043 -1.684,1.566 -3,1.566 -2.754,0 -4.131,-1.779 -4.131,-5.339 0,-1.931 0.322,-3.386 0.968,-4.363 C -2.543,0.488 -1.48,0 0,0 m -6.312,-7.716 v 20.431 h 1.91 l 0.207,-1.935 c 1.248,1.49 2.744,2.234 4.494,2.234 1.299,0 2.398,-0.325 3.299,-0.974 0.9,-0.649 1.564,-1.528 1.994,-2.637 C 6.02,8.295 6.234,7 6.234,5.52 6.234,4.1 6,2.838 5.533,1.733 5.066,0.63 4.379,-0.24 3.475,-0.877 2.57,-1.514 1.512,-1.832 0.299,-1.832 c -0.918,0 -1.779,0.206 -2.584,0.617 -0.807,0.411 -1.451,0.955 -1.936,1.63 0.051,-0.935 0.078,-1.844 0.078,-2.728 v -5.259 z"
             style="fill:#808285;fill-opacity:1;fill-rule:nonzero;stroke:none"
             id="path102" /></g><g
           id="g104"
           transform="translate(468.1875,247.9844)"><path
             d="m 0,0 h 2.299 l 4.494,-11.858 4,11.858 h 2.299 c -3.844,-10.581 -5.83,-16.036 -5.961,-16.365 -0.598,-1.498 -1.32,-2.595 -2.17,-3.292 -0.848,-0.697 -1.965,-1.046 -3.35,-1.046 -0.416,0 -0.853,0.035 -1.312,0.104 l -0.129,1.844 c 0.484,-0.034 0.848,-0.052 1.09,-0.052 0.978,0 1.72,0.18 2.228,0.539 0.506,0.36 0.959,1.033 1.358,2.02 0.353,0.909 0.619,1.61 0.791,2.104 z"
             style="fill:#808285;fill-opacity:1;fill-rule:nonzero;stroke:none"
             id="path106" /></g><g
           id="g108"
           transform="translate(487.8262,233.4766)"><path
             d="M 0,0 C -1.404,0 -2.398,0.342 -2.988,1.026 -3.576,1.71 -3.889,2.814 -3.924,4.338 v 8.559 h -2.117 l 0.092,1.429 2.013,0.182 0.741,3.261 1.427,0.051 V 14.508 H 2.195 V 12.897 H -1.768 V 4.728 c 0,-1.082 0.164,-1.844 0.495,-2.286 C -0.945,2 -0.381,1.779 0.414,1.779 c 0.287,0 0.906,0.07 1.857,0.208 L 2.363,0.273 C 1.332,0.091 0.545,0 0,0"
             style="fill:#808285;fill-opacity:1;fill-rule:nonzero;stroke:none"
             id="path110" /></g><g
           id="g112"
           transform="translate(500.5742,245.3545)"><path
             d="m 0,0 c -0.637,0.758 -1.51,1.137 -2.617,1.137 -1.11,0 -2.014,-0.392 -2.715,-1.176 -0.701,-0.783 -1.113,-1.856 -1.234,-3.215 H 0.955 C 0.955,-1.842 0.637,-0.758 0,0 m -2.189,-11.917 c -2.069,0 -3.7,0.658 -4.889,1.975 -1.192,1.316 -1.787,3.117 -1.787,5.403 0,2.208 0.576,3.998 1.728,5.37 1.151,1.373 2.666,2.072 4.545,2.098 1.768,0 3.168,-0.604 4.201,-1.812 1.036,-1.208 1.553,-2.82 1.553,-4.838 0,-0.104 -0.002,-0.295 -0.006,-0.572 C 3.15,-4.569 3.148,-4.769 3.148,-4.89 h -9.779 c 0.026,-1.619 0.444,-2.881 1.254,-3.786 0.809,-0.905 1.898,-1.357 3.266,-1.357 1.507,0 3.017,0.398 4.533,1.194 l 0.338,-1.753 c -1.446,-0.883 -3.096,-1.325 -4.949,-1.325"
             style="fill:#808285;fill-opacity:1;fill-rule:nonzero;stroke:none"
             id="path114" /></g><g
           id="g116"
           transform="translate(513.1406,248.1143)"><path
             d="M 0,0 C 0.389,0 0.744,-0.025 1.064,-0.077 L 0.986,-2.078 c -0.398,0.069 -0.744,0.104 -1.039,0.104 -1.213,0 -2.197,-0.422 -2.955,-1.266 -0.758,-0.845 -1.137,-1.89 -1.137,-3.137 v -8.001 h -2.167 c -0.01,8.746 -0.014,13.495 -0.014,14.248 h 1.805 l 0.209,-2.558 c 0.492,0.805 1.121,1.455 1.882,1.948 C -1.668,-0.246 -0.857,0 0,0"
             style="fill:#808285;fill-opacity:1;fill-rule:nonzero;stroke:none"
             id="path118" /></g><g
           id="g120"
           transform="translate(523.0762,233.7363)"><path
             d="m 0,0 v 14.248 h 1.818 l 0.274,-2.039 c 0.562,0.701 1.265,1.267 2.109,1.695 0.846,0.429 1.756,0.643 2.735,0.643 1.646,0 2.861,-0.461 3.65,-1.383 0.787,-0.923 1.182,-2.34 1.182,-4.254 V 0 H 9.6 c 0,5.715 -0.006,8.775 -0.014,9.183 -0.035,1.213 -0.279,2.099 -0.734,2.663 -0.456,0.562 -1.215,0.843 -2.28,0.843 -1.117,0 -2.047,-0.268 -2.793,-0.804 C 3.035,11.348 2.551,10.65 2.326,9.793 2.238,9.213 2.195,8.547 2.195,7.793 V 0 Z"
             style="fill:#808285;fill-opacity:1;fill-rule:nonzero;stroke:none"
             id="path122" /></g><g
           id="g124"
           transform="translate(540.0391,240.8281)"><path
             d="m 0,0 c 0,-1.688 0.375,-3.041 1.123,-4.059 0.75,-1.017 1.842,-1.526 3.279,-1.526 1.42,0 2.493,0.507 3.215,1.52 0.723,1.013 1.086,2.377 1.086,4.091 0,1.741 -0.357,3.111 -1.072,4.111 -0.715,1 -1.803,1.5 -3.268,1.5 C 2.943,5.637 1.861,5.126 1.117,4.104 0.373,3.083 0,1.715 0,0 m 10.949,0.039 c 0,-2.208 -0.59,-3.998 -1.765,-5.371 -1.178,-1.372 -2.807,-2.059 -4.885,-2.059 -2,0 -3.592,0.694 -4.774,2.079 -1.181,1.385 -1.771,3.165 -1.771,5.338 0,2.216 0.592,4.009 1.779,5.377 1.186,1.368 2.813,2.052 4.883,2.052 2.035,0 3.633,-0.686 4.793,-2.059 1.16,-1.372 1.74,-3.158 1.74,-5.357"
             style="fill:#808285;fill-opacity:1;fill-rule:nonzero;stroke:none"
             id="path126" /></g><g
           id="g128"
           transform="translate(558.5996,233.4766)"><path
             d="M 0,0 C -1.404,0 -2.398,0.342 -2.988,1.026 -3.576,1.71 -3.889,2.814 -3.924,4.338 v 8.559 h -2.117 l 0.092,1.429 2.013,0.182 0.741,3.261 1.427,0.051 V 14.508 H 2.195 V 12.897 H -1.768 V 4.728 c 0,-1.082 0.164,-1.844 0.495,-2.286 C -0.945,2 -0.381,1.779 0.414,1.779 c 0.287,0 0.906,0.07 1.857,0.208 L 2.363,0.273 C 1.332,0.091 0.545,0 0,0"
             style="fill:#808285;fill-opacity:1;fill-rule:nonzero;stroke:none"
             id="path130" /></g><g
           id="g132"
           transform="translate(571.3477,245.3545)"><path
             d="m 0,0 c -0.637,0.758 -1.51,1.137 -2.617,1.137 -1.11,0 -2.014,-0.392 -2.715,-1.176 -0.701,-0.783 -1.113,-1.856 -1.234,-3.215 H 0.955 C 0.955,-1.842 0.637,-0.758 0,0 m -2.189,-11.917 c -2.069,0 -3.7,0.658 -4.889,1.975 -1.192,1.316 -1.787,3.117 -1.787,5.403 0,2.208 0.576,3.998 1.728,5.37 1.151,1.373 2.666,2.072 4.545,2.098 1.768,0 3.168,-0.604 4.201,-1.812 1.036,-1.208 1.553,-2.82 1.553,-4.838 0,-0.104 -0.002,-0.295 -0.006,-0.572 C 3.15,-4.569 3.148,-4.769 3.148,-4.89 h -9.779 c 0.026,-1.619 0.444,-2.881 1.254,-3.786 0.809,-0.905 1.898,-1.357 3.266,-1.357 1.507,0 3.017,0.398 4.533,1.194 l 0.338,-1.753 c -1.446,-0.883 -3.096,-1.325 -4.949,-1.325"
             style="fill:#808285;fill-opacity:1;fill-rule:nonzero;stroke:none"
             id="path134" /></g><g
           id="g136"
           transform="translate(584.0039,246.4785)"><path
             d="m 0,0 c -1.377,0 -2.432,-0.475 -3.162,-1.423 -0.733,-0.948 -1.098,-2.34 -1.098,-4.176 0,-3.757 1.416,-5.636 4.246,-5.636 0.703,0 1.319,0.144 1.852,0.435 0.533,0.29 0.953,0.696 1.26,1.221 0.306,0.523 0.537,1.114 0.689,1.772 0.151,0.659 0.227,1.39 0.227,2.196 0,1.09 -0.129,2.043 -0.383,2.857 C 3.375,-1.94 2.939,-1.277 2.324,-0.767 1.711,-0.256 0.936,0 0,0 m 0.221,1.805 c 1.263,0 2.355,-0.321 3.273,-0.961 0.918,-0.641 1.606,-1.511 2.065,-2.611 0.459,-1.099 0.689,-2.359 0.689,-3.78 0,-1.472 -0.228,-2.766 -0.682,-3.883 -0.455,-1.117 -1.144,-1.998 -2.066,-2.643 -0.922,-0.645 -2.023,-0.968 -3.305,-0.968 -0.943,0 -1.806,0.204 -2.586,0.61 -0.779,0.408 -1.427,0.962 -1.947,1.663 l -0.221,-1.974 H -6.416 V 7.039 l 2.17,0.13 V 2.454 c 0,-1.16 -0.018,-2.156 -0.053,-2.987 0.502,0.719 1.154,1.288 1.955,1.708 0.801,0.42 1.657,0.63 2.565,0.63"
             style="fill:#808285;fill-opacity:1;fill-rule:nonzero;stroke:none"
             id="path138" /></g><g
           id="g140"
           transform="translate(594.8887,240.8281)"><path
             d="m 0,0 c 0,-1.688 0.375,-3.041 1.123,-4.059 0.75,-1.017 1.842,-1.526 3.279,-1.526 1.42,0 2.493,0.507 3.215,1.52 0.723,1.013 1.086,2.377 1.086,4.091 0,1.741 -0.357,3.111 -1.072,4.111 -0.715,1 -1.803,1.5 -3.268,1.5 C 2.943,5.637 1.861,5.126 1.117,4.104 0.373,3.083 0,1.715 0,0 m 10.949,0.039 c 0,-2.208 -0.59,-3.998 -1.765,-5.371 -1.178,-1.372 -2.807,-2.059 -4.885,-2.059 -2,0 -3.592,0.694 -4.774,2.079 -1.181,1.385 -1.771,3.165 -1.771,5.338 0,2.216 0.592,4.009 1.779,5.377 1.186,1.368 2.813,2.052 4.883,2.052 2.035,0 3.633,-0.686 4.793,-2.059 1.16,-1.372 1.74,-3.158 1.74,-5.357"
             style="fill:#808285;fill-opacity:1;fill-rule:nonzero;stroke:none"
             id="path142" /></g><g
           id="g144"
           transform="translate(610.4863,240.8281)"><path
             d="m 0,0 c 0,-1.688 0.375,-3.041 1.125,-4.059 0.748,-1.017 1.842,-1.526 3.279,-1.526 1.42,0 2.492,0.507 3.215,1.52 0.723,1.013 1.084,2.377 1.084,4.091 0,1.741 -0.357,3.111 -1.072,4.111 -0.713,1 -1.803,1.5 -3.266,1.5 C 2.945,5.637 1.863,5.126 1.117,4.104 0.373,3.083 0,1.715 0,0 m 10.949,0.039 c 0,-2.208 -0.588,-3.998 -1.765,-5.371 -1.178,-1.372 -2.805,-2.059 -4.883,-2.059 -2,0 -3.592,0.694 -4.774,2.079 -1.181,1.385 -1.773,3.165 -1.773,5.338 0,2.216 0.594,4.009 1.779,5.377 1.186,1.368 2.815,2.052 4.883,2.052 2.035,0 3.633,-0.686 4.793,-2.059 1.16,-1.372 1.74,-3.158 1.74,-5.357"
             style="fill:#808285;fill-opacity:1;fill-rule:nonzero;stroke:none"
             id="path146" /></g><g
           id="g148"
           transform="translate(624.5273,233.7363)"><path
             d="m 0,0 v 19.781 l 2.156,0.13 V 9.56 7.741 c 0.053,0.052 0.129,0.139 0.235,0.26 0.103,0.121 0.185,0.212 0.246,0.272 0.754,0.824 2.701,2.815 5.843,5.975 h 2.754 L 5.312,8.248 11.65,0 H 8.949 L 3.74,7.014 2.156,5.65 V 0 Z"
             style="fill:#808285;fill-opacity:1;fill-rule:nonzero;stroke:none"
             id="path150" /></g><g
           id="g152"
           transform="translate(642.2695,233.4375)"><path
             d="M 0,0 C -0.969,0 -1.863,0.104 -2.682,0.312 -3.5,0.52 -4.164,0.788 -4.676,1.117 l 0.274,1.831 c 1.445,-0.77 2.865,-1.155 4.259,-1.155 2.114,0 3.2,0.744 3.26,2.233 0,0.632 -0.224,1.13 -0.676,1.495 -0.449,0.363 -1.332,0.77 -2.648,1.22 l -1.078,0.377 c -1.246,0.415 -2.137,0.931 -2.67,1.545 -0.531,0.615 -0.803,1.382 -0.811,2.3 0,1.116 0.448,2.043 1.344,2.779 0.897,0.736 2.123,1.104 3.682,1.104 1.611,0 3.078,-0.312 4.404,-0.935 L 4.027,12.248 c -1.341,0.555 -2.597,0.831 -3.767,0.831 -0.908,0 -1.621,-0.18 -2.137,-0.539 -0.514,-0.359 -0.771,-0.863 -0.771,-1.513 0,-0.553 0.185,-0.978 0.558,-1.272 C -1.719,9.46 -0.973,9.122 0.143,8.741 0.43,8.638 0.789,8.517 1.221,8.378 2.658,7.91 3.676,7.358 4.273,6.722 4.871,6.085 5.17,5.226 5.17,4.144 5.152,2.827 4.68,1.808 3.754,1.085 2.828,0.361 1.576,0 0,0"
             style="fill:#808285;fill-opacity:1;fill-rule:nonzero;stroke:none"
             id="path154" /></g><g
           id="g156"
           transform="translate(177.6997,314.396)"><path
             d="M 0,0 0.53,0.483 12.758,-3.43 22.676,5.581 15.41,39.038 35.347,17.091 35.458,17.19 23.313,72.84 Z"
             style="fill:#1b75bc;fill-opacity:1;fill-rule:nonzero;stroke:none"
             id="path158" /></g><g
           id="g160"
           transform="translate(213.0464,331.4868)"><path
             d="M 0,0 -12.67,-11.51 -9.827,-24.605 19.528,-34.001 3.6,-37.459 46.439,-51.121 Z"
             style="fill:#ec008c;fill-opacity:1;fill-rule:nonzero;stroke:none"
             id="path162" /></g><g
           id="g164"
           transform="translate(203.2192,306.8813)"><path
             d="M 0,0 -12.762,4.085 -32.298,-13.661 -25.52,7.515 -67.109,-30.345 13.427,-12.854 2,-9.21 Z"
             style="fill:#00aeef;fill-opacity:1;fill-rule:nonzero;stroke:none"
             id="path166" /></g><g
           id="g168"
           transform="translate(200.376,319.9766)"><path
             d="M 0,0 12.67,11.51 -7.266,33.457 Z"
             style="fill:#2e3092;fill-opacity:1;fill-rule:nonzero;stroke:none"
             id="path170" /></g><g
           id="g172"
           transform="translate(177.6997,314.396)"><path
             d="M 0,0 -6.778,-21.175 12.758,-3.43 0.53,0.483 Z"
             style="fill:#2e3092;fill-opacity:1;fill-rule:nonzero;stroke:none"
             id="path174" /></g><g
           id="g176"
           transform="translate(203.2192,306.8813)"><path
             d="m 0,0 2,-9.21 11.427,-3.644 15.928,3.458 z"
             style="fill:#2e3092;fill-opacity:1;fill-rule:nonzero;stroke:none"
             id="path178" /></g></g></g></g></svg>
