<svg version="1.1" xmlns="http://www.w3.org/2000/svg" width="900" height="700"><defs><clipPath id="CzfhfhLDqwEX"><path fill="none" stroke="none" d="M 29.5 5.5 L 499.5 5.5 L 499.5 671.5 L 29.5 671.5 L 29.5 5.5 Z"/></clipPath><clipPath id="DKqUvfqzasOD"><path fill="none" stroke="none" d="M 29.5 5.5 L 499.5 5.5 L 499.5 671.5 L 29.5 671.5 L 29.5 5.5 Z"/></clipPath><clipPath id="RepQFJcrcswK"><path fill="none" stroke="none" d="M 29.5 5.5 L 499.5 5.5 L 499.5 671.5 L 29.5 671.5 L 29.5 5.5 Z"/></clipPath></defs><path fill="rgb(255,255,255)" stroke="none" paint-order="stroke" d="M 0.5 0.5 L 900.5 0.5 L 900.5 700.5 L 0.5 700.5 L 0.5 0.5 Z" fill-opacity="1"/><rect fill="#FFFFFF" stroke="none" x="29" y="5" width="470" height="666" transform="matrix(1, 0, 0, 1, 0.5, 0.5)"/><path fill="rgb(255,255,255)" stroke="none" paint-order="stroke" d="M 29.5 5.5 L 499.5 5.5 L 499.5 671.5 L 29.5 671.5 L 29.5 5.5 Z" fill-opacity="1"/><path fill="none" stroke="rgb(229,229,229)" paint-order="fill" d="M 29.5 5.5 L 499.5 5.5 L 499.5 671.5 L 29.5 671.5 L 29.5 5.5 Z" stroke-opacity="1" stroke-linejoin="bevel" stroke-miterlimit="10"/><path fill="none" stroke="rgb(229,229,229)" paint-order="fill" d="M 92.5 671.5 L 92.5 5.5 M 202.5 671.5 L 202.5 5.5 M 312.5 671.5 L 312.5 5.5 M 422.5 671.5 L 422.5 5.5" stroke-opacity="1" stroke-linejoin="bevel" stroke-miterlimit="10" clip-path="url(#CzfhfhLDqwEX)"/><path fill="none" stroke="rgb(229,229,229)" paint-order="fill" d="M 29.5 670.5 L 499.5 670.5 M 29.5 546.5 L 499.5 546.5 M 29.5 422.5 L 499.5 422.5 M 29.5 298.5 L 499.5 298.5 M 29.5 174.5 L 499.5 174.5 M 29.5 50.5 L 499.5 50.5" stroke-opacity="1" stroke-linejoin="bevel" stroke-miterlimit="10" clip-path="url(#DKqUvfqzasOD)"/><path fill="rgb(31,119,180)" stroke="rgb(31,119,180)" paint-order="fill" d="M 54.8636360168457 137.1885986328125 A 4 4 0 0 1 46.8636360168457 137.1885986328125 A 4 4 0 0 1 54.8636360168457 137.1885986328125" fill-opacity="1" clip-path="url(#RepQFJcrcswK)" stroke-opacity="1" stroke-linejoin="bevel" stroke-miterlimit="10"/><path fill="rgb(255,127,14)" stroke="rgb(255,127,14)" paint-order="fill" d="M 178.50924682617188 136.78091430664062 A 4 4 0 0 1 170.50924682617188 136.78091430664062 A 4 4 0 0 1 178.50924682617188 136.78091430664062" fill-opacity="1" clip-path="url(#RepQFJcrcswK)" stroke-opacity="1" stroke-linejoin="bevel" stroke-miterlimit="10"/><path fill="rgb(44,160,44)" stroke="rgb(44,160,44)" paint-order="fill" d="M 62.02780532836914 193.57289123535156 A 4 4 0 0 1 54.02780532836914 193.57289123535156 A 4 4 0 0 1 62.02780532836914 193.57289123535156" fill-opacity="1" clip-path="url(#RepQFJcrcswK)" stroke-opacity="1" stroke-linejoin="bevel" stroke-miterlimit="10"/><path fill="rgb(214,39,40)" stroke="rgb(214,39,40)" paint-order="fill" d="M 112.80795288085938 103.63126373291016 A 4 4 0 0 1 104.80795288085938 103.63126373291016 A 4 4 0 0 1 112.80795288085938 103.63126373291016" fill-opacity="1" clip-path="url(#RepQFJcrcswK)" stroke-opacity="1" stroke-linejoin="bevel" stroke-miterlimit="10"/><path fill="rgb(148,103,189)" stroke="rgb(148,103,189)" paint-order="fill" d="M 267.01165771484375 165.71160888671875 A 4 4 0 0 1 259.01165771484375 165.71160888671875 A 4 4 0 0 1 267.01165771484375 165.71160888671875" fill-opacity="1" clip-path="url(#RepQFJcrcswK)" stroke-opacity="1" stroke-linejoin="bevel" stroke-miterlimit="10"/><path fill="rgb(31,119,180)" stroke="rgb(31,119,180)" paint-order="fill" d="M 185.83847045898438 236.46946716308594 A 4 4 0 0 1 177.83847045898438 236.46946716308594 A 4 4 0 0 1 185.83847045898438 236.46946716308594" fill-opacity="1" clip-path="url(#RepQFJcrcswK)" stroke-opacity="1" stroke-linejoin="bevel" stroke-miterlimit="10"/><path fill="rgb(140,86,75)" stroke="rgb(140,86,75)" paint-order="fill" d="M 242.95236206054688 238.51776123046875 A 4 4 0 0 1 234.95236206054688 238.51776123046875 A 4 4 0 0 1 242.95236206054688 238.51776123046875" fill-opacity="1" clip-path="url(#RepQFJcrcswK)" stroke-opacity="1" stroke-linejoin="bevel" stroke-miterlimit="10"/><path fill="rgb(214,39,40)" stroke="rgb(214,39,40)" paint-order="fill" d="M 121.74801635742188 177.07705688476562 A 4 4 0 0 1 113.74801635742188 177.07705688476562 A 4 4 0 0 1 121.74801635742188 177.07705688476562" fill-opacity="1" clip-path="url(#RepQFJcrcswK)" stroke-opacity="1" stroke-linejoin="bevel" stroke-miterlimit="10"/><path fill="rgb(140,86,75)" stroke="rgb(140,86,75)" paint-order="fill" d="M 362.01116943359375 592.7124633789062 A 4 4 0 0 1 354.01116943359375 592.7124633789062 A 4 4 0 0 1 362.01116943359375 592.7124633789062" fill-opacity="1" clip-path="url(#RepQFJcrcswK)" stroke-opacity="1" stroke-linejoin="bevel" stroke-miterlimit="10"/><path fill="rgb(227,119,194)" stroke="rgb(227,119,194)" paint-order="fill" d="M 470.3832092285156 390.53533935546875 A 4 4 0 0 1 462.3832092285156 390.53533935546875 A 4 4 0 0 1 470.3832092285156 390.53533935546875" fill-opacity="1" clip-path="url(#RepQFJcrcswK)" stroke-opacity="1" stroke-linejoin="bevel" stroke-miterlimit="10"/><path fill="rgb(227,119,194)" stroke="rgb(227,119,194)" paint-order="fill" d="M 482.1363525390625 348.1790466308594 A 4 4 0 0 1 474.1363525390625 348.1790466308594 A 4 4 0 0 1 482.1363525390625 348.1790466308594" fill-opacity="1" clip-path="url(#RepQFJcrcswK)" stroke-opacity="1" stroke-linejoin="bevel" stroke-miterlimit="10"/><path fill="rgb(227,119,194)" stroke="rgb(227,119,194)" paint-order="fill" d="M 433.74725341796875 432.0477600097656 A 4 4 0 0 1 425.74725341796875 432.0477600097656 A 4 4 0 0 1 433.74725341796875 432.0477600097656" fill-opacity="1" clip-path="url(#RepQFJcrcswK)" stroke-opacity="1" stroke-linejoin="bevel" stroke-miterlimit="10"/><path fill="rgb(140,86,75)" stroke="rgb(140,86,75)" paint-order="fill" d="M 395.0167236328125 556.8383178710938 A 4 4 0 0 1 387.0167236328125 556.8383178710938 A 4 4 0 0 1 395.0167236328125 556.8383178710938" fill-opacity="1" clip-path="url(#RepQFJcrcswK)" stroke-opacity="1" stroke-linejoin="bevel" stroke-miterlimit="10"/><path fill="rgb(140,86,75)" stroke="rgb(140,86,75)" paint-order="fill" d="M 337.71417236328125 641.227294921875 A 4 4 0 0 1 329.71417236328125 641.227294921875 A 4 4 0 0 1 337.71417236328125 641.227294921875" fill-opacity="1" clip-path="url(#RepQFJcrcswK)" stroke-opacity="1" stroke-linejoin="bevel" stroke-miterlimit="10"/><path fill="rgb(127,127,127)" stroke="rgb(127,127,127)" paint-order="fill" d="M 233.50454711914062 111.47391510009766 A 4 4 0 0 1 225.50454711914062 111.47391510009766 A 4 4 0 0 1 233.50454711914062 111.47391510009766" fill-opacity="1" clip-path="url(#RepQFJcrcswK)" stroke-opacity="1" stroke-linejoin="bevel" stroke-miterlimit="10"/><path fill="rgb(188,189,34)" stroke="rgb(188,189,34)" paint-order="fill" d="M 211.6752166748047 56.18537902832031 A 4 4 0 0 1 203.6752166748047 56.18537902832031 A 4 4 0 0 1 211.6752166748047 56.18537902832031" fill-opacity="1" clip-path="url(#RepQFJcrcswK)" stroke-opacity="1" stroke-linejoin="bevel" stroke-miterlimit="10"/><path fill="rgb(44,160,44)" stroke="rgb(44,160,44)" paint-order="fill" d="M 257.3812713623047 35.772727966308594 A 4 4 0 0 1 249.3812713623047 35.772727966308594 A 4 4 0 0 1 257.3812713623047 35.772727966308594" fill-opacity="1" clip-path="url(#RepQFJcrcswK)" stroke-opacity="1" stroke-linejoin="bevel" stroke-miterlimit="10"/><path fill="rgb(44,160,44)" stroke="rgb(44,160,44)" paint-order="fill" d="M 326.6376953125 222.01022338867188 A 4 4 0 0 1 318.6376953125 222.01022338867188 A 4 4 0 0 1 326.6376953125 222.01022338867188" fill-opacity="1" clip-path="url(#RepQFJcrcswK)" stroke-opacity="1" stroke-linejoin="bevel" stroke-miterlimit="10"/><path fill="rgb(44,160,44)" stroke="rgb(44,160,44)" paint-order="fill" d="M 405.7290954589844 225.2204132080078 A 4 4 0 0 1 397.7290954589844 225.2204132080078 A 4 4 0 0 1 405.7290954589844 225.2204132080078" fill-opacity="1" clip-path="url(#RepQFJcrcswK)" stroke-opacity="1" stroke-linejoin="bevel" stroke-miterlimit="10"/><path fill="rgb(148,103,189)" stroke="rgb(148,103,189)" paint-order="fill" d="M 370.0855712890625 201.90882873535156 A 4 4 0 0 1 362.0855712890625 201.90882873535156 A 4 4 0 0 1 370.0855712890625 201.90882873535156" fill-opacity="1" clip-path="url(#RepQFJcrcswK)" stroke-opacity="1" stroke-linejoin="bevel" stroke-miterlimit="10"/><path fill="none" stroke="rgb(0,0,0)" paint-order="fill" d="M 29.5 671.5 L 499.5 671.5" stroke-opacity="1" stroke-linejoin="bevel" stroke-miterlimit="10"/><text fill="rgb(68,68,68)" stroke="none" font-family="helvetica" font-size="0pt" font-style="normal" font-weight="normal" text-decoration="normal" x="92.02273559570312" y="682" text-anchor="start" dominant-baseline="alphabetic" transform="matrix(1, 0, 0, 1, 0.5, 0.5)" fill-opacity="1">12</text><text fill="none" stroke="rgb(0,0,0)" font-family="helvetica" font-size="0pt" font-style="normal" font-weight="normal" text-decoration="normal" x="92.02273559570312" y="682" text-anchor="start" dominant-baseline="alphabetic" transform="matrix(1, 0, 0, 1, 0.5, 0.5)" stroke-opacity="0" stroke-linejoin="bevel" stroke-miterlimit="10">12</text><text fill="rgb(68,68,68)" stroke="none" font-family="helvetica" font-size="0pt" font-style="normal" font-weight="normal" text-decoration="normal" x="201.98167419433594" y="682" text-anchor="start" dominant-baseline="alphabetic" transform="matrix(1, 0, 0, 1, 0.5, 0.5)" fill-opacity="1">13</text><text fill="none" stroke="rgb(0,0,0)" font-family="helvetica" font-size="0pt" font-style="normal" font-weight="normal" text-decoration="normal" x="201.98167419433594" y="682" text-anchor="start" dominant-baseline="alphabetic" transform="matrix(1, 0, 0, 1, 0.5, 0.5)" stroke-opacity="0" stroke-linejoin="bevel" stroke-miterlimit="10">13</text><text fill="rgb(68,68,68)" stroke="none" font-family="helvetica" font-size="0pt" font-style="normal" font-weight="normal" text-decoration="normal" x="311.94061279296875" y="682" text-anchor="start" dominant-baseline="alphabetic" transform="matrix(1, 0, 0, 1, 0.5, 0.5)" fill-opacity="1">14</text><text fill="none" stroke="rgb(0,0,0)" font-family="helvetica" font-size="0pt" font-style="normal" font-weight="normal" text-decoration="normal" x="311.94061279296875" y="682" text-anchor="start" dominant-baseline="alphabetic" transform="matrix(1, 0, 0, 1, 0.5, 0.5)" stroke-opacity="0" stroke-linejoin="bevel" stroke-miterlimit="10">14</text><text fill="rgb(68,68,68)" stroke="none" font-family="helvetica" font-size="0pt" font-style="normal" font-weight="normal" text-decoration="normal" x="421.8995666503906" y="682" text-anchor="start" dominant-baseline="alphabetic" transform="matrix(1, 0, 0, 1, 0.5, 0.5)" fill-opacity="1">15</text><text fill="none" stroke="rgb(0,0,0)" font-family="helvetica" font-size="0pt" font-style="normal" font-weight="normal" text-decoration="normal" x="421.8995666503906" y="682" text-anchor="start" dominant-baseline="alphabetic" transform="matrix(1, 0, 0, 1, 0.5, 0.5)" stroke-opacity="0" stroke-linejoin="bevel" stroke-miterlimit="10">15</text><text fill="rgb(68,68,68)" stroke="none" font-family="helvetica" font-size="13px" font-style="italic" font-weight="normal" text-decoration="normal" x="237.990478515625" y="694" text-anchor="start" dominant-baseline="alphabetic" transform="matrix(1, 0, 0, 1, 0.5, 0.5)" fill-opacity="1">UMAP_1</text><text fill="none" stroke="rgb(0,0,0)" font-family="helvetica" font-size="13px" font-style="italic" font-weight="normal" text-decoration="normal" x="237.990478515625" y="694" text-anchor="start" dominant-baseline="alphabetic" transform="matrix(1, 0, 0, 1, 0.5, 0.5)" stroke-opacity="0" stroke-linejoin="bevel" stroke-miterlimit="10">UMAP_1</text><path fill="none" stroke="rgb(0,0,0)" paint-order="fill" d="M 29.5 671.5 L 29.5 5.5" stroke-opacity="1" stroke-linejoin="bevel" stroke-miterlimit="10"/><text fill="rgb(68,68,68)" stroke="none" font-family="helvetica" font-size="0pt" font-style="normal" font-weight="normal" text-decoration="normal" x="18" y="669.7447509765625" text-anchor="start" dominant-baseline="alphabetic" transform="matrix(1, 0, 0, 1, 0.5, 0.5)" fill-opacity="1">−4</text><text fill="none" stroke="rgb(0,0,0)" font-family="helvetica" font-size="0pt" font-style="normal" font-weight="normal" text-decoration="normal" x="18" y="669.7447509765625" text-anchor="start" dominant-baseline="alphabetic" transform="matrix(1, 0, 0, 1, 0.5, 0.5)" stroke-opacity="0" stroke-linejoin="bevel" stroke-miterlimit="10">−4</text><text fill="rgb(68,68,68)" stroke="none" font-family="helvetica" font-size="0pt" font-style="normal" font-weight="normal" text-decoration="normal" x="18" y="545.7864379882812" text-anchor="start" dominant-baseline="alphabetic" transform="matrix(1, 0, 0, 1, 0.5, 0.5)" fill-opacity="1">−3</text><text fill="none" stroke="rgb(0,0,0)" font-family="helvetica" font-size="0pt" font-style="normal" font-weight="normal" text-decoration="normal" x="18" y="545.7864379882812" text-anchor="start" dominant-baseline="alphabetic" transform="matrix(1, 0, 0, 1, 0.5, 0.5)" stroke-opacity="0" stroke-linejoin="bevel" stroke-miterlimit="10">−3</text><text fill="rgb(68,68,68)" stroke="none" font-family="helvetica" font-size="0pt" font-style="normal" font-weight="normal" text-decoration="normal" x="18" y="421.8281555175781" text-anchor="start" dominant-baseline="alphabetic" transform="matrix(1, 0, 0, 1, 0.5, 0.5)" fill-opacity="1">−2</text><text fill="none" stroke="rgb(0,0,0)" font-family="helvetica" font-size="0pt" font-style="normal" font-weight="normal" text-decoration="normal" x="18" y="421.8281555175781" text-anchor="start" dominant-baseline="alphabetic" transform="matrix(1, 0, 0, 1, 0.5, 0.5)" stroke-opacity="0" stroke-linejoin="bevel" stroke-miterlimit="10">−2</text><text fill="rgb(68,68,68)" stroke="none" font-family="helvetica" font-size="0pt" font-style="normal" font-weight="normal" text-decoration="normal" x="18" y="297.869873046875" text-anchor="start" dominant-baseline="alphabetic" transform="matrix(1, 0, 0, 1, 0.5, 0.5)" fill-opacity="1">−1</text><text fill="none" stroke="rgb(0,0,0)" font-family="helvetica" font-size="0pt" font-style="normal" font-weight="normal" text-decoration="normal" x="18" y="297.869873046875" text-anchor="start" dominant-baseline="alphabetic" transform="matrix(1, 0, 0, 1, 0.5, 0.5)" stroke-opacity="0" stroke-linejoin="bevel" stroke-miterlimit="10">−1</text><text fill="rgb(68,68,68)" stroke="none" font-family="helvetica" font-size="0pt" font-style="normal" font-weight="normal" text-decoration="normal" x="18" y="173.91159057617188" text-anchor="start" dominant-baseline="alphabetic" transform="matrix(1, 0, 0, 1, 0.5, 0.5)" fill-opacity="1">0</text><text fill="none" stroke="rgb(0,0,0)" font-family="helvetica" font-size="0pt" font-style="normal" font-weight="normal" text-decoration="normal" x="18" y="173.91159057617188" text-anchor="start" dominant-baseline="alphabetic" transform="matrix(1, 0, 0, 1, 0.5, 0.5)" stroke-opacity="0" stroke-linejoin="bevel" stroke-miterlimit="10">0</text><text fill="rgb(68,68,68)" stroke="none" font-family="helvetica" font-size="0pt" font-style="normal" font-weight="normal" text-decoration="normal" x="18" y="49.95330047607422" text-anchor="start" dominant-baseline="alphabetic" transform="matrix(1, 0, 0, 1, 0.5, 0.5)" fill-opacity="1">1</text><text fill="none" stroke="rgb(0,0,0)" font-family="helvetica" font-size="0pt" font-style="normal" font-weight="normal" text-decoration="normal" x="18" y="49.95330047607422" text-anchor="start" dominant-baseline="alphabetic" transform="matrix(1, 0, 0, 1, 0.5, 0.5)" stroke-opacity="0" stroke-linejoin="bevel" stroke-miterlimit="10">1</text><text fill="rgb(68,68,68)" stroke="none" font-family="helvetica" font-size="13px" font-style="italic" font-weight="normal" text-decoration="normal" x="-8.009521484375" y="335" text-anchor="start" dominant-baseline="alphabetic" transform="matrix(6.123233995736766e-17, -1, 1, 6.123233995736766e-17, -319.5, 356.5)" fill-opacity="1">UMAP_2</text><text fill="none" stroke="rgb(0,0,0)" font-family="helvetica" font-size="13px" font-style="italic" font-weight="normal" text-decoration="normal" x="-8.009521484375" y="335" text-anchor="start" dominant-baseline="alphabetic" transform="matrix(6.123233995736766e-17, -1, 1, 6.123233995736766e-17, -319.5, 356.5)" stroke-opacity="0" stroke-linejoin="bevel" stroke-miterlimit="10">UMAP_2</text><path fill="rgb(255,255,255)" stroke="rgb(229,229,229)" paint-order="fill" d="M 509.5 15.5 L 860.5 15.5 L 860.5 239.5 L 509.5 239.5 L 509.5 15.5 Z" fill-opacity="0.9490196078431372" stroke-opacity="0.5019607843137255" stroke-linejoin="bevel" stroke-miterlimit="10"/><path fill="rgb(31,119,180)" stroke="rgb(31,119,180)" paint-order="fill" d="M 533.5 35.5 A 4 4 0 0 1 525.5 35.5 A 4 4 0 0 1 533.5 35.5" fill-opacity="1" stroke-opacity="1" stroke-linejoin="bevel" stroke-miterlimit="10"/><text fill="rgb(68,68,68)" stroke="none" font-family="helvetica" font-size="13px" font-style="normal" font-weight="normal" text-decoration="normal" x="0" y="4.5" text-anchor="start" dominant-baseline="alphabetic" transform="matrix(1, 0, 0, 1, 544.5, 35.5)" fill-opacity="1">ARCHS4_TFs_Coexp</text><text fill="none" stroke="rgb(0,0,0)" font-family="helvetica" font-size="13px" font-style="normal" font-weight="normal" text-decoration="normal" x="0" y="4.5" text-anchor="start" dominant-baseline="alphabetic" transform="matrix(1, 0, 0, 1, 544.5, 35.5)" stroke-opacity="0" stroke-linejoin="bevel" stroke-miterlimit="10">ARCHS4_TFs_Coexp</text><path fill="rgb(255,127,14)" stroke="rgb(255,127,14)" paint-order="fill" d="M 533.5 58.5 A 4 4 0 0 1 525.5 58.5 A 4 4 0 0 1 533.5 58.5" fill-opacity="1" stroke-opacity="1" stroke-linejoin="bevel" stroke-miterlimit="10"/><text fill="rgb(68,68,68)" stroke="none" font-family="helvetica" font-size="13px" font-style="normal" font-weight="normal" text-decoration="normal" x="0" y="4.5" text-anchor="start" dominant-baseline="alphabetic" transform="matrix(1, 0, 0, 1, 544.5, 58.5)" fill-opacity="1">ENCODE_TF_ChIP-seq_2014</text><text fill="none" stroke="rgb(0,0,0)" font-family="helvetica" font-size="13px" font-style="normal" font-weight="normal" text-decoration="normal" x="0" y="4.5" text-anchor="start" dominant-baseline="alphabetic" transform="matrix(1, 0, 0, 1, 544.5, 58.5)" stroke-opacity="0" stroke-linejoin="bevel" stroke-miterlimit="10">ENCODE_TF_ChIP-seq_2014</text><path fill="rgb(188,189,34)" stroke="rgb(188,189,34)" paint-order="fill" d="M 533.5 81.5 A 4 4 0 0 1 525.5 81.5 A 4 4 0 0 1 533.5 81.5" fill-opacity="1" stroke-opacity="1" stroke-linejoin="bevel" stroke-miterlimit="10"/><text fill="rgb(68,68,68)" stroke="none" font-family="helvetica" font-size="13px" font-style="normal" font-weight="normal" text-decoration="normal" x="0" y="4.5" text-anchor="start" dominant-baseline="alphabetic" transform="matrix(1, 0, 0, 1, 544.5, 81.5)" fill-opacity="1">ENCODE_TF_ChIP-seq_2015</text><text fill="none" stroke="rgb(0,0,0)" font-family="helvetica" font-size="13px" font-style="normal" font-weight="normal" text-decoration="normal" x="0" y="4.5" text-anchor="start" dominant-baseline="alphabetic" transform="matrix(1, 0, 0, 1, 544.5, 81.5)" stroke-opacity="0" stroke-linejoin="bevel" stroke-miterlimit="10">ENCODE_TF_ChIP-seq_2015</text><path fill="rgb(227,119,194)" stroke="rgb(227,119,194)" paint-order="fill" d="M 533.5 104.5 A 4 4 0 0 1 525.5 104.5 A 4 4 0 0 1 533.5 104.5" fill-opacity="1" stroke-opacity="1" stroke-linejoin="bevel" stroke-miterlimit="10"/><text fill="rgb(68,68,68)" stroke="none" font-family="helvetica" font-size="13px" font-style="normal" font-weight="normal" text-decoration="normal" x="0" y="4.5" text-anchor="start" dominant-baseline="alphabetic" transform="matrix(1, 0, 0, 1, 544.5, 104.5)" fill-opacity="1">Elsevier_Pathway_Collection</text><text fill="none" stroke="rgb(0,0,0)" font-family="helvetica" font-size="13px" font-style="normal" font-weight="normal" text-decoration="normal" x="0" y="4.5" text-anchor="start" dominant-baseline="alphabetic" transform="matrix(1, 0, 0, 1, 544.5, 104.5)" stroke-opacity="0" stroke-linejoin="bevel" stroke-miterlimit="10">Elsevier_Pathway_Collection</text><path fill="rgb(214,39,40)" stroke="rgb(214,39,40)" paint-order="fill" d="M 533.5 127.5 A 4 4 0 0 1 525.5 127.5 A 4 4 0 0 1 533.5 127.5" fill-opacity="1" stroke-opacity="1" stroke-linejoin="bevel" stroke-miterlimit="10"/><text fill="rgb(68,68,68)" stroke="none" font-family="helvetica" font-size="13px" font-style="normal" font-weight="normal" text-decoration="normal" x="0" y="4.5" text-anchor="start" dominant-baseline="alphabetic" transform="matrix(1, 0, 0, 1, 544.5, 127.5)" fill-opacity="1">Enrichr_Submissions_TF-Gene_Coocurrence</text><text fill="none" stroke="rgb(0,0,0)" font-family="helvetica" font-size="13px" font-style="normal" font-weight="normal" text-decoration="normal" x="0" y="4.5" text-anchor="start" dominant-baseline="alphabetic" transform="matrix(1, 0, 0, 1, 544.5, 127.5)" stroke-opacity="0" stroke-linejoin="bevel" stroke-miterlimit="10">Enrichr_Submissions_TF-Gene_Coocurrence</text><path fill="rgb(44,160,44)" stroke="rgb(44,160,44)" paint-order="fill" d="M 533.5 150.5 A 4 4 0 0 1 525.5 150.5 A 4 4 0 0 1 533.5 150.5" fill-opacity="1" stroke-opacity="1" stroke-linejoin="bevel" stroke-miterlimit="10"/><text fill="rgb(68,68,68)" stroke="none" font-family="helvetica" font-size="13px" font-style="normal" font-weight="normal" text-decoration="normal" x="0" y="4.5" text-anchor="start" dominant-baseline="alphabetic" transform="matrix(1, 0, 0, 1, 544.5, 150.5)" fill-opacity="1">LINCS_L1000_CRISPR_KO_Consensus_Sigs</text><text fill="none" stroke="rgb(0,0,0)" font-family="helvetica" font-size="13px" font-style="normal" font-weight="normal" text-decoration="normal" x="0" y="4.5" text-anchor="start" dominant-baseline="alphabetic" transform="matrix(1, 0, 0, 1, 544.5, 150.5)" stroke-opacity="0" stroke-linejoin="bevel" stroke-miterlimit="10">LINCS_L1000_CRISPR_KO_Consensus_Sigs</text><path fill="rgb(148,103,189)" stroke="rgb(148,103,189)" paint-order="fill" d="M 533.5 173.5 A 4 4 0 0 1 525.5 173.5 A 4 4 0 0 1 533.5 173.5" fill-opacity="1" stroke-opacity="1" stroke-linejoin="bevel" stroke-miterlimit="10"/><text fill="rgb(68,68,68)" stroke="none" font-family="helvetica" font-size="13px" font-style="normal" font-weight="normal" text-decoration="normal" x="0" y="4.5" text-anchor="start" dominant-baseline="alphabetic" transform="matrix(1, 0, 0, 1, 544.5, 173.5)" fill-opacity="1">RNAseq_Automatic_GEO_Signatures_Mouse_Down</text><text fill="none" stroke="rgb(0,0,0)" font-family="helvetica" font-size="13px" font-style="normal" font-weight="normal" text-decoration="normal" x="0" y="4.5" text-anchor="start" dominant-baseline="alphabetic" transform="matrix(1, 0, 0, 1, 544.5, 173.5)" stroke-opacity="0" stroke-linejoin="bevel" stroke-miterlimit="10">RNAseq_Automatic_GEO_Signatures_Mouse_Down</text><path fill="rgb(127,127,127)" stroke="rgb(127,127,127)" paint-order="fill" d="M 533.5 196.5 A 4 4 0 0 1 525.5 196.5 A 4 4 0 0 1 533.5 196.5" fill-opacity="1" stroke-opacity="1" stroke-linejoin="bevel" stroke-miterlimit="10"/><text fill="rgb(68,68,68)" stroke="none" font-family="helvetica" font-size="13px" font-style="normal" font-weight="normal" text-decoration="normal" x="0" y="4.5" text-anchor="start" dominant-baseline="alphabetic" transform="matrix(1, 0, 0, 1, 544.5, 196.5)" fill-opacity="1">TRANSFAC_and_JASPAR_PWMs</text><text fill="none" stroke="rgb(0,0,0)" font-family="helvetica" font-size="13px" font-style="normal" font-weight="normal" text-decoration="normal" x="0" y="4.5" text-anchor="start" dominant-baseline="alphabetic" transform="matrix(1, 0, 0, 1, 544.5, 196.5)" stroke-opacity="0" stroke-linejoin="bevel" stroke-miterlimit="10">TRANSFAC_and_JASPAR_PWMs</text><path fill="rgb(140,86,75)" stroke="rgb(140,86,75)" paint-order="fill" d="M 533.5 219.5 A 4 4 0 0 1 525.5 219.5 A 4 4 0 0 1 533.5 219.5" fill-opacity="1" stroke-opacity="1" stroke-linejoin="bevel" stroke-miterlimit="10"/><text fill="rgb(68,68,68)" stroke="none" font-family="helvetica" font-size="13px" font-style="normal" font-weight="normal" text-decoration="normal" x="0" y="4.5" text-anchor="start" dominant-baseline="alphabetic" transform="matrix(1, 0, 0, 1, 544.5, 219.5)" fill-opacity="1">TRRUST_Transcription_Factors_2019</text><text fill="none" stroke="rgb(0,0,0)" font-family="helvetica" font-size="13px" font-style="normal" font-weight="normal" text-decoration="normal" x="0" y="4.5" text-anchor="start" dominant-baseline="alphabetic" transform="matrix(1, 0, 0, 1, 544.5, 219.5)" stroke-opacity="0" stroke-linejoin="bevel" stroke-miterlimit="10">TRRUST_Transcription_Factors_2019</text><path fill="rgb(255,255,255)" stroke="rgb(229,229,229)" paint-order="fill" d="M 509.5 15.5 L 860.5 15.5 L 860.5 239.5 L 509.5 239.5 L 509.5 15.5 Z" fill-opacity="0.9490196078431372" stroke-opacity="0.5019607843137255" stroke-linejoin="bevel" stroke-miterlimit="10"/><path fill="rgb(31,119,180)" stroke="rgb(31,119,180)" paint-order="fill" d="M 533.5 35.5 A 4 4 0 0 1 525.5 35.5 A 4 4 0 0 1 533.5 35.5" fill-opacity="1" stroke-opacity="1" stroke-linejoin="bevel" stroke-miterlimit="10"/><text fill="rgb(68,68,68)" stroke="none" font-family="helvetica" font-size="13px" font-style="normal" font-weight="normal" text-decoration="normal" x="0" y="4.5" text-anchor="start" dominant-baseline="alphabetic" transform="matrix(1, 0, 0, 1, 544.5, 35.5)" fill-opacity="1">ARCHS4_TFs_Coexp</text><text fill="none" stroke="rgb(0,0,0)" font-family="helvetica" font-size="13px" font-style="normal" font-weight="normal" text-decoration="normal" x="0" y="4.5" text-anchor="start" dominant-baseline="alphabetic" transform="matrix(1, 0, 0, 1, 544.5, 35.5)" stroke-opacity="0" stroke-linejoin="bevel" stroke-miterlimit="10">ARCHS4_TFs_Coexp</text><path fill="rgb(255,127,14)" stroke="rgb(255,127,14)" paint-order="fill" d="M 533.5 58.5 A 4 4 0 0 1 525.5 58.5 A 4 4 0 0 1 533.5 58.5" fill-opacity="1" stroke-opacity="1" stroke-linejoin="bevel" stroke-miterlimit="10"/><text fill="rgb(68,68,68)" stroke="none" font-family="helvetica" font-size="13px" font-style="normal" font-weight="normal" text-decoration="normal" x="0" y="4.5" text-anchor="start" dominant-baseline="alphabetic" transform="matrix(1, 0, 0, 1, 544.5, 58.5)" fill-opacity="1">ENCODE_TF_ChIP-seq_2014</text><text fill="none" stroke="rgb(0,0,0)" font-family="helvetica" font-size="13px" font-style="normal" font-weight="normal" text-decoration="normal" x="0" y="4.5" text-anchor="start" dominant-baseline="alphabetic" transform="matrix(1, 0, 0, 1, 544.5, 58.5)" stroke-opacity="0" stroke-linejoin="bevel" stroke-miterlimit="10">ENCODE_TF_ChIP-seq_2014</text><path fill="rgb(188,189,34)" stroke="rgb(188,189,34)" paint-order="fill" d="M 533.5 81.5 A 4 4 0 0 1 525.5 81.5 A 4 4 0 0 1 533.5 81.5" fill-opacity="1" stroke-opacity="1" stroke-linejoin="bevel" stroke-miterlimit="10"/><text fill="rgb(68,68,68)" stroke="none" font-family="helvetica" font-size="13px" font-style="normal" font-weight="normal" text-decoration="normal" x="0" y="4.5" text-anchor="start" dominant-baseline="alphabetic" transform="matrix(1, 0, 0, 1, 544.5, 81.5)" fill-opacity="1">ENCODE_TF_ChIP-seq_2015</text><text fill="none" stroke="rgb(0,0,0)" font-family="helvetica" font-size="13px" font-style="normal" font-weight="normal" text-decoration="normal" x="0" y="4.5" text-anchor="start" dominant-baseline="alphabetic" transform="matrix(1, 0, 0, 1, 544.5, 81.5)" stroke-opacity="0" stroke-linejoin="bevel" stroke-miterlimit="10">ENCODE_TF_ChIP-seq_2015</text><path fill="rgb(227,119,194)" stroke="rgb(227,119,194)" paint-order="fill" d="M 533.5 104.5 A 4 4 0 0 1 525.5 104.5 A 4 4 0 0 1 533.5 104.5" fill-opacity="1" stroke-opacity="1" stroke-linejoin="bevel" stroke-miterlimit="10"/><text fill="rgb(68,68,68)" stroke="none" font-family="helvetica" font-size="13px" font-style="normal" font-weight="normal" text-decoration="normal" x="0" y="4.5" text-anchor="start" dominant-baseline="alphabetic" transform="matrix(1, 0, 0, 1, 544.5, 104.5)" fill-opacity="1">Elsevier_Pathway_Collection</text><text fill="none" stroke="rgb(0,0,0)" font-family="helvetica" font-size="13px" font-style="normal" font-weight="normal" text-decoration="normal" x="0" y="4.5" text-anchor="start" dominant-baseline="alphabetic" transform="matrix(1, 0, 0, 1, 544.5, 104.5)" stroke-opacity="0" stroke-linejoin="bevel" stroke-miterlimit="10">Elsevier_Pathway_Collection</text><path fill="rgb(214,39,40)" stroke="rgb(214,39,40)" paint-order="fill" d="M 533.5 127.5 A 4 4 0 0 1 525.5 127.5 A 4 4 0 0 1 533.5 127.5" fill-opacity="1" stroke-opacity="1" stroke-linejoin="bevel" stroke-miterlimit="10"/><text fill="rgb(68,68,68)" stroke="none" font-family="helvetica" font-size="13px" font-style="normal" font-weight="normal" text-decoration="normal" x="0" y="4.5" text-anchor="start" dominant-baseline="alphabetic" transform="matrix(1, 0, 0, 1, 544.5, 127.5)" fill-opacity="1">Enrichr_Submissions_TF-Gene_Coocurrence</text><text fill="none" stroke="rgb(0,0,0)" font-family="helvetica" font-size="13px" font-style="normal" font-weight="normal" text-decoration="normal" x="0" y="4.5" text-anchor="start" dominant-baseline="alphabetic" transform="matrix(1, 0, 0, 1, 544.5, 127.5)" stroke-opacity="0" stroke-linejoin="bevel" stroke-miterlimit="10">Enrichr_Submissions_TF-Gene_Coocurrence</text><path fill="rgb(44,160,44)" stroke="rgb(44,160,44)" paint-order="fill" d="M 533.5 150.5 A 4 4 0 0 1 525.5 150.5 A 4 4 0 0 1 533.5 150.5" fill-opacity="1" stroke-opacity="1" stroke-linejoin="bevel" stroke-miterlimit="10"/><text fill="rgb(68,68,68)" stroke="none" font-family="helvetica" font-size="13px" font-style="normal" font-weight="normal" text-decoration="normal" x="0" y="4.5" text-anchor="start" dominant-baseline="alphabetic" transform="matrix(1, 0, 0, 1, 544.5, 150.5)" fill-opacity="1">LINCS_L1000_CRISPR_KO_Consensus_Sigs</text><text fill="none" stroke="rgb(0,0,0)" font-family="helvetica" font-size="13px" font-style="normal" font-weight="normal" text-decoration="normal" x="0" y="4.5" text-anchor="start" dominant-baseline="alphabetic" transform="matrix(1, 0, 0, 1, 544.5, 150.5)" stroke-opacity="0" stroke-linejoin="bevel" stroke-miterlimit="10">LINCS_L1000_CRISPR_KO_Consensus_Sigs</text><path fill="rgb(148,103,189)" stroke="rgb(148,103,189)" paint-order="fill" d="M 533.5 173.5 A 4 4 0 0 1 525.5 173.5 A 4 4 0 0 1 533.5 173.5" fill-opacity="1" stroke-opacity="1" stroke-linejoin="bevel" stroke-miterlimit="10"/><text fill="rgb(68,68,68)" stroke="none" font-family="helvetica" font-size="13px" font-style="normal" font-weight="normal" text-decoration="normal" x="0" y="4.5" text-anchor="start" dominant-baseline="alphabetic" transform="matrix(1, 0, 0, 1, 544.5, 173.5)" fill-opacity="1">RNAseq_Automatic_GEO_Signatures_Mouse_Down</text><text fill="none" stroke="rgb(0,0,0)" font-family="helvetica" font-size="13px" font-style="normal" font-weight="normal" text-decoration="normal" x="0" y="4.5" text-anchor="start" dominant-baseline="alphabetic" transform="matrix(1, 0, 0, 1, 544.5, 173.5)" stroke-opacity="0" stroke-linejoin="bevel" stroke-miterlimit="10">RNAseq_Automatic_GEO_Signatures_Mouse_Down</text><path fill="rgb(127,127,127)" stroke="rgb(127,127,127)" paint-order="fill" d="M 533.5 196.5 A 4 4 0 0 1 525.5 196.5 A 4 4 0 0 1 533.5 196.5" fill-opacity="1" stroke-opacity="1" stroke-linejoin="bevel" stroke-miterlimit="10"/><text fill="rgb(68,68,68)" stroke="none" font-family="helvetica" font-size="13px" font-style="normal" font-weight="normal" text-decoration="normal" x="0" y="4.5" text-anchor="start" dominant-baseline="alphabetic" transform="matrix(1, 0, 0, 1, 544.5, 196.5)" fill-opacity="1">TRANSFAC_and_JASPAR_PWMs</text><text fill="none" stroke="rgb(0,0,0)" font-family="helvetica" font-size="13px" font-style="normal" font-weight="normal" text-decoration="normal" x="0" y="4.5" text-anchor="start" dominant-baseline="alphabetic" transform="matrix(1, 0, 0, 1, 544.5, 196.5)" stroke-opacity="0" stroke-linejoin="bevel" stroke-miterlimit="10">TRANSFAC_and_JASPAR_PWMs</text><path fill="rgb(140,86,75)" stroke="rgb(140,86,75)" paint-order="fill" d="M 533.5 219.5 A 4 4 0 0 1 525.5 219.5 A 4 4 0 0 1 533.5 219.5" fill-opacity="1" stroke-opacity="1" stroke-linejoin="bevel" stroke-miterlimit="10"/><text fill="rgb(68,68,68)" stroke="none" font-family="helvetica" font-size="13px" font-style="normal" font-weight="normal" text-decoration="normal" x="0" y="4.5" text-anchor="start" dominant-baseline="alphabetic" transform="matrix(1, 0, 0, 1, 544.5, 219.5)" fill-opacity="1">TRRUST_Transcription_Factors_2019</text><text fill="none" stroke="rgb(0,0,0)" font-family="helvetica" font-size="13px" font-style="normal" font-weight="normal" text-decoration="normal" x="0" y="4.5" text-anchor="start" dominant-baseline="alphabetic" transform="matrix(1, 0, 0, 1, 544.5, 219.5)" stroke-opacity="0" stroke-linejoin="bevel" stroke-miterlimit="10">TRRUST_Transcription_Factors_2019</text></svg>