<?xml version="1.0" encoding="utf-8" standalone="no"?>
<!DOCTYPE svg PUBLIC "-//W3C//DTD SVG 1.1//EN"
  "http://www.w3.org/Graphics/SVG/1.1/DTD/svg11.dtd">
<svg xmlns:xlink="http://www.w3.org/1999/xlink" width="735.37525pt" height="560.85871pt" viewBox="0 0 735.37525 560.85871" xmlns="http://www.w3.org/2000/svg" version="1.1">
 <metadata>
  <rdf:RDF xmlns:dc="http://purl.org/dc/elements/1.1/" xmlns:cc="http://creativecommons.org/ns#" xmlns:rdf="http://www.w3.org/1999/02/22-rdf-syntax-ns#">
   <cc:Work>
    <dc:type rdf:resource="http://purl.org/dc/dcmitype/StillImage"/>
    <dc:date>2023-05-09T15:42:49.851983</dc:date>
    <dc:format>image/svg+xml</dc:format>
    <dc:creator>
     <cc:Agent>
      <dc:title>Matplotlib v3.7.1, https://matplotlib.org/</dc:title>
     </cc:Agent>
    </dc:creator>
   </cc:Work>
  </rdf:RDF>
 </metadata>
 <defs>
  <style type="text/css">*{stroke-linejoin: round; stroke-linecap: butt}</style>
 </defs>
 <g id="figure_1">
  <g id="patch_1">
   <path d="M 0 560.85871 
L 735.37525 560.85871 
L 735.37525 0 
L 0 0 
z
" style="fill: #ffffff"/>
  </g>
  <g id="axes_1">
   <g id="patch_2">
    <path d="M 371.05525 273.312 
L 728.17525 273.312 
L 728.17525 7.2 
L 371.05525 7.2 
z
" style="fill: #ffffff"/>
   </g>
   <g id="matplotlib.axis_1">
    <g id="xtick_1">
     <g id="text_1">
      <!-- Nfatc1 Sumoylation Autoimmunity Alloreactivity GSE148087 1 -->
      <g style="fill: #1f77b4" transform="translate(113.084028 551.894037) rotate(-45) scale(0.12 -0.12)">
       <defs>
        <path id="DejaVuSans-4e" d="M 628 4666 
L 1478 4666 
L 3547 763 
L 3547 4666 
L 4159 4666 
L 4159 0 
L 3309 0 
L 1241 3903 
L 1241 0 
L 628 0 
L 628 4666 
z
" transform="scale(0.015625)"/>
        <path id="DejaVuSans-66" d="M 2375 4863 
L 2375 4384 
L 1825 4384 
Q 1516 4384 1395 4259 
Q 1275 4134 1275 3809 
L 1275 3500 
L 2222 3500 
L 2222 3053 
L 1275 3053 
L 1275 0 
L 697 0 
L 697 3053 
L 147 3053 
L 147 3500 
L 697 3500 
L 697 3744 
Q 697 4328 969 4595 
Q 1241 4863 1831 4863 
L 2375 4863 
z
" transform="scale(0.015625)"/>
        <path id="DejaVuSans-61" d="M 2194 1759 
Q 1497 1759 1228 1600 
Q 959 1441 959 1056 
Q 959 750 1161 570 
Q 1363 391 1709 391 
Q 2188 391 2477 730 
Q 2766 1069 2766 1631 
L 2766 1759 
L 2194 1759 
z
M 3341 1997 
L 3341 0 
L 2766 0 
L 2766 531 
Q 2569 213 2275 61 
Q 1981 -91 1556 -91 
Q 1019 -91 701 211 
Q 384 513 384 1019 
Q 384 1609 779 1909 
Q 1175 2209 1959 2209 
L 2766 2209 
L 2766 2266 
Q 2766 2663 2505 2880 
Q 2244 3097 1772 3097 
Q 1472 3097 1187 3025 
Q 903 2953 641 2809 
L 641 3341 
Q 956 3463 1253 3523 
Q 1550 3584 1831 3584 
Q 2591 3584 2966 3190 
Q 3341 2797 3341 1997 
z
" transform="scale(0.015625)"/>
        <path id="DejaVuSans-74" d="M 1172 4494 
L 1172 3500 
L 2356 3500 
L 2356 3053 
L 1172 3053 
L 1172 1153 
Q 1172 725 1289 603 
Q 1406 481 1766 481 
L 2356 481 
L 2356 0 
L 1766 0 
Q 1100 0 847 248 
Q 594 497 594 1153 
L 594 3053 
L 172 3053 
L 172 3500 
L 594 3500 
L 594 4494 
L 1172 4494 
z
" transform="scale(0.015625)"/>
        <path id="DejaVuSans-63" d="M 3122 3366 
L 3122 2828 
Q 2878 2963 2633 3030 
Q 2388 3097 2138 3097 
Q 1578 3097 1268 2742 
Q 959 2388 959 1747 
Q 959 1106 1268 751 
Q 1578 397 2138 397 
Q 2388 397 2633 464 
Q 2878 531 3122 666 
L 3122 134 
Q 2881 22 2623 -34 
Q 2366 -91 2075 -91 
Q 1284 -91 818 406 
Q 353 903 353 1747 
Q 353 2603 823 3093 
Q 1294 3584 2113 3584 
Q 2378 3584 2631 3529 
Q 2884 3475 3122 3366 
z
" transform="scale(0.015625)"/>
        <path id="DejaVuSans-31" d="M 794 531 
L 1825 531 
L 1825 4091 
L 703 3866 
L 703 4441 
L 1819 4666 
L 2450 4666 
L 2450 531 
L 3481 531 
L 3481 0 
L 794 0 
L 794 531 
z
" transform="scale(0.015625)"/>
        <path id="DejaVuSans-20" transform="scale(0.015625)"/>
        <path id="DejaVuSans-53" d="M 3425 4513 
L 3425 3897 
Q 3066 4069 2747 4153 
Q 2428 4238 2131 4238 
Q 1616 4238 1336 4038 
Q 1056 3838 1056 3469 
Q 1056 3159 1242 3001 
Q 1428 2844 1947 2747 
L 2328 2669 
Q 3034 2534 3370 2195 
Q 3706 1856 3706 1288 
Q 3706 609 3251 259 
Q 2797 -91 1919 -91 
Q 1588 -91 1214 -16 
Q 841 59 441 206 
L 441 856 
Q 825 641 1194 531 
Q 1563 422 1919 422 
Q 2459 422 2753 634 
Q 3047 847 3047 1241 
Q 3047 1584 2836 1778 
Q 2625 1972 2144 2069 
L 1759 2144 
Q 1053 2284 737 2584 
Q 422 2884 422 3419 
Q 422 4038 858 4394 
Q 1294 4750 2059 4750 
Q 2388 4750 2728 4690 
Q 3069 4631 3425 4513 
z
" transform="scale(0.015625)"/>
        <path id="DejaVuSans-75" d="M 544 1381 
L 544 3500 
L 1119 3500 
L 1119 1403 
Q 1119 906 1312 657 
Q 1506 409 1894 409 
Q 2359 409 2629 706 
Q 2900 1003 2900 1516 
L 2900 3500 
L 3475 3500 
L 3475 0 
L 2900 0 
L 2900 538 
Q 2691 219 2414 64 
Q 2138 -91 1772 -91 
Q 1169 -91 856 284 
Q 544 659 544 1381 
z
M 1991 3584 
L 1991 3584 
z
" transform="scale(0.015625)"/>
        <path id="DejaVuSans-6d" d="M 3328 2828 
Q 3544 3216 3844 3400 
Q 4144 3584 4550 3584 
Q 5097 3584 5394 3201 
Q 5691 2819 5691 2113 
L 5691 0 
L 5113 0 
L 5113 2094 
Q 5113 2597 4934 2840 
Q 4756 3084 4391 3084 
Q 3944 3084 3684 2787 
Q 3425 2491 3425 1978 
L 3425 0 
L 2847 0 
L 2847 2094 
Q 2847 2600 2669 2842 
Q 2491 3084 2119 3084 
Q 1678 3084 1418 2786 
Q 1159 2488 1159 1978 
L 1159 0 
L 581 0 
L 581 3500 
L 1159 3500 
L 1159 2956 
Q 1356 3278 1631 3431 
Q 1906 3584 2284 3584 
Q 2666 3584 2933 3390 
Q 3200 3197 3328 2828 
z
" transform="scale(0.015625)"/>
        <path id="DejaVuSans-6f" d="M 1959 3097 
Q 1497 3097 1228 2736 
Q 959 2375 959 1747 
Q 959 1119 1226 758 
Q 1494 397 1959 397 
Q 2419 397 2687 759 
Q 2956 1122 2956 1747 
Q 2956 2369 2687 2733 
Q 2419 3097 1959 3097 
z
M 1959 3584 
Q 2709 3584 3137 3096 
Q 3566 2609 3566 1747 
Q 3566 888 3137 398 
Q 2709 -91 1959 -91 
Q 1206 -91 779 398 
Q 353 888 353 1747 
Q 353 2609 779 3096 
Q 1206 3584 1959 3584 
z
" transform="scale(0.015625)"/>
        <path id="DejaVuSans-79" d="M 2059 -325 
Q 1816 -950 1584 -1140 
Q 1353 -1331 966 -1331 
L 506 -1331 
L 506 -850 
L 844 -850 
Q 1081 -850 1212 -737 
Q 1344 -625 1503 -206 
L 1606 56 
L 191 3500 
L 800 3500 
L 1894 763 
L 2988 3500 
L 3597 3500 
L 2059 -325 
z
" transform="scale(0.015625)"/>
        <path id="DejaVuSans-6c" d="M 603 4863 
L 1178 4863 
L 1178 0 
L 603 0 
L 603 4863 
z
" transform="scale(0.015625)"/>
        <path id="DejaVuSans-69" d="M 603 3500 
L 1178 3500 
L 1178 0 
L 603 0 
L 603 3500 
z
M 603 4863 
L 1178 4863 
L 1178 4134 
L 603 4134 
L 603 4863 
z
" transform="scale(0.015625)"/>
        <path id="DejaVuSans-6e" d="M 3513 2113 
L 3513 0 
L 2938 0 
L 2938 2094 
Q 2938 2591 2744 2837 
Q 2550 3084 2163 3084 
Q 1697 3084 1428 2787 
Q 1159 2491 1159 1978 
L 1159 0 
L 581 0 
L 581 3500 
L 1159 3500 
L 1159 2956 
Q 1366 3272 1645 3428 
Q 1925 3584 2291 3584 
Q 2894 3584 3203 3211 
Q 3513 2838 3513 2113 
z
" transform="scale(0.015625)"/>
        <path id="DejaVuSans-41" d="M 2188 4044 
L 1331 1722 
L 3047 1722 
L 2188 4044 
z
M 1831 4666 
L 2547 4666 
L 4325 0 
L 3669 0 
L 3244 1197 
L 1141 1197 
L 716 0 
L 50 0 
L 1831 4666 
z
" transform="scale(0.015625)"/>
        <path id="DejaVuSans-72" d="M 2631 2963 
Q 2534 3019 2420 3045 
Q 2306 3072 2169 3072 
Q 1681 3072 1420 2755 
Q 1159 2438 1159 1844 
L 1159 0 
L 581 0 
L 581 3500 
L 1159 3500 
L 1159 2956 
Q 1341 3275 1631 3429 
Q 1922 3584 2338 3584 
Q 2397 3584 2469 3576 
Q 2541 3569 2628 3553 
L 2631 2963 
z
" transform="scale(0.015625)"/>
        <path id="DejaVuSans-65" d="M 3597 1894 
L 3597 1613 
L 953 1613 
Q 991 1019 1311 708 
Q 1631 397 2203 397 
Q 2534 397 2845 478 
Q 3156 559 3463 722 
L 3463 178 
Q 3153 47 2828 -22 
Q 2503 -91 2169 -91 
Q 1331 -91 842 396 
Q 353 884 353 1716 
Q 353 2575 817 3079 
Q 1281 3584 2069 3584 
Q 2775 3584 3186 3129 
Q 3597 2675 3597 1894 
z
M 3022 2063 
Q 3016 2534 2758 2815 
Q 2500 3097 2075 3097 
Q 1594 3097 1305 2825 
Q 1016 2553 972 2059 
L 3022 2063 
z
" transform="scale(0.015625)"/>
        <path id="DejaVuSans-76" d="M 191 3500 
L 800 3500 
L 1894 563 
L 2988 3500 
L 3597 3500 
L 2284 0 
L 1503 0 
L 191 3500 
z
" transform="scale(0.015625)"/>
        <path id="DejaVuSans-47" d="M 3809 666 
L 3809 1919 
L 2778 1919 
L 2778 2438 
L 4434 2438 
L 4434 434 
Q 4069 175 3628 42 
Q 3188 -91 2688 -91 
Q 1594 -91 976 548 
Q 359 1188 359 2328 
Q 359 3472 976 4111 
Q 1594 4750 2688 4750 
Q 3144 4750 3555 4637 
Q 3966 4525 4313 4306 
L 4313 3634 
Q 3963 3931 3569 4081 
Q 3175 4231 2741 4231 
Q 1884 4231 1454 3753 
Q 1025 3275 1025 2328 
Q 1025 1384 1454 906 
Q 1884 428 2741 428 
Q 3075 428 3337 486 
Q 3600 544 3809 666 
z
" transform="scale(0.015625)"/>
        <path id="DejaVuSans-45" d="M 628 4666 
L 3578 4666 
L 3578 4134 
L 1259 4134 
L 1259 2753 
L 3481 2753 
L 3481 2222 
L 1259 2222 
L 1259 531 
L 3634 531 
L 3634 0 
L 628 0 
L 628 4666 
z
" transform="scale(0.015625)"/>
        <path id="DejaVuSans-34" d="M 2419 4116 
L 825 1625 
L 2419 1625 
L 2419 4116 
z
M 2253 4666 
L 3047 4666 
L 3047 1625 
L 3713 1625 
L 3713 1100 
L 3047 1100 
L 3047 0 
L 2419 0 
L 2419 1100 
L 313 1100 
L 313 1709 
L 2253 4666 
z
" transform="scale(0.015625)"/>
        <path id="DejaVuSans-38" d="M 2034 2216 
Q 1584 2216 1326 1975 
Q 1069 1734 1069 1313 
Q 1069 891 1326 650 
Q 1584 409 2034 409 
Q 2484 409 2743 651 
Q 3003 894 3003 1313 
Q 3003 1734 2745 1975 
Q 2488 2216 2034 2216 
z
M 1403 2484 
Q 997 2584 770 2862 
Q 544 3141 544 3541 
Q 544 4100 942 4425 
Q 1341 4750 2034 4750 
Q 2731 4750 3128 4425 
Q 3525 4100 3525 3541 
Q 3525 3141 3298 2862 
Q 3072 2584 2669 2484 
Q 3125 2378 3379 2068 
Q 3634 1759 3634 1313 
Q 3634 634 3220 271 
Q 2806 -91 2034 -91 
Q 1263 -91 848 271 
Q 434 634 434 1313 
Q 434 1759 690 2068 
Q 947 2378 1403 2484 
z
M 1172 3481 
Q 1172 3119 1398 2916 
Q 1625 2713 2034 2713 
Q 2441 2713 2670 2916 
Q 2900 3119 2900 3481 
Q 2900 3844 2670 4047 
Q 2441 4250 2034 4250 
Q 1625 4250 1398 4047 
Q 1172 3844 1172 3481 
z
" transform="scale(0.015625)"/>
        <path id="DejaVuSans-30" d="M 2034 4250 
Q 1547 4250 1301 3770 
Q 1056 3291 1056 2328 
Q 1056 1369 1301 889 
Q 1547 409 2034 409 
Q 2525 409 2770 889 
Q 3016 1369 3016 2328 
Q 3016 3291 2770 3770 
Q 2525 4250 2034 4250 
z
M 2034 4750 
Q 2819 4750 3233 4129 
Q 3647 3509 3647 2328 
Q 3647 1150 3233 529 
Q 2819 -91 2034 -91 
Q 1250 -91 836 529 
Q 422 1150 422 2328 
Q 422 3509 836 4129 
Q 1250 4750 2034 4750 
z
" transform="scale(0.015625)"/>
        <path id="DejaVuSans-37" d="M 525 4666 
L 3525 4666 
L 3525 4397 
L 1831 0 
L 1172 0 
L 2766 4134 
L 525 4134 
L 525 4666 
z
" transform="scale(0.015625)"/>
       </defs>
       <use xlink:href="#DejaVuSans-4e"/>
       <use xlink:href="#DejaVuSans-66" x="74.804688"/>
       <use xlink:href="#DejaVuSans-61" x="110.009766"/>
       <use xlink:href="#DejaVuSans-74" x="171.289062"/>
       <use xlink:href="#DejaVuSans-63" x="210.498047"/>
       <use xlink:href="#DejaVuSans-31" x="265.478516"/>
       <use xlink:href="#DejaVuSans-20" x="329.101562"/>
       <use xlink:href="#DejaVuSans-53" x="360.888672"/>
       <use xlink:href="#DejaVuSans-75" x="424.365234"/>
       <use xlink:href="#DejaVuSans-6d" x="487.744141"/>
       <use xlink:href="#DejaVuSans-6f" x="585.15625"/>
       <use xlink:href="#DejaVuSans-79" x="646.337891"/>
       <use xlink:href="#DejaVuSans-6c" x="705.517578"/>
       <use xlink:href="#DejaVuSans-61" x="733.300781"/>
       <use xlink:href="#DejaVuSans-74" x="794.580078"/>
       <use xlink:href="#DejaVuSans-69" x="833.789062"/>
       <use xlink:href="#DejaVuSans-6f" x="861.572266"/>
       <use xlink:href="#DejaVuSans-6e" x="922.753906"/>
       <use xlink:href="#DejaVuSans-20" x="986.132812"/>
       <use xlink:href="#DejaVuSans-41" x="1017.919922"/>
       <use xlink:href="#DejaVuSans-75" x="1086.328125"/>
       <use xlink:href="#DejaVuSans-74" x="1149.707031"/>
       <use xlink:href="#DejaVuSans-6f" x="1188.916016"/>
       <use xlink:href="#DejaVuSans-69" x="1250.097656"/>
       <use xlink:href="#DejaVuSans-6d" x="1277.880859"/>
       <use xlink:href="#DejaVuSans-6d" x="1375.292969"/>
       <use xlink:href="#DejaVuSans-75" x="1472.705078"/>
       <use xlink:href="#DejaVuSans-6e" x="1536.083984"/>
       <use xlink:href="#DejaVuSans-69" x="1599.462891"/>
       <use xlink:href="#DejaVuSans-74" x="1627.246094"/>
       <use xlink:href="#DejaVuSans-79" x="1666.455078"/>
       <use xlink:href="#DejaVuSans-20" x="1725.634766"/>
       <use xlink:href="#DejaVuSans-41" x="1757.421875"/>
       <use xlink:href="#DejaVuSans-6c" x="1825.830078"/>
       <use xlink:href="#DejaVuSans-6c" x="1853.613281"/>
       <use xlink:href="#DejaVuSans-6f" x="1881.396484"/>
       <use xlink:href="#DejaVuSans-72" x="1942.578125"/>
       <use xlink:href="#DejaVuSans-65" x="1981.441406"/>
       <use xlink:href="#DejaVuSans-61" x="2042.964844"/>
       <use xlink:href="#DejaVuSans-63" x="2104.244141"/>
       <use xlink:href="#DejaVuSans-74" x="2159.224609"/>
       <use xlink:href="#DejaVuSans-69" x="2198.433594"/>
       <use xlink:href="#DejaVuSans-76" x="2226.216797"/>
       <use xlink:href="#DejaVuSans-69" x="2285.396484"/>
       <use xlink:href="#DejaVuSans-74" x="2313.179688"/>
       <use xlink:href="#DejaVuSans-79" x="2352.388672"/>
       <use xlink:href="#DejaVuSans-20" x="2411.568359"/>
       <use xlink:href="#DejaVuSans-47" x="2443.355469"/>
       <use xlink:href="#DejaVuSans-53" x="2520.845703"/>
       <use xlink:href="#DejaVuSans-45" x="2584.322266"/>
       <use xlink:href="#DejaVuSans-31" x="2647.505859"/>
       <use xlink:href="#DejaVuSans-34" x="2711.128906"/>
       <use xlink:href="#DejaVuSans-38" x="2774.751953"/>
       <use xlink:href="#DejaVuSans-30" x="2838.375"/>
       <use xlink:href="#DejaVuSans-38" x="2901.998047"/>
       <use xlink:href="#DejaVuSans-37" x="2965.621094"/>
       <use xlink:href="#DejaVuSans-20" x="3029.244141"/>
       <use xlink:href="#DejaVuSans-31" x="3061.03125"/>
      </g>
     </g>
    </g>
    <g id="xtick_2">
     <g id="text_2">
      <!-- NFATC1 Up -->
      <g style="fill: #ff7f0e" transform="translate(350.171856 332.662209) rotate(-45) scale(0.12 -0.12)">
       <defs>
        <path id="DejaVuSans-46" d="M 628 4666 
L 3309 4666 
L 3309 4134 
L 1259 4134 
L 1259 2759 
L 3109 2759 
L 3109 2228 
L 1259 2228 
L 1259 0 
L 628 0 
L 628 4666 
z
" transform="scale(0.015625)"/>
        <path id="DejaVuSans-54" d="M -19 4666 
L 3928 4666 
L 3928 4134 
L 2272 4134 
L 2272 0 
L 1638 0 
L 1638 4134 
L -19 4134 
L -19 4666 
z
" transform="scale(0.015625)"/>
        <path id="DejaVuSans-43" d="M 4122 4306 
L 4122 3641 
Q 3803 3938 3442 4084 
Q 3081 4231 2675 4231 
Q 1875 4231 1450 3742 
Q 1025 3253 1025 2328 
Q 1025 1406 1450 917 
Q 1875 428 2675 428 
Q 3081 428 3442 575 
Q 3803 722 4122 1019 
L 4122 359 
Q 3791 134 3420 21 
Q 3050 -91 2638 -91 
Q 1578 -91 968 557 
Q 359 1206 359 2328 
Q 359 3453 968 4101 
Q 1578 4750 2638 4750 
Q 3056 4750 3426 4639 
Q 3797 4528 4122 4306 
z
" transform="scale(0.015625)"/>
        <path id="DejaVuSans-55" d="M 556 4666 
L 1191 4666 
L 1191 1831 
Q 1191 1081 1462 751 
Q 1734 422 2344 422 
Q 2950 422 3222 751 
Q 3494 1081 3494 1831 
L 3494 4666 
L 4128 4666 
L 4128 1753 
Q 4128 841 3676 375 
Q 3225 -91 2344 -91 
Q 1459 -91 1007 375 
Q 556 841 556 1753 
L 556 4666 
z
" transform="scale(0.015625)"/>
        <path id="DejaVuSans-70" d="M 1159 525 
L 1159 -1331 
L 581 -1331 
L 581 3500 
L 1159 3500 
L 1159 2969 
Q 1341 3281 1617 3432 
Q 1894 3584 2278 3584 
Q 2916 3584 3314 3078 
Q 3713 2572 3713 1747 
Q 3713 922 3314 415 
Q 2916 -91 2278 -91 
Q 1894 -91 1617 61 
Q 1341 213 1159 525 
z
M 3116 1747 
Q 3116 2381 2855 2742 
Q 2594 3103 2138 3103 
Q 1681 3103 1420 2742 
Q 1159 2381 1159 1747 
Q 1159 1113 1420 752 
Q 1681 391 2138 391 
Q 2594 391 2855 752 
Q 3116 1113 3116 1747 
z
" transform="scale(0.015625)"/>
       </defs>
       <use xlink:href="#DejaVuSans-4e"/>
       <use xlink:href="#DejaVuSans-46" x="74.804688"/>
       <use xlink:href="#DejaVuSans-41" x="123.199219"/>
       <use xlink:href="#DejaVuSans-54" x="183.857422"/>
       <use xlink:href="#DejaVuSans-43" x="239.066406"/>
       <use xlink:href="#DejaVuSans-31" x="308.890625"/>
       <use xlink:href="#DejaVuSans-20" x="372.513672"/>
       <use xlink:href="#DejaVuSans-55" x="404.300781"/>
       <use xlink:href="#DejaVuSans-70" x="477.494141"/>
      </g>
     </g>
    </g>
    <g id="xtick_3">
     <g id="text_3">
      <!-- Lack Nfatc1 Sumoylation Diseases GSE119313 1 -->
      <g style="fill: #ff7f0e" transform="translate(207.051462 493.638603) rotate(-45) scale(0.12 -0.12)">
       <defs>
        <path id="DejaVuSans-4c" d="M 628 4666 
L 1259 4666 
L 1259 531 
L 3531 531 
L 3531 0 
L 628 0 
L 628 4666 
z
" transform="scale(0.015625)"/>
        <path id="DejaVuSans-6b" d="M 581 4863 
L 1159 4863 
L 1159 1991 
L 2875 3500 
L 3609 3500 
L 1753 1863 
L 3688 0 
L 2938 0 
L 1159 1709 
L 1159 0 
L 581 0 
L 581 4863 
z
" transform="scale(0.015625)"/>
        <path id="DejaVuSans-44" d="M 1259 4147 
L 1259 519 
L 2022 519 
Q 2988 519 3436 956 
Q 3884 1394 3884 2338 
Q 3884 3275 3436 3711 
Q 2988 4147 2022 4147 
L 1259 4147 
z
M 628 4666 
L 1925 4666 
Q 3281 4666 3915 4102 
Q 4550 3538 4550 2338 
Q 4550 1131 3912 565 
Q 3275 0 1925 0 
L 628 0 
L 628 4666 
z
" transform="scale(0.015625)"/>
        <path id="DejaVuSans-73" d="M 2834 3397 
L 2834 2853 
Q 2591 2978 2328 3040 
Q 2066 3103 1784 3103 
Q 1356 3103 1142 2972 
Q 928 2841 928 2578 
Q 928 2378 1081 2264 
Q 1234 2150 1697 2047 
L 1894 2003 
Q 2506 1872 2764 1633 
Q 3022 1394 3022 966 
Q 3022 478 2636 193 
Q 2250 -91 1575 -91 
Q 1294 -91 989 -36 
Q 684 19 347 128 
L 347 722 
Q 666 556 975 473 
Q 1284 391 1588 391 
Q 1994 391 2212 530 
Q 2431 669 2431 922 
Q 2431 1156 2273 1281 
Q 2116 1406 1581 1522 
L 1381 1569 
Q 847 1681 609 1914 
Q 372 2147 372 2553 
Q 372 3047 722 3315 
Q 1072 3584 1716 3584 
Q 2034 3584 2315 3537 
Q 2597 3491 2834 3397 
z
" transform="scale(0.015625)"/>
        <path id="DejaVuSans-39" d="M 703 97 
L 703 672 
Q 941 559 1184 500 
Q 1428 441 1663 441 
Q 2288 441 2617 861 
Q 2947 1281 2994 2138 
Q 2813 1869 2534 1725 
Q 2256 1581 1919 1581 
Q 1219 1581 811 2004 
Q 403 2428 403 3163 
Q 403 3881 828 4315 
Q 1253 4750 1959 4750 
Q 2769 4750 3195 4129 
Q 3622 3509 3622 2328 
Q 3622 1225 3098 567 
Q 2575 -91 1691 -91 
Q 1453 -91 1209 -44 
Q 966 3 703 97 
z
M 1959 2075 
Q 2384 2075 2632 2365 
Q 2881 2656 2881 3163 
Q 2881 3666 2632 3958 
Q 2384 4250 1959 4250 
Q 1534 4250 1286 3958 
Q 1038 3666 1038 3163 
Q 1038 2656 1286 2365 
Q 1534 2075 1959 2075 
z
" transform="scale(0.015625)"/>
        <path id="DejaVuSans-33" d="M 2597 2516 
Q 3050 2419 3304 2112 
Q 3559 1806 3559 1356 
Q 3559 666 3084 287 
Q 2609 -91 1734 -91 
Q 1441 -91 1130 -33 
Q 819 25 488 141 
L 488 750 
Q 750 597 1062 519 
Q 1375 441 1716 441 
Q 2309 441 2620 675 
Q 2931 909 2931 1356 
Q 2931 1769 2642 2001 
Q 2353 2234 1838 2234 
L 1294 2234 
L 1294 2753 
L 1863 2753 
Q 2328 2753 2575 2939 
Q 2822 3125 2822 3475 
Q 2822 3834 2567 4026 
Q 2313 4219 1838 4219 
Q 1578 4219 1281 4162 
Q 984 4106 628 3988 
L 628 4550 
Q 988 4650 1302 4700 
Q 1616 4750 1894 4750 
Q 2613 4750 3031 4423 
Q 3450 4097 3450 3541 
Q 3450 3153 3228 2886 
Q 3006 2619 2597 2516 
z
" transform="scale(0.015625)"/>
       </defs>
       <use xlink:href="#DejaVuSans-4c"/>
       <use xlink:href="#DejaVuSans-61" x="55.712891"/>
       <use xlink:href="#DejaVuSans-63" x="116.992188"/>
       <use xlink:href="#DejaVuSans-6b" x="171.972656"/>
       <use xlink:href="#DejaVuSans-20" x="229.882812"/>
       <use xlink:href="#DejaVuSans-4e" x="261.669922"/>
       <use xlink:href="#DejaVuSans-66" x="336.474609"/>
       <use xlink:href="#DejaVuSans-61" x="371.679688"/>
       <use xlink:href="#DejaVuSans-74" x="432.958984"/>
       <use xlink:href="#DejaVuSans-63" x="472.167969"/>
       <use xlink:href="#DejaVuSans-31" x="527.148438"/>
       <use xlink:href="#DejaVuSans-20" x="590.771484"/>
       <use xlink:href="#DejaVuSans-53" x="622.558594"/>
       <use xlink:href="#DejaVuSans-75" x="686.035156"/>
       <use xlink:href="#DejaVuSans-6d" x="749.414062"/>
       <use xlink:href="#DejaVuSans-6f" x="846.826172"/>
       <use xlink:href="#DejaVuSans-79" x="908.007812"/>
       <use xlink:href="#DejaVuSans-6c" x="967.1875"/>
       <use xlink:href="#DejaVuSans-61" x="994.970703"/>
       <use xlink:href="#DejaVuSans-74" x="1056.25"/>
       <use xlink:href="#DejaVuSans-69" x="1095.458984"/>
       <use xlink:href="#DejaVuSans-6f" x="1123.242188"/>
       <use xlink:href="#DejaVuSans-6e" x="1184.423828"/>
       <use xlink:href="#DejaVuSans-20" x="1247.802734"/>
       <use xlink:href="#DejaVuSans-44" x="1279.589844"/>
       <use xlink:href="#DejaVuSans-69" x="1356.591797"/>
       <use xlink:href="#DejaVuSans-73" x="1384.375"/>
       <use xlink:href="#DejaVuSans-65" x="1436.474609"/>
       <use xlink:href="#DejaVuSans-61" x="1497.998047"/>
       <use xlink:href="#DejaVuSans-73" x="1559.277344"/>
       <use xlink:href="#DejaVuSans-65" x="1611.376953"/>
       <use xlink:href="#DejaVuSans-73" x="1672.900391"/>
       <use xlink:href="#DejaVuSans-20" x="1725"/>
       <use xlink:href="#DejaVuSans-47" x="1756.787109"/>
       <use xlink:href="#DejaVuSans-53" x="1834.277344"/>
       <use xlink:href="#DejaVuSans-45" x="1897.753906"/>
       <use xlink:href="#DejaVuSans-31" x="1960.9375"/>
       <use xlink:href="#DejaVuSans-31" x="2024.560547"/>
       <use xlink:href="#DejaVuSans-39" x="2088.183594"/>
       <use xlink:href="#DejaVuSans-33" x="2151.806641"/>
       <use xlink:href="#DejaVuSans-31" x="2215.429688"/>
       <use xlink:href="#DejaVuSans-33" x="2279.052734"/>
       <use xlink:href="#DejaVuSans-20" x="2342.675781"/>
       <use xlink:href="#DejaVuSans-31" x="2374.462891"/>
      </g>
     </g>
    </g>
    <g id="xtick_4">
     <g id="text_4">
      <!-- NFATC1 GM12878 hg19 -->
      <g style="fill: #2ca02c" transform="translate(332.33245 386.213615) rotate(-45) scale(0.12 -0.12)">
       <defs>
        <path id="DejaVuSans-4d" d="M 628 4666 
L 1569 4666 
L 2759 1491 
L 3956 4666 
L 4897 4666 
L 4897 0 
L 4281 0 
L 4281 4097 
L 3078 897 
L 2444 897 
L 1241 4097 
L 1241 0 
L 628 0 
L 628 4666 
z
" transform="scale(0.015625)"/>
        <path id="DejaVuSans-32" d="M 1228 531 
L 3431 531 
L 3431 0 
L 469 0 
L 469 531 
Q 828 903 1448 1529 
Q 2069 2156 2228 2338 
Q 2531 2678 2651 2914 
Q 2772 3150 2772 3378 
Q 2772 3750 2511 3984 
Q 2250 4219 1831 4219 
Q 1534 4219 1204 4116 
Q 875 4013 500 3803 
L 500 4441 
Q 881 4594 1212 4672 
Q 1544 4750 1819 4750 
Q 2544 4750 2975 4387 
Q 3406 4025 3406 3419 
Q 3406 3131 3298 2873 
Q 3191 2616 2906 2266 
Q 2828 2175 2409 1742 
Q 1991 1309 1228 531 
z
" transform="scale(0.015625)"/>
        <path id="DejaVuSans-68" d="M 3513 2113 
L 3513 0 
L 2938 0 
L 2938 2094 
Q 2938 2591 2744 2837 
Q 2550 3084 2163 3084 
Q 1697 3084 1428 2787 
Q 1159 2491 1159 1978 
L 1159 0 
L 581 0 
L 581 4863 
L 1159 4863 
L 1159 2956 
Q 1366 3272 1645 3428 
Q 1925 3584 2291 3584 
Q 2894 3584 3203 3211 
Q 3513 2838 3513 2113 
z
" transform="scale(0.015625)"/>
        <path id="DejaVuSans-67" d="M 2906 1791 
Q 2906 2416 2648 2759 
Q 2391 3103 1925 3103 
Q 1463 3103 1205 2759 
Q 947 2416 947 1791 
Q 947 1169 1205 825 
Q 1463 481 1925 481 
Q 2391 481 2648 825 
Q 2906 1169 2906 1791 
z
M 3481 434 
Q 3481 -459 3084 -895 
Q 2688 -1331 1869 -1331 
Q 1566 -1331 1297 -1286 
Q 1028 -1241 775 -1147 
L 775 -588 
Q 1028 -725 1275 -790 
Q 1522 -856 1778 -856 
Q 2344 -856 2625 -561 
Q 2906 -266 2906 331 
L 2906 616 
Q 2728 306 2450 153 
Q 2172 0 1784 0 
Q 1141 0 747 490 
Q 353 981 353 1791 
Q 353 2603 747 3093 
Q 1141 3584 1784 3584 
Q 2172 3584 2450 3431 
Q 2728 3278 2906 2969 
L 2906 3500 
L 3481 3500 
L 3481 434 
z
" transform="scale(0.015625)"/>
       </defs>
       <use xlink:href="#DejaVuSans-4e"/>
       <use xlink:href="#DejaVuSans-46" x="74.804688"/>
       <use xlink:href="#DejaVuSans-41" x="123.199219"/>
       <use xlink:href="#DejaVuSans-54" x="183.857422"/>
       <use xlink:href="#DejaVuSans-43" x="239.066406"/>
       <use xlink:href="#DejaVuSans-31" x="308.890625"/>
       <use xlink:href="#DejaVuSans-20" x="372.513672"/>
       <use xlink:href="#DejaVuSans-47" x="404.300781"/>
       <use xlink:href="#DejaVuSans-4d" x="481.791016"/>
       <use xlink:href="#DejaVuSans-31" x="568.070312"/>
       <use xlink:href="#DejaVuSans-32" x="631.693359"/>
       <use xlink:href="#DejaVuSans-38" x="695.316406"/>
       <use xlink:href="#DejaVuSans-37" x="758.939453"/>
       <use xlink:href="#DejaVuSans-38" x="822.5625"/>
       <use xlink:href="#DejaVuSans-20" x="886.185547"/>
       <use xlink:href="#DejaVuSans-68" x="917.972656"/>
       <use xlink:href="#DejaVuSans-67" x="981.351562"/>
       <use xlink:href="#DejaVuSans-31" x="1044.828125"/>
       <use xlink:href="#DejaVuSans-39" x="1108.451172"/>
      </g>
     </g>
    </g>
    <g id="xtick_5">
     <g id="text_5">
      <!-- NFATC1 GM12878 -->
      <g style="fill: #d62728" transform="translate(374.447074 361.954991) rotate(-45) scale(0.12 -0.12)">
       <use xlink:href="#DejaVuSans-4e"/>
       <use xlink:href="#DejaVuSans-46" x="74.804688"/>
       <use xlink:href="#DejaVuSans-41" x="123.199219"/>
       <use xlink:href="#DejaVuSans-54" x="183.857422"/>
       <use xlink:href="#DejaVuSans-43" x="239.066406"/>
       <use xlink:href="#DejaVuSans-31" x="308.890625"/>
       <use xlink:href="#DejaVuSans-20" x="372.513672"/>
       <use xlink:href="#DejaVuSans-47" x="404.300781"/>
       <use xlink:href="#DejaVuSans-4d" x="481.791016"/>
       <use xlink:href="#DejaVuSans-31" x="568.070312"/>
       <use xlink:href="#DejaVuSans-32" x="631.693359"/>
       <use xlink:href="#DejaVuSans-38" x="695.316406"/>
       <use xlink:href="#DejaVuSans-37" x="758.939453"/>
       <use xlink:href="#DejaVuSans-38" x="822.5625"/>
      </g>
     </g>
    </g>
    <g id="xtick_6">
     <g id="text_6">
      <!-- NFATC2 Up -->
      <g style="fill: #9467bd" transform="translate(421.595856 332.662209) rotate(-45) scale(0.12 -0.12)">
       <use xlink:href="#DejaVuSans-4e"/>
       <use xlink:href="#DejaVuSans-46" x="74.804688"/>
       <use xlink:href="#DejaVuSans-41" x="123.199219"/>
       <use xlink:href="#DejaVuSans-54" x="183.857422"/>
       <use xlink:href="#DejaVuSans-43" x="239.066406"/>
       <use xlink:href="#DejaVuSans-32" x="308.890625"/>
       <use xlink:href="#DejaVuSans-20" x="372.513672"/>
       <use xlink:href="#DejaVuSans-55" x="404.300781"/>
       <use xlink:href="#DejaVuSans-70" x="477.494141"/>
      </g>
     </g>
    </g>
    <g id="xtick_7">
     <g id="text_7">
      <!-- NFATC1 Down -->
      <g style="fill: #9467bd" transform="translate(427.006335 345.10773) rotate(-45) scale(0.12 -0.12)">
       <defs>
        <path id="DejaVuSans-77" d="M 269 3500 
L 844 3500 
L 1563 769 
L 2278 3500 
L 2956 3500 
L 3675 769 
L 4391 3500 
L 4966 3500 
L 4050 0 
L 3372 0 
L 2619 2869 
L 1863 0 
L 1184 0 
L 269 3500 
z
" transform="scale(0.015625)"/>
       </defs>
       <use xlink:href="#DejaVuSans-4e"/>
       <use xlink:href="#DejaVuSans-46" x="74.804688"/>
       <use xlink:href="#DejaVuSans-41" x="123.199219"/>
       <use xlink:href="#DejaVuSans-54" x="183.857422"/>
       <use xlink:href="#DejaVuSans-43" x="239.066406"/>
       <use xlink:href="#DejaVuSans-31" x="308.890625"/>
       <use xlink:href="#DejaVuSans-20" x="372.513672"/>
       <use xlink:href="#DejaVuSans-44" x="404.300781"/>
       <use xlink:href="#DejaVuSans-6f" x="481.302734"/>
       <use xlink:href="#DejaVuSans-77" x="542.484375"/>
       <use xlink:href="#DejaVuSans-6e" x="624.271484"/>
      </g>
     </g>
    </g>
    <g id="xtick_8">
     <g id="text_8">
      <!-- NFATC2 Down -->
      <g style="fill: #1f77b4" transform="translate(444.862335 345.10773) rotate(-45) scale(0.12 -0.12)">
       <use xlink:href="#DejaVuSans-4e"/>
       <use xlink:href="#DejaVuSans-46" x="74.804688"/>
       <use xlink:href="#DejaVuSans-41" x="123.199219"/>
       <use xlink:href="#DejaVuSans-54" x="183.857422"/>
       <use xlink:href="#DejaVuSans-43" x="239.066406"/>
       <use xlink:href="#DejaVuSans-32" x="308.890625"/>
       <use xlink:href="#DejaVuSans-20" x="372.513672"/>
       <use xlink:href="#DejaVuSans-44" x="404.300781"/>
       <use xlink:href="#DejaVuSans-6f" x="481.302734"/>
       <use xlink:href="#DejaVuSans-77" x="542.484375"/>
       <use xlink:href="#DejaVuSans-6e" x="624.271484"/>
      </g>
     </g>
    </g>
    <g id="xtick_9">
     <g id="text_9">
      <!-- NFATC2 -->
      <g style="fill: #ff7f0e" transform="translate(489.457578 318.368487) rotate(-45) scale(0.12 -0.12)">
       <use xlink:href="#DejaVuSans-4e"/>
       <use xlink:href="#DejaVuSans-46" x="74.804688"/>
       <use xlink:href="#DejaVuSans-41" x="123.199219"/>
       <use xlink:href="#DejaVuSans-54" x="183.857422"/>
       <use xlink:href="#DejaVuSans-43" x="239.066406"/>
       <use xlink:href="#DejaVuSans-32" x="308.890625"/>
      </g>
     </g>
    </g>
    <g id="xtick_10">
     <g id="text_10">
      <!-- NFATC1 -->
      <g style="fill: #ff7f0e" transform="translate(507.313578 318.368487) rotate(-45) scale(0.12 -0.12)">
       <use xlink:href="#DejaVuSans-4e"/>
       <use xlink:href="#DejaVuSans-46" x="74.804688"/>
       <use xlink:href="#DejaVuSans-41" x="123.199219"/>
       <use xlink:href="#DejaVuSans-54" x="183.857422"/>
       <use xlink:href="#DejaVuSans-43" x="239.066406"/>
       <use xlink:href="#DejaVuSans-31" x="308.890625"/>
      </g>
     </g>
    </g>
    <g id="xtick_11">
     <g id="text_11">
      <!-- NFATC2 human tf ARCHS4 coexpression -->
      <g style="fill: #2ca02c" transform="translate(388.478324 455.059741) rotate(-45) scale(0.12 -0.12)">
       <defs>
        <path id="DejaVuSans-52" d="M 2841 2188 
Q 3044 2119 3236 1894 
Q 3428 1669 3622 1275 
L 4263 0 
L 3584 0 
L 2988 1197 
Q 2756 1666 2539 1819 
Q 2322 1972 1947 1972 
L 1259 1972 
L 1259 0 
L 628 0 
L 628 4666 
L 2053 4666 
Q 2853 4666 3247 4331 
Q 3641 3997 3641 3322 
Q 3641 2881 3436 2590 
Q 3231 2300 2841 2188 
z
M 1259 4147 
L 1259 2491 
L 2053 2491 
Q 2509 2491 2742 2702 
Q 2975 2913 2975 3322 
Q 2975 3731 2742 3939 
Q 2509 4147 2053 4147 
L 1259 4147 
z
" transform="scale(0.015625)"/>
        <path id="DejaVuSans-48" d="M 628 4666 
L 1259 4666 
L 1259 2753 
L 3553 2753 
L 3553 4666 
L 4184 4666 
L 4184 0 
L 3553 0 
L 3553 2222 
L 1259 2222 
L 1259 0 
L 628 0 
L 628 4666 
z
" transform="scale(0.015625)"/>
        <path id="DejaVuSans-78" d="M 3513 3500 
L 2247 1797 
L 3578 0 
L 2900 0 
L 1881 1375 
L 863 0 
L 184 0 
L 1544 1831 
L 300 3500 
L 978 3500 
L 1906 2253 
L 2834 3500 
L 3513 3500 
z
" transform="scale(0.015625)"/>
       </defs>
       <use xlink:href="#DejaVuSans-4e"/>
       <use xlink:href="#DejaVuSans-46" x="74.804688"/>
       <use xlink:href="#DejaVuSans-41" x="123.199219"/>
       <use xlink:href="#DejaVuSans-54" x="183.857422"/>
       <use xlink:href="#DejaVuSans-43" x="239.066406"/>
       <use xlink:href="#DejaVuSans-32" x="308.890625"/>
       <use xlink:href="#DejaVuSans-20" x="372.513672"/>
       <use xlink:href="#DejaVuSans-68" x="404.300781"/>
       <use xlink:href="#DejaVuSans-75" x="467.679688"/>
       <use xlink:href="#DejaVuSans-6d" x="531.058594"/>
       <use xlink:href="#DejaVuSans-61" x="628.470703"/>
       <use xlink:href="#DejaVuSans-6e" x="689.75"/>
       <use xlink:href="#DejaVuSans-20" x="753.128906"/>
       <use xlink:href="#DejaVuSans-74" x="784.916016"/>
       <use xlink:href="#DejaVuSans-66" x="824.125"/>
       <use xlink:href="#DejaVuSans-20" x="859.330078"/>
       <use xlink:href="#DejaVuSans-41" x="891.117188"/>
       <use xlink:href="#DejaVuSans-52" x="959.525391"/>
       <use xlink:href="#DejaVuSans-43" x="1024.007812"/>
       <use xlink:href="#DejaVuSans-48" x="1093.832031"/>
       <use xlink:href="#DejaVuSans-53" x="1169.027344"/>
       <use xlink:href="#DejaVuSans-34" x="1232.503906"/>
       <use xlink:href="#DejaVuSans-20" x="1296.126953"/>
       <use xlink:href="#DejaVuSans-63" x="1327.914062"/>
       <use xlink:href="#DejaVuSans-6f" x="1382.894531"/>
       <use xlink:href="#DejaVuSans-65" x="1444.076172"/>
       <use xlink:href="#DejaVuSans-78" x="1503.849609"/>
       <use xlink:href="#DejaVuSans-70" x="1563.029297"/>
       <use xlink:href="#DejaVuSans-72" x="1626.505859"/>
       <use xlink:href="#DejaVuSans-65" x="1665.369141"/>
       <use xlink:href="#DejaVuSans-73" x="1726.892578"/>
       <use xlink:href="#DejaVuSans-73" x="1778.992188"/>
       <use xlink:href="#DejaVuSans-69" x="1831.091797"/>
       <use xlink:href="#DejaVuSans-6f" x="1858.875"/>
       <use xlink:href="#DejaVuSans-6e" x="1920.056641"/>
      </g>
     </g>
    </g>
    <g id="xtick_12">
     <g id="text_12">
      <!-- NFATC1 human tf ARCHS4 coexpression -->
      <g style="fill: #8c564b" transform="translate(406.334324 455.059741) rotate(-45) scale(0.12 -0.12)">
       <use xlink:href="#DejaVuSans-4e"/>
       <use xlink:href="#DejaVuSans-46" x="74.804688"/>
       <use xlink:href="#DejaVuSans-41" x="123.199219"/>
       <use xlink:href="#DejaVuSans-54" x="183.857422"/>
       <use xlink:href="#DejaVuSans-43" x="239.066406"/>
       <use xlink:href="#DejaVuSans-31" x="308.890625"/>
       <use xlink:href="#DejaVuSans-20" x="372.513672"/>
       <use xlink:href="#DejaVuSans-68" x="404.300781"/>
       <use xlink:href="#DejaVuSans-75" x="467.679688"/>
       <use xlink:href="#DejaVuSans-6d" x="531.058594"/>
       <use xlink:href="#DejaVuSans-61" x="628.470703"/>
       <use xlink:href="#DejaVuSans-6e" x="689.75"/>
       <use xlink:href="#DejaVuSans-20" x="753.128906"/>
       <use xlink:href="#DejaVuSans-74" x="784.916016"/>
       <use xlink:href="#DejaVuSans-66" x="824.125"/>
       <use xlink:href="#DejaVuSans-20" x="859.330078"/>
       <use xlink:href="#DejaVuSans-41" x="891.117188"/>
       <use xlink:href="#DejaVuSans-52" x="959.525391"/>
       <use xlink:href="#DejaVuSans-43" x="1024.007812"/>
       <use xlink:href="#DejaVuSans-48" x="1093.832031"/>
       <use xlink:href="#DejaVuSans-53" x="1169.027344"/>
       <use xlink:href="#DejaVuSans-34" x="1232.503906"/>
       <use xlink:href="#DejaVuSans-20" x="1296.126953"/>
       <use xlink:href="#DejaVuSans-63" x="1327.914062"/>
       <use xlink:href="#DejaVuSans-6f" x="1382.894531"/>
       <use xlink:href="#DejaVuSans-65" x="1444.076172"/>
       <use xlink:href="#DejaVuSans-78" x="1503.849609"/>
       <use xlink:href="#DejaVuSans-70" x="1563.029297"/>
       <use xlink:href="#DejaVuSans-72" x="1626.505859"/>
       <use xlink:href="#DejaVuSans-65" x="1665.369141"/>
       <use xlink:href="#DejaVuSans-73" x="1726.892578"/>
       <use xlink:href="#DejaVuSans-73" x="1778.992188"/>
       <use xlink:href="#DejaVuSans-69" x="1831.091797"/>
       <use xlink:href="#DejaVuSans-6f" x="1858.875"/>
       <use xlink:href="#DejaVuSans-6e" x="1920.056641"/>
      </g>
     </g>
    </g>
    <g id="xtick_13">
     <g id="text_13">
      <!-- TNFRSF5/13B -&gt; NFATC1 Signaling -->
      <g style="fill: #e377c2" transform="translate(445.981587 433.268478) rotate(-45) scale(0.12 -0.12)">
       <defs>
        <path id="DejaVuSans-35" d="M 691 4666 
L 3169 4666 
L 3169 4134 
L 1269 4134 
L 1269 2991 
Q 1406 3038 1543 3061 
Q 1681 3084 1819 3084 
Q 2600 3084 3056 2656 
Q 3513 2228 3513 1497 
Q 3513 744 3044 326 
Q 2575 -91 1722 -91 
Q 1428 -91 1123 -41 
Q 819 9 494 109 
L 494 744 
Q 775 591 1075 516 
Q 1375 441 1709 441 
Q 2250 441 2565 725 
Q 2881 1009 2881 1497 
Q 2881 1984 2565 2268 
Q 2250 2553 1709 2553 
Q 1456 2553 1204 2497 
Q 953 2441 691 2322 
L 691 4666 
z
" transform="scale(0.015625)"/>
        <path id="DejaVuSans-2f" d="M 1625 4666 
L 2156 4666 
L 531 -594 
L 0 -594 
L 1625 4666 
z
" transform="scale(0.015625)"/>
        <path id="DejaVuSans-42" d="M 1259 2228 
L 1259 519 
L 2272 519 
Q 2781 519 3026 730 
Q 3272 941 3272 1375 
Q 3272 1813 3026 2020 
Q 2781 2228 2272 2228 
L 1259 2228 
z
M 1259 4147 
L 1259 2741 
L 2194 2741 
Q 2656 2741 2882 2914 
Q 3109 3088 3109 3444 
Q 3109 3797 2882 3972 
Q 2656 4147 2194 4147 
L 1259 4147 
z
M 628 4666 
L 2241 4666 
Q 2963 4666 3353 4366 
Q 3744 4066 3744 3513 
Q 3744 3084 3544 2831 
Q 3344 2578 2956 2516 
Q 3422 2416 3680 2098 
Q 3938 1781 3938 1306 
Q 3938 681 3513 340 
Q 3088 0 2303 0 
L 628 0 
L 628 4666 
z
" transform="scale(0.015625)"/>
        <path id="DejaVuSans-2d" d="M 313 2009 
L 1997 2009 
L 1997 1497 
L 313 1497 
L 313 2009 
z
" transform="scale(0.015625)"/>
        <path id="DejaVuSans-3e" d="M 678 3150 
L 678 3719 
L 4684 2266 
L 4684 1747 
L 678 294 
L 678 863 
L 3897 2003 
L 678 3150 
z
" transform="scale(0.015625)"/>
       </defs>
       <use xlink:href="#DejaVuSans-54"/>
       <use xlink:href="#DejaVuSans-4e" x="61.083984"/>
       <use xlink:href="#DejaVuSans-46" x="135.888672"/>
       <use xlink:href="#DejaVuSans-52" x="193.408203"/>
       <use xlink:href="#DejaVuSans-53" x="262.890625"/>
       <use xlink:href="#DejaVuSans-46" x="326.367188"/>
       <use xlink:href="#DejaVuSans-35" x="383.886719"/>
       <use xlink:href="#DejaVuSans-2f" x="447.509766"/>
       <use xlink:href="#DejaVuSans-31" x="481.201172"/>
       <use xlink:href="#DejaVuSans-33" x="544.824219"/>
       <use xlink:href="#DejaVuSans-42" x="608.447266"/>
       <use xlink:href="#DejaVuSans-20" x="677.050781"/>
       <use xlink:href="#DejaVuSans-2d" x="708.837891"/>
       <use xlink:href="#DejaVuSans-3e" x="744.921875"/>
       <use xlink:href="#DejaVuSans-20" x="828.710938"/>
       <use xlink:href="#DejaVuSans-4e" x="860.498047"/>
       <use xlink:href="#DejaVuSans-46" x="935.302734"/>
       <use xlink:href="#DejaVuSans-41" x="983.697266"/>
       <use xlink:href="#DejaVuSans-54" x="1044.355469"/>
       <use xlink:href="#DejaVuSans-43" x="1099.564453"/>
       <use xlink:href="#DejaVuSans-31" x="1169.388672"/>
       <use xlink:href="#DejaVuSans-20" x="1233.011719"/>
       <use xlink:href="#DejaVuSans-53" x="1264.798828"/>
       <use xlink:href="#DejaVuSans-69" x="1328.275391"/>
       <use xlink:href="#DejaVuSans-67" x="1356.058594"/>
       <use xlink:href="#DejaVuSans-6e" x="1419.535156"/>
       <use xlink:href="#DejaVuSans-61" x="1482.914062"/>
       <use xlink:href="#DejaVuSans-6c" x="1544.193359"/>
       <use xlink:href="#DejaVuSans-69" x="1571.976562"/>
       <use xlink:href="#DejaVuSans-6e" x="1599.759766"/>
       <use xlink:href="#DejaVuSans-67" x="1663.138672"/>
      </g>
     </g>
    </g>
    <g id="xtick_14">
     <g id="text_14">
      <!-- CD2 -&gt; NFATC1 Signaling -->
      <g style="fill: #e377c2" transform="translate(503.430705 393.675359) rotate(-45) scale(0.12 -0.12)">
       <use xlink:href="#DejaVuSans-43"/>
       <use xlink:href="#DejaVuSans-44" x="69.824219"/>
       <use xlink:href="#DejaVuSans-32" x="146.826172"/>
       <use xlink:href="#DejaVuSans-20" x="210.449219"/>
       <use xlink:href="#DejaVuSans-2d" x="242.236328"/>
       <use xlink:href="#DejaVuSans-3e" x="278.320312"/>
       <use xlink:href="#DejaVuSans-20" x="362.109375"/>
       <use xlink:href="#DejaVuSans-4e" x="393.896484"/>
       <use xlink:href="#DejaVuSans-46" x="468.701172"/>
       <use xlink:href="#DejaVuSans-41" x="517.095703"/>
       <use xlink:href="#DejaVuSans-54" x="577.753906"/>
       <use xlink:href="#DejaVuSans-43" x="632.962891"/>
       <use xlink:href="#DejaVuSans-31" x="702.787109"/>
       <use xlink:href="#DejaVuSans-20" x="766.410156"/>
       <use xlink:href="#DejaVuSans-53" x="798.197266"/>
       <use xlink:href="#DejaVuSans-69" x="861.673828"/>
       <use xlink:href="#DejaVuSans-67" x="889.457031"/>
       <use xlink:href="#DejaVuSans-6e" x="952.933594"/>
       <use xlink:href="#DejaVuSans-61" x="1016.3125"/>
       <use xlink:href="#DejaVuSans-6c" x="1077.591797"/>
       <use xlink:href="#DejaVuSans-69" x="1105.375"/>
       <use xlink:href="#DejaVuSans-6e" x="1133.158203"/>
       <use xlink:href="#DejaVuSans-67" x="1196.537109"/>
      </g>
     </g>
    </g>
    <g id="xtick_15">
     <g id="text_15">
      <!-- FcIgER -&gt; NFATC1 Signaling -->
      <g style="fill: #e377c2" transform="translate(510.450736 404.511329) rotate(-45) scale(0.12 -0.12)">
       <defs>
        <path id="DejaVuSans-49" d="M 628 4666 
L 1259 4666 
L 1259 0 
L 628 0 
L 628 4666 
z
" transform="scale(0.015625)"/>
       </defs>
       <use xlink:href="#DejaVuSans-46"/>
       <use xlink:href="#DejaVuSans-63" x="57.519531"/>
       <use xlink:href="#DejaVuSans-49" x="112.5"/>
       <use xlink:href="#DejaVuSans-67" x="141.992188"/>
       <use xlink:href="#DejaVuSans-45" x="205.46875"/>
       <use xlink:href="#DejaVuSans-52" x="268.652344"/>
       <use xlink:href="#DejaVuSans-20" x="338.134766"/>
       <use xlink:href="#DejaVuSans-2d" x="369.921875"/>
       <use xlink:href="#DejaVuSans-3e" x="406.005859"/>
       <use xlink:href="#DejaVuSans-20" x="489.794922"/>
       <use xlink:href="#DejaVuSans-4e" x="521.582031"/>
       <use xlink:href="#DejaVuSans-46" x="596.386719"/>
       <use xlink:href="#DejaVuSans-41" x="644.78125"/>
       <use xlink:href="#DejaVuSans-54" x="705.439453"/>
       <use xlink:href="#DejaVuSans-43" x="760.648438"/>
       <use xlink:href="#DejaVuSans-31" x="830.472656"/>
       <use xlink:href="#DejaVuSans-20" x="894.095703"/>
       <use xlink:href="#DejaVuSans-53" x="925.882812"/>
       <use xlink:href="#DejaVuSans-69" x="989.359375"/>
       <use xlink:href="#DejaVuSans-67" x="1017.142578"/>
       <use xlink:href="#DejaVuSans-6e" x="1080.619141"/>
       <use xlink:href="#DejaVuSans-61" x="1143.998047"/>
       <use xlink:href="#DejaVuSans-6c" x="1205.277344"/>
       <use xlink:href="#DejaVuSans-69" x="1233.060547"/>
       <use xlink:href="#DejaVuSans-6e" x="1260.84375"/>
       <use xlink:href="#DejaVuSans-67" x="1324.222656"/>
      </g>
     </g>
    </g>
    <g id="xtick_16">
     <g id="text_16">
      <!-- NFATC2 (human) -->
      <g style="fill: #9467bd" transform="translate(575.533956 357.284109) rotate(-45) scale(0.12 -0.12)">
       <defs>
        <path id="DejaVuSans-28" d="M 1984 4856 
Q 1566 4138 1362 3434 
Q 1159 2731 1159 2009 
Q 1159 1288 1364 580 
Q 1569 -128 1984 -844 
L 1484 -844 
Q 1016 -109 783 600 
Q 550 1309 550 2009 
Q 550 2706 781 3412 
Q 1013 4119 1484 4856 
L 1984 4856 
z
" transform="scale(0.015625)"/>
        <path id="DejaVuSans-29" d="M 513 4856 
L 1013 4856 
Q 1481 4119 1714 3412 
Q 1947 2706 1947 2009 
Q 1947 1309 1714 600 
Q 1481 -109 1013 -844 
L 513 -844 
Q 928 -128 1133 580 
Q 1338 1288 1338 2009 
Q 1338 2731 1133 3434 
Q 928 4138 513 4856 
z
" transform="scale(0.015625)"/>
       </defs>
       <use xlink:href="#DejaVuSans-4e"/>
       <use xlink:href="#DejaVuSans-46" x="74.804688"/>
       <use xlink:href="#DejaVuSans-41" x="123.199219"/>
       <use xlink:href="#DejaVuSans-54" x="183.857422"/>
       <use xlink:href="#DejaVuSans-43" x="239.066406"/>
       <use xlink:href="#DejaVuSans-32" x="308.890625"/>
       <use xlink:href="#DejaVuSans-20" x="372.513672"/>
       <use xlink:href="#DejaVuSans-28" x="404.300781"/>
       <use xlink:href="#DejaVuSans-68" x="443.314453"/>
       <use xlink:href="#DejaVuSans-75" x="506.693359"/>
       <use xlink:href="#DejaVuSans-6d" x="570.072266"/>
       <use xlink:href="#DejaVuSans-61" x="667.484375"/>
       <use xlink:href="#DejaVuSans-6e" x="728.763672"/>
       <use xlink:href="#DejaVuSans-29" x="792.142578"/>
      </g>
     </g>
    </g>
    <g id="xtick_17">
     <g id="text_17">
      <!-- NFATC2 human -->
      <g style="fill: #9467bd" transform="translate(600.011127 350.662938) rotate(-45) scale(0.12 -0.12)">
       <use xlink:href="#DejaVuSans-4e"/>
       <use xlink:href="#DejaVuSans-46" x="74.804688"/>
       <use xlink:href="#DejaVuSans-41" x="123.199219"/>
       <use xlink:href="#DejaVuSans-54" x="183.857422"/>
       <use xlink:href="#DejaVuSans-43" x="239.066406"/>
       <use xlink:href="#DejaVuSans-32" x="308.890625"/>
       <use xlink:href="#DejaVuSans-20" x="372.513672"/>
       <use xlink:href="#DejaVuSans-68" x="404.300781"/>
       <use xlink:href="#DejaVuSans-75" x="467.679688"/>
       <use xlink:href="#DejaVuSans-6d" x="531.058594"/>
       <use xlink:href="#DejaVuSans-61" x="628.470703"/>
       <use xlink:href="#DejaVuSans-6e" x="689.75"/>
      </g>
     </g>
    </g>
    <g id="xtick_18">
     <g id="text_18">
      <!-- NFATC1 human -->
      <g style="fill: #7f7f7f" transform="translate(617.867127 350.662938) rotate(-45) scale(0.12 -0.12)">
       <use xlink:href="#DejaVuSans-4e"/>
       <use xlink:href="#DejaVuSans-46" x="74.804688"/>
       <use xlink:href="#DejaVuSans-41" x="123.199219"/>
       <use xlink:href="#DejaVuSans-54" x="183.857422"/>
       <use xlink:href="#DejaVuSans-43" x="239.066406"/>
       <use xlink:href="#DejaVuSans-31" x="308.890625"/>
       <use xlink:href="#DejaVuSans-20" x="372.513672"/>
       <use xlink:href="#DejaVuSans-68" x="404.300781"/>
       <use xlink:href="#DejaVuSans-75" x="467.679688"/>
       <use xlink:href="#DejaVuSans-6d" x="531.058594"/>
       <use xlink:href="#DejaVuSans-61" x="628.470703"/>
       <use xlink:href="#DejaVuSans-6e" x="689.75"/>
      </g>
     </g>
    </g>
    <g id="xtick_19">
     <g id="text_19">
      <!-- NFATC2 mouse -->
      <g style="fill: #bcbd22" transform="translate(636.844775 349.541289) rotate(-45) scale(0.12 -0.12)">
       <use xlink:href="#DejaVuSans-4e"/>
       <use xlink:href="#DejaVuSans-46" x="74.804688"/>
       <use xlink:href="#DejaVuSans-41" x="123.199219"/>
       <use xlink:href="#DejaVuSans-54" x="183.857422"/>
       <use xlink:href="#DejaVuSans-43" x="239.066406"/>
       <use xlink:href="#DejaVuSans-32" x="308.890625"/>
       <use xlink:href="#DejaVuSans-20" x="372.513672"/>
       <use xlink:href="#DejaVuSans-6d" x="404.300781"/>
       <use xlink:href="#DejaVuSans-6f" x="501.712891"/>
       <use xlink:href="#DejaVuSans-75" x="562.894531"/>
       <use xlink:href="#DejaVuSans-73" x="626.273438"/>
       <use xlink:href="#DejaVuSans-65" x="678.373047"/>
      </g>
     </g>
    </g>
    <g id="xtick_20">
     <g id="text_20">
      <!-- NFATC1 mouse -->
      <g style="fill: #bcbd22" transform="translate(654.700775 349.541289) rotate(-45) scale(0.12 -0.12)">
       <use xlink:href="#DejaVuSans-4e"/>
       <use xlink:href="#DejaVuSans-46" x="74.804688"/>
       <use xlink:href="#DejaVuSans-41" x="123.199219"/>
       <use xlink:href="#DejaVuSans-54" x="183.857422"/>
       <use xlink:href="#DejaVuSans-43" x="239.066406"/>
       <use xlink:href="#DejaVuSans-31" x="308.890625"/>
       <use xlink:href="#DejaVuSans-20" x="372.513672"/>
       <use xlink:href="#DejaVuSans-6d" x="404.300781"/>
       <use xlink:href="#DejaVuSans-6f" x="501.712891"/>
       <use xlink:href="#DejaVuSans-75" x="562.894531"/>
       <use xlink:href="#DejaVuSans-73" x="626.273438"/>
       <use xlink:href="#DejaVuSans-65" x="678.373047"/>
      </g>
     </g>
    </g>
   </g>
   <g id="matplotlib.axis_2">
    <g id="ytick_1">
     <g id="line2d_1">
      <defs>
       <path id="ma266bb3679" d="M 0 0 
L -3.5 0 
" style="stroke: #000000; stroke-width: 0.8"/>
      </defs>
      <g>
       <use xlink:href="#ma266bb3679" x="371.05525" y="273.312" style="stroke: #000000; stroke-width: 0.8"/>
      </g>
     </g>
     <g id="text_21">
      <!-- 0.0 -->
      <g transform="translate(348.152125 277.111219) scale(0.1 -0.1)">
       <defs>
        <path id="DejaVuSans-2e" d="M 684 794 
L 1344 794 
L 1344 0 
L 684 0 
L 684 794 
z
" transform="scale(0.015625)"/>
       </defs>
       <use xlink:href="#DejaVuSans-30"/>
       <use xlink:href="#DejaVuSans-2e" x="63.623047"/>
       <use xlink:href="#DejaVuSans-30" x="95.410156"/>
      </g>
     </g>
    </g>
    <g id="ytick_2">
     <g id="line2d_2">
      <g>
       <use xlink:href="#ma266bb3679" x="371.05525" y="222.512877" style="stroke: #000000; stroke-width: 0.8"/>
      </g>
     </g>
     <g id="text_22">
      <!-- 0.2 -->
      <g transform="translate(348.152125 226.312096) scale(0.1 -0.1)">
       <use xlink:href="#DejaVuSans-30"/>
       <use xlink:href="#DejaVuSans-2e" x="63.623047"/>
       <use xlink:href="#DejaVuSans-32" x="95.410156"/>
      </g>
     </g>
    </g>
    <g id="ytick_3">
     <g id="line2d_3">
      <g>
       <use xlink:href="#ma266bb3679" x="371.05525" y="171.713754" style="stroke: #000000; stroke-width: 0.8"/>
      </g>
     </g>
     <g id="text_23">
      <!-- 0.4 -->
      <g transform="translate(348.152125 175.512973) scale(0.1 -0.1)">
       <use xlink:href="#DejaVuSans-30"/>
       <use xlink:href="#DejaVuSans-2e" x="63.623047"/>
       <use xlink:href="#DejaVuSans-34" x="95.410156"/>
      </g>
     </g>
    </g>
    <g id="ytick_4">
     <g id="line2d_4">
      <g>
       <use xlink:href="#ma266bb3679" x="371.05525" y="120.914631" style="stroke: #000000; stroke-width: 0.8"/>
      </g>
     </g>
     <g id="text_24">
      <!-- 0.6 -->
      <g transform="translate(348.152125 124.71385) scale(0.1 -0.1)">
       <defs>
        <path id="DejaVuSans-36" d="M 2113 2584 
Q 1688 2584 1439 2293 
Q 1191 2003 1191 1497 
Q 1191 994 1439 701 
Q 1688 409 2113 409 
Q 2538 409 2786 701 
Q 3034 994 3034 1497 
Q 3034 2003 2786 2293 
Q 2538 2584 2113 2584 
z
M 3366 4563 
L 3366 3988 
Q 3128 4100 2886 4159 
Q 2644 4219 2406 4219 
Q 1781 4219 1451 3797 
Q 1122 3375 1075 2522 
Q 1259 2794 1537 2939 
Q 1816 3084 2150 3084 
Q 2853 3084 3261 2657 
Q 3669 2231 3669 1497 
Q 3669 778 3244 343 
Q 2819 -91 2113 -91 
Q 1303 -91 875 529 
Q 447 1150 447 2328 
Q 447 3434 972 4092 
Q 1497 4750 2381 4750 
Q 2619 4750 2861 4703 
Q 3103 4656 3366 4563 
z
" transform="scale(0.015625)"/>
       </defs>
       <use xlink:href="#DejaVuSans-30"/>
       <use xlink:href="#DejaVuSans-2e" x="63.623047"/>
       <use xlink:href="#DejaVuSans-36" x="95.410156"/>
      </g>
     </g>
    </g>
    <g id="ytick_5">
     <g id="line2d_5">
      <g>
       <use xlink:href="#ma266bb3679" x="371.05525" y="70.115508" style="stroke: #000000; stroke-width: 0.8"/>
      </g>
     </g>
     <g id="text_25">
      <!-- 0.8 -->
      <g transform="translate(348.152125 73.914726) scale(0.1 -0.1)">
       <use xlink:href="#DejaVuSans-30"/>
       <use xlink:href="#DejaVuSans-2e" x="63.623047"/>
       <use xlink:href="#DejaVuSans-38" x="95.410156"/>
      </g>
     </g>
    </g>
    <g id="ytick_6">
     <g id="line2d_6">
      <g>
       <use xlink:href="#ma266bb3679" x="371.05525" y="19.316385" style="stroke: #000000; stroke-width: 0.8"/>
      </g>
     </g>
     <g id="text_26">
      <!-- 1.0 -->
      <g transform="translate(348.152125 23.115603) scale(0.1 -0.1)">
       <use xlink:href="#DejaVuSans-31"/>
       <use xlink:href="#DejaVuSans-2e" x="63.623047"/>
       <use xlink:href="#DejaVuSans-30" x="95.410156"/>
      </g>
     </g>
    </g>
   </g>
   <g id="LineCollection_1">
    <path d="M 433.55125 273.312 
L 433.55125 85.355245 
L 451.40725 85.355245 
L 451.40725 273.312 
" clip-path="url(#paebe37a135)" style="fill: none; stroke: #ff7f0e; stroke-width: 1.5"/>
   </g>
   <g id="LineCollection_2">
    <path d="M 522.83125 273.312 
L 522.83125 153.934061 
L 540.68725 153.934061 
L 540.68725 273.312 
" clip-path="url(#paebe37a135)" style="fill: none; stroke: #2ca02c; stroke-width: 1.5"/>
   </g>
   <g id="LineCollection_3">
    <path d="M 558.54325 273.312 
L 558.54325 92.975113 
L 576.39925 92.975113 
L 576.39925 273.312 
" clip-path="url(#paebe37a135)" style="fill: none; stroke: #d62728; stroke-width: 1.5"/>
   </g>
   <g id="LineCollection_4">
    <path d="M 612.11125 273.312 
L 612.11125 146.314192 
L 629.96725 146.314192 
L 629.96725 273.312 
" clip-path="url(#paebe37a135)" style="fill: none; stroke: #9467bd; stroke-width: 1.5"/>
   </g>
   <g id="LineCollection_5">
    <path d="M 665.67925 273.312 
L 665.67925 87.895201 
L 683.53525 87.895201 
L 683.53525 273.312 
" clip-path="url(#paebe37a135)" style="fill: none; stroke: #8c564b; stroke-width: 1.5"/>
   </g>
   <g id="LineCollection_6">
    <path d="M 701.39125 273.312 
L 701.39125 72.655464 
L 719.24725 72.655464 
L 719.24725 273.312 
" clip-path="url(#paebe37a135)" style="fill: none; stroke: #e377c2; stroke-width: 1.5"/>
   </g>
   <g id="LineCollection_7">
    <path d="M 397.83925 273.312 
L 397.83925 24.396297 
L 415.69525 24.396297 
L 415.69525 273.312 
" clip-path="url(#paebe37a135)" style="fill: none; stroke: #1f77b4; stroke-width: 1.5"/>
    <path d="M 379.98325 273.312 
L 379.98325 23.126319 
L 406.76725 23.126319 
L 406.76725 24.396297 
" clip-path="url(#paebe37a135)" style="fill: none; stroke: #1f77b4; stroke-width: 1.5"/>
    <path d="M 469.26325 273.312 
L 469.26325 29.476209 
L 487.11925 29.476209 
L 487.11925 273.312 
" clip-path="url(#paebe37a135)" style="fill: none; stroke: #1f77b4; stroke-width: 1.5"/>
    <path d="M 531.75925 153.934061 
L 531.75925 30.746187 
L 567.47125 30.746187 
L 567.47125 92.975113 
" clip-path="url(#paebe37a135)" style="fill: none; stroke: #1f77b4; stroke-width: 1.5"/>
    <path d="M 504.97525 273.312 
L 504.97525 25.666275 
L 549.61525 25.666275 
L 549.61525 30.746187 
" clip-path="url(#paebe37a135)" style="fill: none; stroke: #1f77b4; stroke-width: 1.5"/>
    <path d="M 478.19125 29.476209 
L 478.19125 22.872323 
L 527.29525 22.872323 
L 527.29525 25.666275 
" clip-path="url(#paebe37a135)" style="fill: none; stroke: #1f77b4; stroke-width: 1.5"/>
    <path d="M 442.47925 85.355245 
L 442.47925 22.400617 
L 502.74325 22.400617 
L 502.74325 22.872323 
" clip-path="url(#paebe37a135)" style="fill: none; stroke: #1f77b4; stroke-width: 1.5"/>
    <path d="M 393.37525 23.126319 
L 393.37525 22.326703 
L 472.61125 22.326703 
L 472.61125 22.400617 
" clip-path="url(#paebe37a135)" style="fill: none; stroke: #1f77b4; stroke-width: 1.5"/>
    <path d="M 594.25525 273.312 
L 594.25525 32.016165 
L 621.03925 32.016165 
L 621.03925 146.314192 
" clip-path="url(#paebe37a135)" style="fill: none; stroke: #1f77b4; stroke-width: 1.5"/>
    <path d="M 674.60725 87.895201 
L 674.60725 38.366056 
L 710.31925 38.366056 
L 710.31925 72.655464 
" clip-path="url(#paebe37a135)" style="fill: none; stroke: #1f77b4; stroke-width: 1.5"/>
    <path d="M 647.82325 273.312 
L 647.82325 24.396297 
L 692.46325 24.396297 
L 692.46325 38.366056 
" clip-path="url(#paebe37a135)" style="fill: none; stroke: #1f77b4; stroke-width: 1.5"/>
    <path d="M 607.64725 32.016165 
L 607.64725 21.009689 
L 670.14325 21.009689 
L 670.14325 24.396297 
" clip-path="url(#paebe37a135)" style="fill: none; stroke: #1f77b4; stroke-width: 1.5"/>
    <path d="M 432.99325 22.326703 
L 432.99325 19.872 
L 638.89525 19.872 
L 638.89525 21.009689 
" clip-path="url(#paebe37a135)" style="fill: none; stroke: #1f77b4; stroke-width: 1.5"/>
   </g>
   <g id="patch_3">
    <path d="M 371.05525 273.312 
L 371.05525 7.2 
" style="fill: none; stroke: #000000; stroke-width: 0.8; stroke-linejoin: miter; stroke-linecap: square"/>
   </g>
   <g id="patch_4">
    <path d="M 728.17525 273.312 
L 728.17525 7.2 
" style="fill: none; stroke: #000000; stroke-width: 0.8; stroke-linejoin: miter; stroke-linecap: square"/>
   </g>
   <g id="patch_5">
    <path d="M 371.05525 273.312 
L 728.17525 273.312 
" style="fill: none; stroke: #000000; stroke-width: 0.8; stroke-linejoin: miter; stroke-linecap: square"/>
   </g>
   <g id="patch_6">
    <path d="M 371.05525 7.2 
L 728.17525 7.2 
" style="fill: none; stroke: #000000; stroke-width: 0.8; stroke-linejoin: miter; stroke-linecap: square"/>
   </g>
   <g id="legend_1">
    <g id="patch_7">
     <path d="M 9.2 164.484375 
L 292.63125 164.484375 
Q 294.63125 164.484375 294.63125 162.484375 
L 294.63125 14.2 
Q 294.63125 12.2 292.63125 12.2 
L 9.2 12.2 
Q 7.2 12.2 7.2 14.2 
L 7.2 162.484375 
Q 7.2 164.484375 9.2 164.484375 
z
" style="fill: #ffffff; opacity: 0.8; stroke: #cccccc; stroke-linejoin: miter"/>
    </g>
    <g id="text_27">
     <!-- Libraries -->
     <g transform="translate(129.321094 23.798437) scale(0.1 -0.1)">
      <defs>
       <path id="DejaVuSans-62" d="M 3116 1747 
Q 3116 2381 2855 2742 
Q 2594 3103 2138 3103 
Q 1681 3103 1420 2742 
Q 1159 2381 1159 1747 
Q 1159 1113 1420 752 
Q 1681 391 2138 391 
Q 2594 391 2855 752 
Q 3116 1113 3116 1747 
z
M 1159 2969 
Q 1341 3281 1617 3432 
Q 1894 3584 2278 3584 
Q 2916 3584 3314 3078 
Q 3713 2572 3713 1747 
Q 3713 922 3314 415 
Q 2916 -91 2278 -91 
Q 1894 -91 1617 61 
Q 1341 213 1159 525 
L 1159 0 
L 581 0 
L 581 4863 
L 1159 4863 
L 1159 2969 
z
" transform="scale(0.015625)"/>
      </defs>
      <use xlink:href="#DejaVuSans-4c"/>
      <use xlink:href="#DejaVuSans-69" x="55.712891"/>
      <use xlink:href="#DejaVuSans-62" x="83.496094"/>
      <use xlink:href="#DejaVuSans-72" x="146.972656"/>
      <use xlink:href="#DejaVuSans-61" x="188.085938"/>
      <use xlink:href="#DejaVuSans-72" x="249.365234"/>
      <use xlink:href="#DejaVuSans-69" x="290.478516"/>
      <use xlink:href="#DejaVuSans-65" x="318.261719"/>
      <use xlink:href="#DejaVuSans-73" x="379.785156"/>
     </g>
    </g>
    <g id="patch_8">
     <path d="M 11.2 38.476562 
L 31.2 38.476562 
L 31.2 31.476562 
L 11.2 31.476562 
z
" style="fill: #1f77b4; stroke: #1f77b4; stroke-linejoin: miter"/>
    </g>
    <g id="text_28">
     <!-- ARCHS4_TFs_Coexp -->
     <g transform="translate(39.2 38.476562) scale(0.1 -0.1)">
      <defs>
       <path id="DejaVuSans-5f" d="M 3263 -1063 
L 3263 -1509 
L -63 -1509 
L -63 -1063 
L 3263 -1063 
z
" transform="scale(0.015625)"/>
      </defs>
      <use xlink:href="#DejaVuSans-41"/>
      <use xlink:href="#DejaVuSans-52" x="68.408203"/>
      <use xlink:href="#DejaVuSans-43" x="132.890625"/>
      <use xlink:href="#DejaVuSans-48" x="202.714844"/>
      <use xlink:href="#DejaVuSans-53" x="277.910156"/>
      <use xlink:href="#DejaVuSans-34" x="341.386719"/>
      <use xlink:href="#DejaVuSans-5f" x="405.009766"/>
      <use xlink:href="#DejaVuSans-54" x="455.009766"/>
      <use xlink:href="#DejaVuSans-46" x="516.09375"/>
      <use xlink:href="#DejaVuSans-73" x="573.613281"/>
      <use xlink:href="#DejaVuSans-5f" x="625.712891"/>
      <use xlink:href="#DejaVuSans-43" x="675.712891"/>
      <use xlink:href="#DejaVuSans-6f" x="745.537109"/>
      <use xlink:href="#DejaVuSans-65" x="806.71875"/>
      <use xlink:href="#DejaVuSans-78" x="866.492188"/>
      <use xlink:href="#DejaVuSans-70" x="925.671875"/>
     </g>
    </g>
    <g id="patch_9">
     <path d="M 11.2 53.432813 
L 31.2 53.432813 
L 31.2 46.432813 
L 11.2 46.432813 
z
" style="fill: #ff7f0e; stroke: #ff7f0e; stroke-linejoin: miter"/>
    </g>
    <g id="text_29">
     <!-- TRRUST_Transcription_Factors_2019 -->
     <g transform="translate(39.2 53.432813) scale(0.1 -0.1)">
      <use xlink:href="#DejaVuSans-54"/>
      <use xlink:href="#DejaVuSans-52" x="61.083984"/>
      <use xlink:href="#DejaVuSans-52" x="130.566406"/>
      <use xlink:href="#DejaVuSans-55" x="200.048828"/>
      <use xlink:href="#DejaVuSans-53" x="273.242188"/>
      <use xlink:href="#DejaVuSans-54" x="336.71875"/>
      <use xlink:href="#DejaVuSans-5f" x="397.802734"/>
      <use xlink:href="#DejaVuSans-54" x="447.802734"/>
      <use xlink:href="#DejaVuSans-72" x="494.136719"/>
      <use xlink:href="#DejaVuSans-61" x="535.25"/>
      <use xlink:href="#DejaVuSans-6e" x="596.529297"/>
      <use xlink:href="#DejaVuSans-73" x="659.908203"/>
      <use xlink:href="#DejaVuSans-63" x="712.007812"/>
      <use xlink:href="#DejaVuSans-72" x="766.988281"/>
      <use xlink:href="#DejaVuSans-69" x="808.101562"/>
      <use xlink:href="#DejaVuSans-70" x="835.884766"/>
      <use xlink:href="#DejaVuSans-74" x="899.361328"/>
      <use xlink:href="#DejaVuSans-69" x="938.570312"/>
      <use xlink:href="#DejaVuSans-6f" x="966.353516"/>
      <use xlink:href="#DejaVuSans-6e" x="1027.535156"/>
      <use xlink:href="#DejaVuSans-5f" x="1090.914062"/>
      <use xlink:href="#DejaVuSans-46" x="1140.914062"/>
      <use xlink:href="#DejaVuSans-61" x="1189.308594"/>
      <use xlink:href="#DejaVuSans-63" x="1250.587891"/>
      <use xlink:href="#DejaVuSans-74" x="1305.568359"/>
      <use xlink:href="#DejaVuSans-6f" x="1344.777344"/>
      <use xlink:href="#DejaVuSans-72" x="1405.958984"/>
      <use xlink:href="#DejaVuSans-73" x="1447.072266"/>
      <use xlink:href="#DejaVuSans-5f" x="1499.171875"/>
      <use xlink:href="#DejaVuSans-32" x="1549.171875"/>
      <use xlink:href="#DejaVuSans-30" x="1612.794922"/>
      <use xlink:href="#DejaVuSans-31" x="1676.417969"/>
      <use xlink:href="#DejaVuSans-39" x="1740.041016"/>
     </g>
    </g>
    <g id="patch_10">
     <path d="M 11.2 68.389063 
L 31.2 68.389063 
L 31.2 61.389063 
L 11.2 61.389063 
z
" style="fill: #2ca02c; stroke: #2ca02c; stroke-linejoin: miter"/>
    </g>
    <g id="text_30">
     <!-- Enrichr_Submissions_TF-Gene_Coocurrence -->
     <g transform="translate(39.2 68.389063) scale(0.1 -0.1)">
      <use xlink:href="#DejaVuSans-45"/>
      <use xlink:href="#DejaVuSans-6e" x="63.183594"/>
      <use xlink:href="#DejaVuSans-72" x="126.5625"/>
      <use xlink:href="#DejaVuSans-69" x="167.675781"/>
      <use xlink:href="#DejaVuSans-63" x="195.458984"/>
      <use xlink:href="#DejaVuSans-68" x="250.439453"/>
      <use xlink:href="#DejaVuSans-72" x="313.818359"/>
      <use xlink:href="#DejaVuSans-5f" x="354.931641"/>
      <use xlink:href="#DejaVuSans-53" x="404.931641"/>
      <use xlink:href="#DejaVuSans-75" x="468.408203"/>
      <use xlink:href="#DejaVuSans-62" x="531.787109"/>
      <use xlink:href="#DejaVuSans-6d" x="595.263672"/>
      <use xlink:href="#DejaVuSans-69" x="692.675781"/>
      <use xlink:href="#DejaVuSans-73" x="720.458984"/>
      <use xlink:href="#DejaVuSans-73" x="772.558594"/>
      <use xlink:href="#DejaVuSans-69" x="824.658203"/>
      <use xlink:href="#DejaVuSans-6f" x="852.441406"/>
      <use xlink:href="#DejaVuSans-6e" x="913.623047"/>
      <use xlink:href="#DejaVuSans-73" x="977.001953"/>
      <use xlink:href="#DejaVuSans-5f" x="1029.101562"/>
      <use xlink:href="#DejaVuSans-54" x="1079.101562"/>
      <use xlink:href="#DejaVuSans-46" x="1140.185547"/>
      <use xlink:href="#DejaVuSans-2d" x="1197.705078"/>
      <use xlink:href="#DejaVuSans-47" x="1237.414062"/>
      <use xlink:href="#DejaVuSans-65" x="1314.904297"/>
      <use xlink:href="#DejaVuSans-6e" x="1376.427734"/>
      <use xlink:href="#DejaVuSans-65" x="1439.806641"/>
      <use xlink:href="#DejaVuSans-5f" x="1501.330078"/>
      <use xlink:href="#DejaVuSans-43" x="1551.330078"/>
      <use xlink:href="#DejaVuSans-6f" x="1621.154297"/>
      <use xlink:href="#DejaVuSans-6f" x="1682.335938"/>
      <use xlink:href="#DejaVuSans-63" x="1743.517578"/>
      <use xlink:href="#DejaVuSans-75" x="1798.498047"/>
      <use xlink:href="#DejaVuSans-72" x="1861.876953"/>
      <use xlink:href="#DejaVuSans-72" x="1901.240234"/>
      <use xlink:href="#DejaVuSans-65" x="1940.103516"/>
      <use xlink:href="#DejaVuSans-6e" x="2001.626953"/>
      <use xlink:href="#DejaVuSans-63" x="2065.005859"/>
      <use xlink:href="#DejaVuSans-65" x="2119.986328"/>
     </g>
    </g>
    <g id="patch_11">
     <path d="M 11.2 83.345312 
L 31.2 83.345312 
L 31.2 76.345312 
L 11.2 76.345312 
z
" style="fill: #d62728; stroke: #d62728; stroke-linejoin: miter"/>
    </g>
    <g id="text_31">
     <!-- TRANSFAC_and_JASPAR_PWMs -->
     <g transform="translate(39.2 83.345312) scale(0.1 -0.1)">
      <defs>
       <path id="DejaVuSans-64" d="M 2906 2969 
L 2906 4863 
L 3481 4863 
L 3481 0 
L 2906 0 
L 2906 525 
Q 2725 213 2448 61 
Q 2172 -91 1784 -91 
Q 1150 -91 751 415 
Q 353 922 353 1747 
Q 353 2572 751 3078 
Q 1150 3584 1784 3584 
Q 2172 3584 2448 3432 
Q 2725 3281 2906 2969 
z
M 947 1747 
Q 947 1113 1208 752 
Q 1469 391 1925 391 
Q 2381 391 2643 752 
Q 2906 1113 2906 1747 
Q 2906 2381 2643 2742 
Q 2381 3103 1925 3103 
Q 1469 3103 1208 2742 
Q 947 2381 947 1747 
z
" transform="scale(0.015625)"/>
       <path id="DejaVuSans-4a" d="M 628 4666 
L 1259 4666 
L 1259 325 
Q 1259 -519 939 -900 
Q 619 -1281 -91 -1281 
L -331 -1281 
L -331 -750 
L -134 -750 
Q 284 -750 456 -515 
Q 628 -281 628 325 
L 628 4666 
z
" transform="scale(0.015625)"/>
       <path id="DejaVuSans-50" d="M 1259 4147 
L 1259 2394 
L 2053 2394 
Q 2494 2394 2734 2622 
Q 2975 2850 2975 3272 
Q 2975 3691 2734 3919 
Q 2494 4147 2053 4147 
L 1259 4147 
z
M 628 4666 
L 2053 4666 
Q 2838 4666 3239 4311 
Q 3641 3956 3641 3272 
Q 3641 2581 3239 2228 
Q 2838 1875 2053 1875 
L 1259 1875 
L 1259 0 
L 628 0 
L 628 4666 
z
" transform="scale(0.015625)"/>
       <path id="DejaVuSans-57" d="M 213 4666 
L 850 4666 
L 1831 722 
L 2809 4666 
L 3519 4666 
L 4500 722 
L 5478 4666 
L 6119 4666 
L 4947 0 
L 4153 0 
L 3169 4050 
L 2175 0 
L 1381 0 
L 213 4666 
z
" transform="scale(0.015625)"/>
      </defs>
      <use xlink:href="#DejaVuSans-54"/>
      <use xlink:href="#DejaVuSans-52" x="61.083984"/>
      <use xlink:href="#DejaVuSans-41" x="126.566406"/>
      <use xlink:href="#DejaVuSans-4e" x="194.974609"/>
      <use xlink:href="#DejaVuSans-53" x="269.779297"/>
      <use xlink:href="#DejaVuSans-46" x="333.255859"/>
      <use xlink:href="#DejaVuSans-41" x="381.650391"/>
      <use xlink:href="#DejaVuSans-43" x="448.308594"/>
      <use xlink:href="#DejaVuSans-5f" x="518.132812"/>
      <use xlink:href="#DejaVuSans-61" x="568.132812"/>
      <use xlink:href="#DejaVuSans-6e" x="629.412109"/>
      <use xlink:href="#DejaVuSans-64" x="692.791016"/>
      <use xlink:href="#DejaVuSans-5f" x="756.267578"/>
      <use xlink:href="#DejaVuSans-4a" x="806.267578"/>
      <use xlink:href="#DejaVuSans-41" x="834.009766"/>
      <use xlink:href="#DejaVuSans-53" x="902.417969"/>
      <use xlink:href="#DejaVuSans-50" x="965.894531"/>
      <use xlink:href="#DejaVuSans-41" x="1019.822266"/>
      <use xlink:href="#DejaVuSans-52" x="1088.230469"/>
      <use xlink:href="#DejaVuSans-5f" x="1157.712891"/>
      <use xlink:href="#DejaVuSans-50" x="1207.712891"/>
      <use xlink:href="#DejaVuSans-57" x="1268.015625"/>
      <use xlink:href="#DejaVuSans-4d" x="1366.892578"/>
      <use xlink:href="#DejaVuSans-73" x="1453.171875"/>
     </g>
    </g>
    <g id="patch_12">
     <path d="M 11.2 98.301562 
L 31.2 98.301562 
L 31.2 91.301562 
L 11.2 91.301562 
z
" style="fill: #9467bd; stroke: #9467bd; stroke-linejoin: miter"/>
    </g>
    <g id="text_32">
     <!-- LINCS_L1000_CRISPR_KO_Consensus_Sigs -->
     <g transform="translate(39.2 98.301562) scale(0.1 -0.1)">
      <defs>
       <path id="DejaVuSans-4b" d="M 628 4666 
L 1259 4666 
L 1259 2694 
L 3353 4666 
L 4166 4666 
L 1850 2491 
L 4331 0 
L 3500 0 
L 1259 2247 
L 1259 0 
L 628 0 
L 628 4666 
z
" transform="scale(0.015625)"/>
       <path id="DejaVuSans-4f" d="M 2522 4238 
Q 1834 4238 1429 3725 
Q 1025 3213 1025 2328 
Q 1025 1447 1429 934 
Q 1834 422 2522 422 
Q 3209 422 3611 934 
Q 4013 1447 4013 2328 
Q 4013 3213 3611 3725 
Q 3209 4238 2522 4238 
z
M 2522 4750 
Q 3503 4750 4090 4092 
Q 4678 3434 4678 2328 
Q 4678 1225 4090 567 
Q 3503 -91 2522 -91 
Q 1538 -91 948 565 
Q 359 1222 359 2328 
Q 359 3434 948 4092 
Q 1538 4750 2522 4750 
z
" transform="scale(0.015625)"/>
      </defs>
      <use xlink:href="#DejaVuSans-4c"/>
      <use xlink:href="#DejaVuSans-49" x="55.712891"/>
      <use xlink:href="#DejaVuSans-4e" x="85.205078"/>
      <use xlink:href="#DejaVuSans-43" x="160.009766"/>
      <use xlink:href="#DejaVuSans-53" x="229.833984"/>
      <use xlink:href="#DejaVuSans-5f" x="293.310547"/>
      <use xlink:href="#DejaVuSans-4c" x="343.310547"/>
      <use xlink:href="#DejaVuSans-31" x="399.023438"/>
      <use xlink:href="#DejaVuSans-30" x="462.646484"/>
      <use xlink:href="#DejaVuSans-30" x="526.269531"/>
      <use xlink:href="#DejaVuSans-30" x="589.892578"/>
      <use xlink:href="#DejaVuSans-5f" x="653.515625"/>
      <use xlink:href="#DejaVuSans-43" x="703.515625"/>
      <use xlink:href="#DejaVuSans-52" x="773.339844"/>
      <use xlink:href="#DejaVuSans-49" x="842.822266"/>
      <use xlink:href="#DejaVuSans-53" x="872.314453"/>
      <use xlink:href="#DejaVuSans-50" x="935.791016"/>
      <use xlink:href="#DejaVuSans-52" x="996.09375"/>
      <use xlink:href="#DejaVuSans-5f" x="1065.576172"/>
      <use xlink:href="#DejaVuSans-4b" x="1115.576172"/>
      <use xlink:href="#DejaVuSans-4f" x="1175.652344"/>
      <use xlink:href="#DejaVuSans-5f" x="1254.363281"/>
      <use xlink:href="#DejaVuSans-43" x="1304.363281"/>
      <use xlink:href="#DejaVuSans-6f" x="1374.1875"/>
      <use xlink:href="#DejaVuSans-6e" x="1435.369141"/>
      <use xlink:href="#DejaVuSans-73" x="1498.748047"/>
      <use xlink:href="#DejaVuSans-65" x="1550.847656"/>
      <use xlink:href="#DejaVuSans-6e" x="1612.371094"/>
      <use xlink:href="#DejaVuSans-73" x="1675.75"/>
      <use xlink:href="#DejaVuSans-75" x="1727.849609"/>
      <use xlink:href="#DejaVuSans-73" x="1791.228516"/>
      <use xlink:href="#DejaVuSans-5f" x="1843.328125"/>
      <use xlink:href="#DejaVuSans-53" x="1893.328125"/>
      <use xlink:href="#DejaVuSans-69" x="1956.804688"/>
      <use xlink:href="#DejaVuSans-67" x="1984.587891"/>
      <use xlink:href="#DejaVuSans-73" x="2048.064453"/>
     </g>
    </g>
    <g id="patch_13">
     <path d="M 11.2 113.257812 
L 31.2 113.257812 
L 31.2 106.257812 
L 11.2 106.257812 
z
" style="fill: #8c564b; stroke: #8c564b; stroke-linejoin: miter"/>
    </g>
    <g id="text_33">
     <!-- ENCODE_TF_ChIP-seq_2015 -->
     <g transform="translate(39.2 113.257812) scale(0.1 -0.1)">
      <defs>
       <path id="DejaVuSans-71" d="M 947 1747 
Q 947 1113 1208 752 
Q 1469 391 1925 391 
Q 2381 391 2643 752 
Q 2906 1113 2906 1747 
Q 2906 2381 2643 2742 
Q 2381 3103 1925 3103 
Q 1469 3103 1208 2742 
Q 947 2381 947 1747 
z
M 2906 525 
Q 2725 213 2448 61 
Q 2172 -91 1784 -91 
Q 1150 -91 751 415 
Q 353 922 353 1747 
Q 353 2572 751 3078 
Q 1150 3584 1784 3584 
Q 2172 3584 2448 3432 
Q 2725 3281 2906 2969 
L 2906 3500 
L 3481 3500 
L 3481 -1331 
L 2906 -1331 
L 2906 525 
z
" transform="scale(0.015625)"/>
      </defs>
      <use xlink:href="#DejaVuSans-45"/>
      <use xlink:href="#DejaVuSans-4e" x="63.183594"/>
      <use xlink:href="#DejaVuSans-43" x="137.988281"/>
      <use xlink:href="#DejaVuSans-4f" x="207.8125"/>
      <use xlink:href="#DejaVuSans-44" x="286.523438"/>
      <use xlink:href="#DejaVuSans-45" x="363.525391"/>
      <use xlink:href="#DejaVuSans-5f" x="426.708984"/>
      <use xlink:href="#DejaVuSans-54" x="476.708984"/>
      <use xlink:href="#DejaVuSans-46" x="537.792969"/>
      <use xlink:href="#DejaVuSans-5f" x="595.3125"/>
      <use xlink:href="#DejaVuSans-43" x="645.3125"/>
      <use xlink:href="#DejaVuSans-68" x="715.136719"/>
      <use xlink:href="#DejaVuSans-49" x="778.515625"/>
      <use xlink:href="#DejaVuSans-50" x="808.007812"/>
      <use xlink:href="#DejaVuSans-2d" x="866.060547"/>
      <use xlink:href="#DejaVuSans-73" x="902.144531"/>
      <use xlink:href="#DejaVuSans-65" x="954.244141"/>
      <use xlink:href="#DejaVuSans-71" x="1015.767578"/>
      <use xlink:href="#DejaVuSans-5f" x="1079.244141"/>
      <use xlink:href="#DejaVuSans-32" x="1129.244141"/>
      <use xlink:href="#DejaVuSans-30" x="1192.867188"/>
      <use xlink:href="#DejaVuSans-31" x="1256.490234"/>
      <use xlink:href="#DejaVuSans-35" x="1320.113281"/>
     </g>
    </g>
    <g id="patch_14">
     <path d="M 11.2 128.214063 
L 31.2 128.214063 
L 31.2 121.214063 
L 11.2 121.214063 
z
" style="fill: #e377c2; stroke: #e377c2; stroke-linejoin: miter"/>
    </g>
    <g id="text_34">
     <!-- Elsevier_Pathway_Collection -->
     <g transform="translate(39.2 128.214063) scale(0.1 -0.1)">
      <use xlink:href="#DejaVuSans-45"/>
      <use xlink:href="#DejaVuSans-6c" x="63.183594"/>
      <use xlink:href="#DejaVuSans-73" x="90.966797"/>
      <use xlink:href="#DejaVuSans-65" x="143.066406"/>
      <use xlink:href="#DejaVuSans-76" x="204.589844"/>
      <use xlink:href="#DejaVuSans-69" x="263.769531"/>
      <use xlink:href="#DejaVuSans-65" x="291.552734"/>
      <use xlink:href="#DejaVuSans-72" x="353.076172"/>
      <use xlink:href="#DejaVuSans-5f" x="394.189453"/>
      <use xlink:href="#DejaVuSans-50" x="444.189453"/>
      <use xlink:href="#DejaVuSans-61" x="499.992188"/>
      <use xlink:href="#DejaVuSans-74" x="561.271484"/>
      <use xlink:href="#DejaVuSans-68" x="600.480469"/>
      <use xlink:href="#DejaVuSans-77" x="663.859375"/>
      <use xlink:href="#DejaVuSans-61" x="745.646484"/>
      <use xlink:href="#DejaVuSans-79" x="806.925781"/>
      <use xlink:href="#DejaVuSans-5f" x="866.105469"/>
      <use xlink:href="#DejaVuSans-43" x="916.105469"/>
      <use xlink:href="#DejaVuSans-6f" x="985.929688"/>
      <use xlink:href="#DejaVuSans-6c" x="1047.111328"/>
      <use xlink:href="#DejaVuSans-6c" x="1074.894531"/>
      <use xlink:href="#DejaVuSans-65" x="1102.677734"/>
      <use xlink:href="#DejaVuSans-63" x="1164.201172"/>
      <use xlink:href="#DejaVuSans-74" x="1219.181641"/>
      <use xlink:href="#DejaVuSans-69" x="1258.390625"/>
      <use xlink:href="#DejaVuSans-6f" x="1286.173828"/>
      <use xlink:href="#DejaVuSans-6e" x="1347.355469"/>
     </g>
    </g>
    <g id="patch_15">
     <path d="M 11.2 143.170313 
L 31.2 143.170313 
L 31.2 136.170313 
L 11.2 136.170313 
z
" style="fill: #7f7f7f; stroke: #7f7f7f; stroke-linejoin: miter"/>
    </g>
    <g id="text_35">
     <!-- ENCODE_TF_ChIP-seq_2014 -->
     <g transform="translate(39.2 143.170313) scale(0.1 -0.1)">
      <use xlink:href="#DejaVuSans-45"/>
      <use xlink:href="#DejaVuSans-4e" x="63.183594"/>
      <use xlink:href="#DejaVuSans-43" x="137.988281"/>
      <use xlink:href="#DejaVuSans-4f" x="207.8125"/>
      <use xlink:href="#DejaVuSans-44" x="286.523438"/>
      <use xlink:href="#DejaVuSans-45" x="363.525391"/>
      <use xlink:href="#DejaVuSans-5f" x="426.708984"/>
      <use xlink:href="#DejaVuSans-54" x="476.708984"/>
      <use xlink:href="#DejaVuSans-46" x="537.792969"/>
      <use xlink:href="#DejaVuSans-5f" x="595.3125"/>
      <use xlink:href="#DejaVuSans-43" x="645.3125"/>
      <use xlink:href="#DejaVuSans-68" x="715.136719"/>
      <use xlink:href="#DejaVuSans-49" x="778.515625"/>
      <use xlink:href="#DejaVuSans-50" x="808.007812"/>
      <use xlink:href="#DejaVuSans-2d" x="866.060547"/>
      <use xlink:href="#DejaVuSans-73" x="902.144531"/>
      <use xlink:href="#DejaVuSans-65" x="954.244141"/>
      <use xlink:href="#DejaVuSans-71" x="1015.767578"/>
      <use xlink:href="#DejaVuSans-5f" x="1079.244141"/>
      <use xlink:href="#DejaVuSans-32" x="1129.244141"/>
      <use xlink:href="#DejaVuSans-30" x="1192.867188"/>
      <use xlink:href="#DejaVuSans-31" x="1256.490234"/>
      <use xlink:href="#DejaVuSans-34" x="1320.113281"/>
     </g>
    </g>
    <g id="patch_16">
     <path d="M 11.2 158.126562 
L 31.2 158.126562 
L 31.2 151.126562 
L 11.2 151.126562 
z
" style="fill: #bcbd22; stroke: #bcbd22; stroke-linejoin: miter"/>
    </g>
    <g id="text_36">
     <!-- RNAseq_Automatic_GEO_Signatures_Mouse_Down -->
     <g transform="translate(39.2 158.126562) scale(0.1 -0.1)">
      <use xlink:href="#DejaVuSans-52"/>
      <use xlink:href="#DejaVuSans-4e" x="69.482422"/>
      <use xlink:href="#DejaVuSans-41" x="144.287109"/>
      <use xlink:href="#DejaVuSans-73" x="212.695312"/>
      <use xlink:href="#DejaVuSans-65" x="264.794922"/>
      <use xlink:href="#DejaVuSans-71" x="326.318359"/>
      <use xlink:href="#DejaVuSans-5f" x="389.794922"/>
      <use xlink:href="#DejaVuSans-41" x="439.794922"/>
      <use xlink:href="#DejaVuSans-75" x="508.203125"/>
      <use xlink:href="#DejaVuSans-74" x="571.582031"/>
      <use xlink:href="#DejaVuSans-6f" x="610.791016"/>
      <use xlink:href="#DejaVuSans-6d" x="671.972656"/>
      <use xlink:href="#DejaVuSans-61" x="769.384766"/>
      <use xlink:href="#DejaVuSans-74" x="830.664062"/>
      <use xlink:href="#DejaVuSans-69" x="869.873047"/>
      <use xlink:href="#DejaVuSans-63" x="897.65625"/>
      <use xlink:href="#DejaVuSans-5f" x="952.636719"/>
      <use xlink:href="#DejaVuSans-47" x="1002.636719"/>
      <use xlink:href="#DejaVuSans-45" x="1080.126953"/>
      <use xlink:href="#DejaVuSans-4f" x="1143.310547"/>
      <use xlink:href="#DejaVuSans-5f" x="1222.021484"/>
      <use xlink:href="#DejaVuSans-53" x="1272.021484"/>
      <use xlink:href="#DejaVuSans-69" x="1335.498047"/>
      <use xlink:href="#DejaVuSans-67" x="1363.28125"/>
      <use xlink:href="#DejaVuSans-6e" x="1426.757812"/>
      <use xlink:href="#DejaVuSans-61" x="1490.136719"/>
      <use xlink:href="#DejaVuSans-74" x="1551.416016"/>
      <use xlink:href="#DejaVuSans-75" x="1590.625"/>
      <use xlink:href="#DejaVuSans-72" x="1654.003906"/>
      <use xlink:href="#DejaVuSans-65" x="1692.867188"/>
      <use xlink:href="#DejaVuSans-73" x="1754.390625"/>
      <use xlink:href="#DejaVuSans-5f" x="1806.490234"/>
      <use xlink:href="#DejaVuSans-4d" x="1856.490234"/>
      <use xlink:href="#DejaVuSans-6f" x="1942.769531"/>
      <use xlink:href="#DejaVuSans-75" x="2003.951172"/>
      <use xlink:href="#DejaVuSans-73" x="2067.330078"/>
      <use xlink:href="#DejaVuSans-65" x="2119.429688"/>
      <use xlink:href="#DejaVuSans-5f" x="2180.953125"/>
      <use xlink:href="#DejaVuSans-44" x="2230.953125"/>
      <use xlink:href="#DejaVuSans-6f" x="2307.955078"/>
      <use xlink:href="#DejaVuSans-77" x="2369.136719"/>
      <use xlink:href="#DejaVuSans-6e" x="2450.923828"/>
     </g>
    </g>
   </g>
  </g>
 </g>
 <defs>
  <clipPath id="paebe37a135">
   <rect x="371.05525" y="7.2" width="357.12" height="266.112"/>
  </clipPath>
 </defs>
</svg>
