<svg id="LOGO" xmlns="http://www.w3.org/2000/svg" xmlns:xlink="http://www.w3.org/1999/xlink" viewBox="0 0 1129.16 467.68"><defs><style>.cls-1{fill:url(#IMPC_Orange_Gradient);}.cls-2{fill:url(#IMPC_Orange_Gradient-2);}.cls-3{fill:#ee7326;}.cls-4{fill:#898684;}</style><linearGradient id="IMPC_Orange_Gradient" x1="141.17" y1="106.96" x2="281.87" y2="247.66" gradientUnits="userSpaceOnUse"><stop offset="0.5" stop-color="#ee7326"/><stop offset="0.55" stop-color="#ed6f23"/><stop offset="0.83" stop-color="#e95714"/><stop offset="1" stop-color="#e84e0f"/></linearGradient><linearGradient id="IMPC_Orange_Gradient-2" x1="47.43" y1="108.49" x2="158.86" y2="219.93" xlink:href="#IMPC_Orange_Gradient"/></defs><path class="cls-1" d="M211.52,77.82a99.49,99.49,0,0,0-70.75,169.44,32.56,32.56,0,0,1,18.78,12.34,32.13,32.13,0,0,1,10.19-11.06,33.34,33.34,0,0,1,17.67-5.46,34.59,34.59,0,0,1,19.65,5.56,32.07,32.07,0,0,1,10.76,12A32.18,32.18,0,0,1,244,248.5a30.76,30.76,0,0,1,23.13,11.35,99.5,99.5,0,0,0-55.57-182Zm.2,155.41a56.34,56.34,0,1,1,56.33-56.34A56.33,56.33,0,0,1,211.72,233.23Z"/><path class="cls-2" d="M136.08,104.36a105.09,105.09,0,0,0-3.81,142.16c-.33,0-.66,0-1,.06A31,31,0,0,0,113.4,254a32.29,32.29,0,0,0-9.19,13.39,33.63,33.63,0,0,0-26.28-9.21v-133H51.4L77.93,78h58.15Z"/><path class="cls-3" d="M51.25,304.58c-.17,5.22,4.11,20.52,3.26,24h0c2.35-4.25,4-10,4.72-17.46C56.59,308.88,53.9,306.72,51.25,304.58ZM154.8,279.66c-14.87,38.84-32,15.19-50-5.85C87.92,252.14,54,262,52.77,289.11l1.65,1.27c2.16,1.8,4.46,3.69,6.46,5.53,1.71-11,2.89-21.78,14.39-24.76l-.07,0c16.53-4.95,26.86,14,36.88,24,15.51,20.46,39.09,17.12,48.23-6.7C158.47,285.56,156.75,282.47,154.8,279.66Zm109,18.09c-.72-3.26-1.54-6.62-2.39-9.82C235,320.29,226.08,292.38,216.1,267c-8-25.23-44.81-27.25-54.75-1.53.38.58.77,1.15,1.15,1.72,1.49,2.31,3.05,4.82,4.45,7.12,10.4-27.34,35.75-23.86,43.9,2.7l-.06.07c8.94,28.06,27.92,48.56,53.1,20.74Zm59.27-2.94c.54-27.26-32.53-39-50.8-18.35,1,3.3,1.62,6.9,2.32,10.21,9.44-11.1,25.2-18.62,35.25-5.16,7.76,12.65,3.17,33,8.31,47.19C318.15,328.7,324.07,305.74,323.1,294.81ZM70.11,276a19.17,19.17,0,0,0-3.23,4.56q5,13.79,9.89,27.62a16.44,16.44,0,0,0,5,1.67Q76.05,292.87,70.11,276Zm32.67,11.78C94,329.37,71.94,308.6,50.36,290a30.75,30.75,0,0,0-16.66-7.67h0c7.55,3.33,20.6,20.82,27.37,27.51,18.64,18.54,43.33,11.32,48.61-14.31C107.39,293,105.11,290.34,102.78,287.76ZM86.57,273.69a17.1,17.1,0,0,0-5.2-1.42q5.44,17.46,10.63,35a13.21,13.21,0,0,0,3.18-3.84Q91,288.53,86.57,273.69Zm39.86-11a17.11,17.11,0,0,0-4,3.8q2.63,14.42,5.14,28.84a14.61,14.61,0,0,0,4.66,2.64Q129.4,280.28,126.43,262.65Zm15.62,1.13a20.65,20.65,0,0,0-5-2.6q2.38,17.7,4.68,35.42a16.31,16.31,0,0,0,3.67-3.7Q143.76,278.34,142.05,263.78Zm35.77-2.13q.13,14.61.28,29.23a14.53,14.53,0,0,0,4.17,3.27q0-17.83.1-35.67A14.28,14.28,0,0,0,177.82,261.65Zm31.78,18.08c-22.21,36.5-36.2,10.1-50.82-14.11-13.26-23.4-46.07-18.69-51.82,7.27l1,1c2.18,2.25,4,4.63,6,6.84,7.08-31.11,30.66-26.66,43.2-1.53,12.52,26.29,37.93,39.24,56.42,9.91C212.26,286,210.78,282.85,209.6,279.73Zm-15.26-21.56q-.72,18.22-1.39,36.46a14.36,14.36,0,0,0,4.23-2.59q.81-15.46,1.65-30.92A14,14,0,0,0,194.34,258.17Zm40.93,7.5q-2.34,14.43-4.6,28.87a15.14,15.14,0,0,0,3.53,3.81q3-17.66,6.13-35.28A15.85,15.85,0,0,0,235.27,265.67Zm15.59-.68q-3.72,17.47-7.25,35a16.72,16.72,0,0,0,4.72-2.24q3.09-14.34,6.3-28.66A16.11,16.11,0,0,0,250.86,265ZM289,278q-4.68,13.9-9.17,27.85a13.34,13.34,0,0,0,2.91,4.22q5.68-16.92,11.64-33.76A15.9,15.9,0,0,0,289,278Zm23.94,26.76c-32.19,28.12-37.5-1.38-43.1-29-4.62-25.91-37.13-31.82-51.35-9.1l.06.05c1.4,3.2,2.71,6.33,3.92,9.56,17.48-27.19,37.63-15.67,41.32,11.93,3.42,29.12,23,48.71,49.74,26.78C313.37,311.6,313,308.13,312.92,304.73Zm-7.29-24.85q-6.75,17-13.18,34.06a12.42,12.42,0,0,0,4.87-1.12q5.63-14.42,11.49-28.75A13.29,13.29,0,0,0,305.63,279.88Zm19.71,15.42a85.51,85.51,0,0,1-.72,11.51c4.48-3.24,9.69-16.52,21.43-18.93C338.35,287.79,331.29,291.35,325.34,295.3Z"/><path class="cls-4" d="M179.89,166.08h-1.42a1,1,0,0,0-.78.43l-5.79,8-5.8-8a1,1,0,0,0-.78-.42H163.9a.93.93,0,0,0-.83.47,1,1,0,0,0,0,1l7.21,10V187a.94.94,0,0,0,.94.95h1.18a1,1,0,0,0,.95-.95v-9.5l7.3-10a1,1,0,0,0,0-1A1,1,0,0,0,179.89,166.08Z"/><path class="cls-4" d="M197.67,166.08H185.79a1,1,0,0,0-.95.95v20a.94.94,0,0,0,.95.95h11.88a.94.94,0,0,0,1-.95v-.87a1,1,0,0,0-1-.95h-9.76v-7h8.29a.94.94,0,0,0,.94-.94v-.88a1,1,0,0,0-.94-.94h-8.29v-6.62h9.76a.94.94,0,0,0,1-.95V167A1,1,0,0,0,197.67,166.08Z"/><path class="cls-4" d="M212.74,166.32a.9.9,0,0,0-.85-.54h-.3a.92.92,0,0,0-.85.55l-9.17,20.31a.91.91,0,0,0,0,.89.93.93,0,0,0,.81.42h1.21a.92.92,0,0,0,.85-.55l2.11-4.76h10.22l2.13,4.74a.91.91,0,0,0,.86.57H221a.9.9,0,0,0,.85-1.31Zm2.92,13.7h-7.9l4-8.88c.67,1.49,1.33,3,2,4.46S215,178.55,215.66,180Z"/><path class="cls-4" d="M241.88,172.88a6.89,6.89,0,0,0-6.95-6.8h-7.82a1,1,0,0,0-1,.95v20a1,1,0,0,0,1,.95h1.18a1,1,0,0,0,.94-.95v-7.32h5.16l3.91,7.79a.9.9,0,0,0,.82.48h1.54a.92.92,0,0,0,.83-.45,1,1,0,0,0,0-1l-3.94-7.31A7,7,0,0,0,241.88,172.88Zm-3.13,0a4,4,0,0,1-4,4h-5.49V169h5.49A4,4,0,0,1,238.75,172.91Z"/><path class="cls-4" d="M253.36,175.4c-2.73-1.13-3.84-2.27-3.84-3.91,0-1.09.8-2.94,3.79-2.94a7.17,7.17,0,0,1,3.67,1.28l.1.06a1,1,0,0,0,1.55-.39l.19-.3c.06-.09.11-.19.18-.28a1.14,1.14,0,0,0,.17-.94,1,1,0,0,0-.48-.61,10.14,10.14,0,0,0-5.35-1.59c-5,0-6.8,3.44-6.8,5.74,0,3.86,2.51,5.27,5.54,6.6,3.73,1.55,5,2.71,5,4.42s-1.58,2.94-3.67,2.94a7.7,7.7,0,0,1-4.8-2.15l0-.05a1,1,0,0,0-.74-.26,1.31,1.31,0,0,0-.85.58l-.24.29-.21.28,0,0a1,1,0,0,0,.24,1.5,10.2,10.2,0,0,0,6.62,2.54c3.87,0,6.89-2.55,6.89-5.8C260.29,178.54,257.15,177,253.36,175.4Z"/><path class="cls-4" d="M78,353.61h5.16v36H78Z"/><path class="cls-4" d="M95.17,365.92v3a9.45,9.45,0,0,1,7.14-3.49,7.92,7.92,0,0,1,4.13,1.15,7.53,7.53,0,0,1,2.9,3.15,14.88,14.88,0,0,1,1,6.33v13.57h-4.7V376.13q0-3.63-1.11-5.19a4.23,4.23,0,0,0-3.71-1.56c-2.22,0-4.1,1.1-5.65,3.32v16.95h-4.8V365.92Z"/><path class="cls-4" d="M113.56,369.69l8.82-8.67v4.9h7.51v4.23h-7.51v11.61c0,2.72,1.13,4.07,3.38,4.07a10.52,10.52,0,0,0,5.34-1.67v4.38a11.76,11.76,0,0,1-5.9,1.52,7.82,7.82,0,0,1-5.37-1.88,5.17,5.17,0,0,1-1.11-1.28,6.6,6.6,0,0,1-.73-1.85,20.74,20.74,0,0,1-.3-4.38V370.15h-4.13Z"/><path class="cls-4" d="M154.71,378.2H138a7.73,7.73,0,0,0,2.28,5.41,7.49,7.49,0,0,0,5.43,2,14.16,14.16,0,0,0,8.56-2.89v4.59a15.56,15.56,0,0,1-4.29,2.06,17.73,17.73,0,0,1-5,.62,11.24,11.24,0,0,1-6.35-1.62,11.83,11.83,0,0,1-3.88-4.37,13.44,13.44,0,0,1-1.46-6.36,12.59,12.59,0,0,1,3.07-8.81,10.26,10.26,0,0,1,8-3.4,9.39,9.39,0,0,1,7.53,3.31q2.82,3.3,2.82,8.84Zm-16.59-2.81h11.94a6.6,6.6,0,0,0-1.67-4.34,5.41,5.41,0,0,0-4-1.52,5.82,5.82,0,0,0-4.14,1.52A7.61,7.61,0,0,0,138.12,375.39Z"/><path class="cls-4" d="M164.82,365.92v5.44l.25-.41q3.41-5.49,6.81-5.5c1.78,0,3.62.9,5.55,2.69L175,372.26c-1.63-1.54-3.14-2.32-4.54-2.32a4.88,4.88,0,0,0-3.93,2.17,8.17,8.17,0,0,0-1.66,5.13v12.41H160.1V365.92Z"/><path class="cls-4" d="M185.4,365.92v3a9.46,9.46,0,0,1,7.15-3.49,7.88,7.88,0,0,1,4.12,1.15,7.56,7.56,0,0,1,2.91,3.15,15.06,15.06,0,0,1,1,6.33v13.57h-4.7V376.13q0-3.63-1.1-5.19a4.25,4.25,0,0,0-3.72-1.56c-2.22,0-4.1,1.1-5.65,3.32v16.95h-4.8V365.92Z"/><path class="cls-4" d="M222,375.39v10.08c0,.81.28,1.21.83,1.21a5.69,5.69,0,0,0,2.65-1.26v2.86a15.27,15.27,0,0,1-2.56,1.41,5.58,5.58,0,0,1-2,.37c-2,0-3.2-.79-3.56-2.37A10.19,10.19,0,0,1,211,390a5.62,5.62,0,0,1-5.78-5.75,5.8,5.8,0,0,1,1.61-4,11,11,0,0,1,4.58-2.8l6-2.06v-1.27c0-2.85-1.42-4.28-4.28-4.28q-3.84,0-7.48,4v-5.13c1.82-2.15,4.45-3.23,7.87-3.23a9.07,9.07,0,0,1,6.16,2,6.42,6.42,0,0,1,1.4,1.71,6.25,6.25,0,0,1,.78,2.14A30.2,30.2,0,0,1,222,375.39ZM217.41,385v-7l-3.14,1.22a10.55,10.55,0,0,0-3.4,1.92,3.48,3.48,0,0,0-.05,4.81,3.33,3.33,0,0,0,2.44.93A5.89,5.89,0,0,0,217.41,385Z"/><path class="cls-4" d="M226.34,369.69l8.82-8.67v4.9h7.51v4.23h-7.51v11.61c0,2.72,1.13,4.07,3.38,4.07a10.52,10.52,0,0,0,5.34-1.67v4.38a11.83,11.83,0,0,1-5.91,1.52,7.78,7.78,0,0,1-5.36-1.88,5.17,5.17,0,0,1-1.11-1.28,6.9,6.9,0,0,1-.74-1.85,21,21,0,0,1-.29-4.38V370.15h-4.13Z"/><path class="cls-4" d="M249.68,355.94a2.72,2.72,0,0,1,2,.8,2.61,2.61,0,0,1,.83,2,2.82,2.82,0,0,1-2.82,2.78,2.62,2.62,0,0,1-1.91-.84,2.66,2.66,0,0,1-.82-1.94,2.84,2.84,0,0,1,2.73-2.76Zm-2.32,10h4.7v23.73h-4.7Z"/><path class="cls-4" d="M270.19,365.87a12.37,12.37,0,0,1,9,3.49,11.77,11.77,0,0,1,3.59,8.79,11.14,11.14,0,0,1-3.64,8.52,12.91,12.91,0,0,1-9.16,3.39,12.35,12.35,0,0,1-8.92-3.44,12.14,12.14,0,0,1,0-17.28A12.59,12.59,0,0,1,270.19,365.87Zm-.26,4.23a7.4,7.4,0,0,0-5.54,2.22,7.73,7.73,0,0,0-2.17,5.65,7.41,7.41,0,0,0,2.22,5.56,7.87,7.87,0,0,0,5.7,2.15,7.73,7.73,0,0,0,5.66-2.18,7.53,7.53,0,0,0,2.21-5.59,7.45,7.45,0,0,0-2.3-5.59A8,8,0,0,0,269.93,370.1Z"/><path class="cls-4" d="M292.68,365.92v3a9.46,9.46,0,0,1,7.15-3.49A7.94,7.94,0,0,1,304,366.6a7.53,7.53,0,0,1,2.9,3.15,15.06,15.06,0,0,1,1,6.33v13.57h-4.69V376.13q0-3.63-1.11-5.19a4.25,4.25,0,0,0-3.72-1.56c-2.21,0-4.1,1.1-5.65,3.32v16.95h-4.79V365.92Z"/><path class="cls-4" d="M329.31,375.39v10.08c0,.81.28,1.21.83,1.21a5.71,5.71,0,0,0,2.66-1.26v2.86a15.68,15.68,0,0,1-2.57,1.41,5.58,5.58,0,0,1-2,.37c-2,0-3.19-.79-3.56-2.37a10.17,10.17,0,0,1-6.37,2.32,5.62,5.62,0,0,1-5.77-5.75,5.76,5.76,0,0,1,1.61-4,10.87,10.87,0,0,1,4.58-2.8l6-2.06v-1.27q0-4.28-4.29-4.28-3.84,0-7.48,4v-5.13q2.74-3.23,7.87-3.23a9.11,9.11,0,0,1,6.17,2,6.4,6.4,0,0,1,1.39,1.71,6.5,6.5,0,0,1,.79,2.14A32.65,32.65,0,0,1,329.31,375.39ZM324.7,385v-7l-3.15,1.22a10.37,10.37,0,0,0-3.39,1.92,3.45,3.45,0,0,0-.05,4.81,3.3,3.3,0,0,0,2.43.93A5.93,5.93,0,0,0,324.7,385Z"/><path class="cls-4" d="M337.05,353.61h4.7v36h-4.7Z"/><path class="cls-4" d="M392.51,353.61h4.83v36h-5.19v-28l-11.08,13.93h-.95l-11.21-13.93v28h-5.16v-36h4.89l12,14.8Z"/><path class="cls-4" d="M415.81,365.87a12.37,12.37,0,0,1,9,3.49,11.76,11.76,0,0,1,3.58,8.79,11.17,11.17,0,0,1-3.63,8.52,12.92,12.92,0,0,1-9.16,3.39,12.37,12.37,0,0,1-8.93-3.44,12.17,12.17,0,0,1,0-17.28A12.61,12.61,0,0,1,415.81,365.87Zm-.26,4.23a7.42,7.42,0,0,0-5.55,2.22,7.77,7.77,0,0,0-2.17,5.65,7.41,7.41,0,0,0,2.22,5.56,7.87,7.87,0,0,0,5.7,2.15,7.74,7.74,0,0,0,5.67-2.18,7.52,7.52,0,0,0,2.2-5.59,7.44,7.44,0,0,0-2.29-5.59A8,8,0,0,0,415.55,370.1Z"/><path class="cls-4" d="M448.72,389.65v-3a10.9,10.9,0,0,1-3.42,2.54,8.84,8.84,0,0,1-3.83.91,8,8,0,0,1-4.14-1.12,7.28,7.28,0,0,1-2.86-3q-1-1.92-1-6.39V365.92h4.7v13.52c0,2.49.35,4.23,1.07,5.22s2,1.48,3.75,1.48a6.86,6.86,0,0,0,5.7-3.27V365.92h4.7v23.73Z"/><path class="cls-4" d="M458.86,388v-5.06a21.54,21.54,0,0,0,4.06,2.26,9.41,9.41,0,0,0,3.5.86,4.35,4.35,0,0,0,2.52-.72,2.07,2.07,0,0,0,1.06-1.73,2.34,2.34,0,0,0-.68-1.71,15.62,15.62,0,0,0-3-2q-4.53-2.52-5.94-4.32a6.16,6.16,0,0,1-1.41-3.9,5.5,5.5,0,0,1,2.13-4.47,8.44,8.44,0,0,1,5.48-1.73,15.09,15.09,0,0,1,7.15,2v4.64q-4.18-2.54-6.84-2.53a3.77,3.77,0,0,0-2.2.58,1.79,1.79,0,0,0-.84,1.54,2.17,2.17,0,0,0,.76,1.57,12.78,12.78,0,0,0,2.67,1.81l1.67,1q5.94,3.36,5.94,7.43a5.9,5.9,0,0,1-2.28,4.78,9,9,0,0,1-5.87,1.87,14.38,14.38,0,0,1-3.77-.45A25.11,25.11,0,0,1,458.86,388Z"/><path class="cls-4" d="M500.57,378.2H483.88a7.73,7.73,0,0,0,2.28,5.41,7.49,7.49,0,0,0,5.43,2,14.19,14.19,0,0,0,8.57-2.89v4.59a15.75,15.75,0,0,1-4.3,2.06,17.68,17.68,0,0,1-5,.62,11.26,11.26,0,0,1-6.35-1.62,11.92,11.92,0,0,1-3.88-4.37,13.44,13.44,0,0,1-1.46-6.36,12.64,12.64,0,0,1,3.07-8.81,10.28,10.28,0,0,1,8-3.4,9.41,9.41,0,0,1,7.53,3.31,13.2,13.2,0,0,1,2.81,8.84ZM484,375.39h11.95a6.56,6.56,0,0,0-1.68-4.34,5.41,5.41,0,0,0-4-1.52,5.83,5.83,0,0,0-4.15,1.52A7.61,7.61,0,0,0,484,375.39Z"/><path class="cls-4" d="M520.69,389.65V353.56h11.43a11.77,11.77,0,0,1,8.23,2.79,9.63,9.63,0,0,1,3.07,7.48,10,10,0,0,1-1.58,5.57,9,9,0,0,1-4.31,3.52,21.89,21.89,0,0,1-7.84,1.1h-3.82v15.63Zm10.52-31.5h-5.34v11.28h5.65a7.14,7.14,0,0,0,4.85-1.49,5.29,5.29,0,0,0,1.71-4.24Q538.08,358.15,531.21,358.15Z"/><path class="cls-4" d="M547.16,353.61h4.69V369a9.08,9.08,0,0,1,7.3-3.59,7.86,7.86,0,0,1,4.26,1.19,7.25,7.25,0,0,1,2.8,3.28,16.19,16.19,0,0,1,.91,6.21v13.52h-4.69V375a6.51,6.51,0,0,0-1.28-4.19,4.09,4.09,0,0,0-3.37-1.58,5.68,5.68,0,0,0-2.91.79,13.41,13.41,0,0,0-3,2.66v17h-4.69Z"/><path class="cls-4" d="M593.9,378.2H577.21a7.73,7.73,0,0,0,2.28,5.41,7.49,7.49,0,0,0,5.43,2,14.14,14.14,0,0,0,8.56-2.89v4.59a15.56,15.56,0,0,1-4.29,2.06,17.68,17.68,0,0,1-5,.62,11.24,11.24,0,0,1-6.35-1.62A11.92,11.92,0,0,1,574,384a13.44,13.44,0,0,1-1.46-6.36,12.64,12.64,0,0,1,3.07-8.81,10.28,10.28,0,0,1,8-3.4,9.42,9.42,0,0,1,7.54,3.31,13.2,13.2,0,0,1,2.81,8.84Zm-16.59-2.81h11.94a6.6,6.6,0,0,0-1.67-4.34,5.41,5.41,0,0,0-4-1.52,5.82,5.82,0,0,0-4.14,1.52A7.61,7.61,0,0,0,577.31,375.39Z"/><path class="cls-4" d="M603.67,365.92v3a9.46,9.46,0,0,1,7.15-3.49A7.94,7.94,0,0,1,615,366.6a7.53,7.53,0,0,1,2.9,3.15,15.06,15.06,0,0,1,1,6.33v13.57h-4.69V376.13q0-3.63-1.11-5.19a4.25,4.25,0,0,0-3.72-1.56c-2.22,0-4.1,1.1-5.65,3.32v16.95h-4.79V365.92Z"/><path class="cls-4" d="M636.74,365.87a12.39,12.39,0,0,1,9,3.49,11.76,11.76,0,0,1,3.58,8.79,11.14,11.14,0,0,1-3.64,8.52,12.88,12.88,0,0,1-9.15,3.39,12.37,12.37,0,0,1-8.93-3.44,12.17,12.17,0,0,1,0-17.28A12.61,12.61,0,0,1,636.74,365.87Zm-.25,4.23a7.41,7.41,0,0,0-5.55,2.22,7.73,7.73,0,0,0-2.17,5.65,7.41,7.41,0,0,0,2.22,5.56,7.87,7.87,0,0,0,5.7,2.15,7.71,7.71,0,0,0,5.66-2.18,7.53,7.53,0,0,0,2.21-5.59,7.45,7.45,0,0,0-2.3-5.59A8,8,0,0,0,636.49,370.1Z"/><path class="cls-4" d="M651.21,369.69,660,361v4.9h7.5v4.23H660v11.61c0,2.72,1.12,4.07,3.38,4.07a10.58,10.58,0,0,0,5.34-1.67v4.38a11.83,11.83,0,0,1-5.91,1.52,7.82,7.82,0,0,1-5.37-1.88,5.62,5.62,0,0,1-1.11-1.28,6.91,6.91,0,0,1-.73-1.85,20.74,20.74,0,0,1-.3-4.38V370.15h-4.13Z"/><path class="cls-4" d="M686.7,365.92H692l-16.81,35.83h-5.24L678,384.56l-9.16-18.64h5.35l6.41,13.4Z"/><path class="cls-4" d="M695,401.75V365.92h8.22q6.32,0,9.83,3.15c2.35,2.09,3.52,5,3.52,8.79a12.09,12.09,0,0,1-3.31,8.77,11.21,11.21,0,0,1-8.44,3.43,14.78,14.78,0,0,1-5-1v12.69Zm8.12-31.45h-3.32v14.6a9.78,9.78,0,0,0,4.53,1.11,7,7,0,0,0,5.39-2.29,8.41,8.41,0,0,0,2.1-5.91,8.29,8.29,0,0,0-1-4.1,6,6,0,0,0-2.7-2.59A12.09,12.09,0,0,0,703.08,370.3Z"/><path class="cls-4" d="M724.11,355.94a2.72,2.72,0,0,1,2,.8,2.6,2.6,0,0,1,.82,2,2.8,2.8,0,0,1-2.81,2.78,2.61,2.61,0,0,1-1.91-.84,2.66,2.66,0,0,1-.82-1.94,2.84,2.84,0,0,1,2.73-2.76Zm-2.32,10h4.7v23.73h-4.7Z"/><path class="cls-4" d="M738,365.92v3a9.46,9.46,0,0,1,7.15-3.49,7.94,7.94,0,0,1,4.13,1.15,7.53,7.53,0,0,1,2.9,3.15,15.06,15.06,0,0,1,1,6.33v13.57h-4.69V376.13q0-3.63-1.11-5.19a4.25,4.25,0,0,0-3.72-1.56c-2.21,0-4.1,1.1-5.65,3.32v16.95h-4.79V365.92Z"/><path class="cls-4" d="M758.47,374.12a7.26,7.26,0,0,1,2.77-6,11.87,11.87,0,0,1,7.58-2.21h9.77v3.66h-4.8a9.94,9.94,0,0,1,1.94,2.58,6.26,6.26,0,0,1,.54,2.66,7.07,7.07,0,0,1-1.06,3.65,7.48,7.48,0,0,1-2.72,2.75,16.84,16.84,0,0,1-5.45,1.52c-1.78.26-2.66.87-2.66,1.83a1.55,1.55,0,0,0,1,1.35A15.31,15.31,0,0,0,769,387a37.79,37.79,0,0,1,5.61,1.5,7.26,7.26,0,0,1,2.26,1.54,5.85,5.85,0,0,1,1.7,4.29,6.2,6.2,0,0,1-3,5.39,17.15,17.15,0,0,1-16.15,0,6.24,6.24,0,0,1-3-5.43q0-4.82,6-6.21c-1.59-1-2.38-2-2.38-3a2.73,2.73,0,0,1,1-2.06,6.3,6.3,0,0,1,2.75-1.37Q758.48,379.3,758.47,374.12Zm7.71,16.64a6.88,6.88,0,0,0-3.88,1,3,3,0,0,0-1.51,2.58q0,3.66,6.61,3.66a10.39,10.39,0,0,0,4.83-.92A2.83,2.83,0,0,0,774,394.5c0-1.1-.72-2-2.17-2.69A12.86,12.86,0,0,0,766.18,390.76ZM767.29,370a4.53,4.53,0,0,0-3.25,1.29,4.17,4.17,0,0,0-1.34,3.1,3.92,3.92,0,0,0,1.32,3,5.16,5.16,0,0,0,6.64,0,4,4,0,0,0,1.33-3.06,4.06,4.06,0,0,0-1.34-3.1A4.81,4.81,0,0,0,767.29,370Z"/><path class="cls-4" d="M828.61,381.29V387a27,27,0,0,1-13.1,3.09,20.19,20.19,0,0,1-10.25-2.42,17.84,17.84,0,0,1-6.65-6.68,18.2,18.2,0,0,1-2.45-9.21,17.56,17.56,0,0,1,5.61-13.23,19.24,19.24,0,0,1,13.84-5.37,32.4,32.4,0,0,1,12.61,3v5.54a24.89,24.89,0,0,0-12.35-3.61A14.25,14.25,0,0,0,805.59,362a13.8,13.8,0,0,0-.07,19.54,14.39,14.39,0,0,0,10.29,3.82A23.3,23.3,0,0,0,828.61,381.29Z"/><path class="cls-4" d="M845.66,365.87a12.37,12.37,0,0,1,9,3.49,11.77,11.77,0,0,1,3.59,8.79,11.14,11.14,0,0,1-3.64,8.52,12.91,12.91,0,0,1-9.16,3.39,12.35,12.35,0,0,1-8.92-3.44,12.14,12.14,0,0,1,0-17.28A12.57,12.57,0,0,1,845.66,365.87Zm-.26,4.23a7.4,7.4,0,0,0-5.54,2.22,7.73,7.73,0,0,0-2.17,5.65,7.41,7.41,0,0,0,2.22,5.56,7.87,7.87,0,0,0,5.7,2.15,7.73,7.73,0,0,0,5.66-2.18,7.53,7.53,0,0,0,2.21-5.59,7.45,7.45,0,0,0-2.3-5.59A8,8,0,0,0,845.4,370.1Z"/><path class="cls-4" d="M868.15,365.92v3a9.46,9.46,0,0,1,7.15-3.49,7.94,7.94,0,0,1,4.13,1.15,7.53,7.53,0,0,1,2.9,3.15,15.06,15.06,0,0,1,1,6.33v13.57h-4.69V376.13q0-3.63-1.11-5.19a4.25,4.25,0,0,0-3.72-1.56c-2.22,0-4.1,1.1-5.65,3.32v16.95h-4.79V365.92Z"/><path class="cls-4" d="M888.71,388v-5.06a21.61,21.61,0,0,0,4.07,2.26,9.32,9.32,0,0,0,3.49.86,4.4,4.4,0,0,0,2.53-.72,2.09,2.09,0,0,0,1.06-1.73,2.31,2.31,0,0,0-.69-1.71,15.44,15.44,0,0,0-2.95-2q-4.54-2.52-6-4.32a6.2,6.2,0,0,1-1.4-3.9,5.5,5.5,0,0,1,2.13-4.47,8.4,8.4,0,0,1,5.48-1.73,15.06,15.06,0,0,1,7.14,2v4.64q-4.17-2.54-6.83-2.53a3.78,3.78,0,0,0-2.21.58,1.79,1.79,0,0,0-.84,1.54,2.21,2.21,0,0,0,.76,1.57,13.37,13.37,0,0,0,2.67,1.81l1.68,1q5.92,3.36,5.93,7.43a5.9,5.9,0,0,1-2.28,4.78,8.94,8.94,0,0,1-5.87,1.87,14.3,14.3,0,0,1-3.76-.45A24.82,24.82,0,0,1,888.71,388Z"/><path class="cls-4" d="M921.55,365.87a12.37,12.37,0,0,1,9,3.49,11.77,11.77,0,0,1,3.59,8.79,11.14,11.14,0,0,1-3.64,8.52,12.91,12.91,0,0,1-9.16,3.39,12.35,12.35,0,0,1-8.92-3.44,12.14,12.14,0,0,1,0-17.28A12.57,12.57,0,0,1,921.55,365.87Zm-.26,4.23a7.4,7.4,0,0,0-5.54,2.22,7.73,7.73,0,0,0-2.17,5.65,7.41,7.41,0,0,0,2.22,5.56,7.87,7.87,0,0,0,5.7,2.15,7.73,7.73,0,0,0,5.66-2.18,7.53,7.53,0,0,0,2.21-5.59,7.45,7.45,0,0,0-2.3-5.59A8,8,0,0,0,921.29,370.1Z"/><path class="cls-4" d="M944.38,365.92v5.44l.26-.41q3.4-5.49,6.81-5.5,2.65,0,5.54,2.69l-2.47,4.12c-1.64-1.54-3.15-2.32-4.54-2.32a4.88,4.88,0,0,0-3.94,2.17,8.17,8.17,0,0,0-1.66,5.13v12.41h-4.72V365.92Z"/><path class="cls-4" d="M958,369.69l8.82-8.67v4.9h7.51v4.23h-7.51v11.61c0,2.72,1.13,4.07,3.38,4.07a10.55,10.55,0,0,0,5.34-1.67v4.38a11.83,11.83,0,0,1-5.91,1.52,7.78,7.78,0,0,1-5.36-1.88,5.17,5.17,0,0,1-1.11-1.28,6.9,6.9,0,0,1-.74-1.85,21,21,0,0,1-.29-4.38V370.15H958Z"/><path class="cls-4" d="M981.34,355.94a2.72,2.72,0,0,1,2,.8,2.61,2.61,0,0,1,.83,2,2.82,2.82,0,0,1-2.82,2.78,2.61,2.61,0,0,1-1.91-.84,2.66,2.66,0,0,1-.82-1.94,2.84,2.84,0,0,1,2.73-2.76Zm-2.32,10h4.7v23.73H979Z"/><path class="cls-4" d="M1005.62,389.65v-3a10.9,10.9,0,0,1-3.42,2.54,8.84,8.84,0,0,1-3.83.91,7.94,7.94,0,0,1-4.14-1.12,7.3,7.3,0,0,1-2.87-3q-1-1.92-1-6.39V365.92h4.69v13.52q0,3.74,1.07,5.22c.72,1,2,1.48,3.76,1.48a6.88,6.88,0,0,0,5.7-3.27V365.92h4.69v23.73Z"/><path class="cls-4" d="M1036.36,372.42v17.23h-4.72V376.44q0-3.94-1.05-5.5a4.14,4.14,0,0,0-3.69-1.56,5.52,5.52,0,0,0-2.7.67,11.7,11.7,0,0,0-2.8,2.37v17.23h-4.69V365.92h4.69V369q3.58-3.59,7-3.59a7.71,7.71,0,0,1,7,4.29q3.77-4.33,7.87-4.34a7.28,7.28,0,0,1,5.69,2.53c1.48,1.69,2.23,4.26,2.23,7.71v14h-4.7V375.59a7.31,7.31,0,0,0-1.21-4.54,4.13,4.13,0,0,0-3.48-1.57C1039.86,369.48,1038.05,370.46,1036.36,372.42Z"/><path class="cls-4" d="M355.09,78.14V301.33h32V78.14Z"/><path class="cls-4" d="M614.07,78.14,540.35,169.8,466.17,78.14H435.94V301.33h31.94V127.66L537.31,214h5.9l68.62-86.29V301.33H644V78.14Z"/><path class="cls-4" d="M812,95.08q-19-17.26-51-17.26H690.28V301.33H722.4V106.26h33.06q42.51,0,42.5,34.35,0,17.1-10.53,26.28t-30,9.19h-35v28.44H746q31.63,0,48.57-6.79a55.78,55.78,0,0,0,26.68-21.81q9.75-15,9.75-34.51Q831,112.31,812,95.08Z"/><path class="cls-4" d="M972,274.49q-38.85,0-63.75-23.64t-24.93-60.39q0-36.42,25.33-60.63t63.65-24.22q37.41,0,76.54,22.37V93.64q-43-18.37-78.13-18.37-51,0-85.72,33.23t-34.74,82a112.19,112.19,0,0,0,15.18,57,110.51,110.51,0,0,0,41.21,41.4q26,15,63.44,15,46,0,81.16-19.17V249.57Q1012.53,274.49,972,274.49Z"/></svg>