<?xml version="1.0" encoding="UTF-8"?>
<svg xmlns="http://www.w3.org/2000/svg" xmlns:xlink="http://www.w3.org/1999/xlink" width="324pt" height="126pt" viewBox="0 0 324 126" version="1.2">
  <g id="surface1">
    <path style=" stroke:none;fill-rule:nonzero;fill:rgb(100%,69.804382%,34.901428%);fill-opacity:1;" d="M 230.980469 12.714844 C 233.324219 11.582031 236.554688 11.640625 237.539062 13.535156 C 238.289062 14.992188 237.988281 17.039062 235.433594 18.214844 C 232.945312 19.675781 231.023438 20.808594 227.757812 23.652344 C 226.542969 24.710938 224.863281 26.957031 223.734375 28.710938 C 220.261719 34.109375 220.746094 42.484375 219.980469 44.230469 C 219.699219 44.878906 219.007812 44.855469 218.578125 44.195312 C 215.503906 39.484375 215.375 27.046875 221.722656 19.839844 C 224.613281 16.5625 226.992188 14.652344 230.980469 12.714844 "/>
    <path style=" stroke:none;fill-rule:nonzero;fill:rgb(100%,69.804382%,34.901428%);fill-opacity:1;" d="M 233.425781 27.183594 C 235.214844 26.316406 237.652344 26.378906 238.4375 27.8125 C 239.082031 28.984375 238.613281 30.710938 236.660156 31.613281 C 234.726562 32.746094 233.453125 33.375 230.953125 35.550781 C 230.027344 36.363281 228.570312 38.527344 227.703125 39.871094 C 225.046875 44.003906 225.3125 50.109375 225.019531 51.664062 C 224.902344 52.296875 224.09375 52.710938 223.582031 51.84375 C 221.402344 48.128906 221.476562 38.152344 226.339844 32.632812 C 228.546875 30.125 230.367188 28.664062 233.425781 27.183594 "/>
    <path style=" stroke:none;fill-rule:nonzero;fill:rgb(100%,69.804382%,34.901428%);fill-opacity:1;" d="M 234.53125 39.066406 C 235.886719 38.34375 237.746094 38.402344 238.46875 39.53125 C 238.988281 40.328125 238.863281 41.707031 237.382812 42.457031 C 235.933594 43.332031 234.839844 44.105469 232.988281 45.898438 C 232.300781 46.566406 231.378906 47.976562 230.765625 49.074219 C 228.882812 52.464844 229.34375 58.136719 229.089844 59.265625 C 228.964844 59.820312 228.359375 59.753906 228.082031 59.34375 C 226.078125 56.4375 225.714844 48.105469 229.253906 43.570312 C 230.863281 41.511719 232.214844 40.300781 234.53125 39.066406 "/>
    <path style=" stroke:none;fill-rule:nonzero;fill:rgb(100%,69.804382%,34.901428%);fill-opacity:1;" d="M 226.277344 113.285156 C 223.933594 114.417969 220.703125 114.359375 219.722656 112.464844 C 218.96875 111.007812 219.269531 108.964844 221.824219 107.789062 C 224.316406 106.324219 226.234375 105.191406 229.503906 102.347656 C 230.714844 101.292969 232.394531 99.042969 233.523438 97.289062 C 236.996094 91.890625 236.515625 83.515625 237.277344 81.773438 C 237.5625 81.121094 238.253906 81.148438 238.679688 81.804688 C 241.757812 86.515625 241.882812 98.953125 235.535156 106.164062 C 232.648438 109.441406 230.265625 111.347656 226.277344 113.285156 "/>
    <path style=" stroke:none;fill-rule:nonzero;fill:rgb(100%,69.804382%,34.901428%);fill-opacity:1;" d="M 223.835938 98.816406 C 222.042969 99.683594 219.605469 99.621094 218.820312 98.1875 C 218.179688 97.015625 218.644531 95.289062 220.597656 94.390625 C 222.53125 93.253906 223.804688 92.625 226.304688 90.449219 C 227.230469 89.636719 228.691406 87.472656 229.554688 86.132812 C 232.214844 81.996094 231.945312 75.890625 232.238281 74.335938 C 232.359375 73.703125 233.167969 73.289062 233.679688 74.15625 C 235.855469 77.871094 235.78125 87.851562 230.921875 93.367188 C 228.714844 95.875 226.890625 97.335938 223.835938 98.816406 "/>
    <path style=" stroke:none;fill-rule:nonzero;fill:rgb(100%,69.804382%,34.901428%);fill-opacity:1;" d="M 222.730469 86.933594 C 221.375 87.65625 219.515625 87.597656 218.789062 86.46875 C 218.273438 85.671875 218.394531 84.292969 219.878906 83.542969 C 221.324219 82.671875 222.421875 81.894531 224.273438 80.101562 C 224.960938 79.433594 225.878906 78.023438 226.492188 76.925781 C 228.375 73.535156 227.917969 67.863281 228.167969 66.734375 C 228.292969 66.183594 228.898438 66.246094 229.179688 66.65625 C 231.179688 69.566406 231.542969 77.898438 228.003906 82.429688 C 226.394531 84.492188 225.046875 85.699219 222.730469 86.933594 "/>
    <path style=" stroke:none;fill-rule:nonzero;fill:rgb(100%,69.804382%,34.901428%);fill-opacity:1;" d="M 200.007812 40.941406 C 200.152344 38.957031 201.425781 36.878906 203.058594 36.910156 C 204.394531 36.941406 205.660156 38.210938 205.460938 40.351562 C 205.476562 42.59375 205.386719 44.011719 206.023438 47.261719 C 206.257812 48.46875 207.40625 50.816406 208.136719 52.238281 C 210.386719 56.605469 215.808594 59.425781 217.007812 60.457031 C 217.496094 60.875 217.449219 61.785156 216.445312 61.792969 C 212.136719 61.824219 203.53125 56.769531 201.1875 49.800781 C 200.117188 46.636719 199.761719 44.328125 200.007812 40.941406 "/>
    <path style=" stroke:none;fill-rule:nonzero;fill:rgb(100%,69.804382%,34.901428%);fill-opacity:1;" d="M 210.851562 45.925781 C 210.90625 44.390625 211.886719 42.808594 213.222656 42.742188 C 214.175781 42.695312 215.304688 43.488281 215.214844 45.152344 C 215.246094 46.839844 215.371094 48.175781 216 50.675781 C 216.234375 51.605469 216.996094 53.109375 217.640625 54.1875 C 219.632812 57.511719 224.773438 59.949219 225.625 60.734375 C 226.042969 61.117188 225.683594 61.609375 225.1875 61.648438 C 221.667969 61.929688 214.273438 58.074219 212.113281 52.742188 C 211.136719 50.320312 210.765625 48.546875 210.851562 45.925781 "/>
    <path style=" stroke:none;fill-rule:nonzero;fill:rgb(100%,69.804382%,34.901428%);fill-opacity:1;" d="M 271.003906 90.179688 C 270.8125 92.777344 269.144531 95.542969 267.011719 95.445312 C 265.375 95.367188 263.753906 94.085938 264.015625 91.289062 C 263.992188 88.398438 263.972656 86.167969 263.144531 81.917969 C 262.835938 80.339844 261.726562 77.757812 260.773438 75.90625 C 257.832031 70.199219 250.339844 66.429688 249.210938 64.898438 C 248.789062 64.324219 249.15625 63.742188 249.9375 63.699219 C 255.558594 63.390625 266.394531 69.496094 269.460938 78.601562 C 270.855469 82.742188 271.320312 85.757812 271.003906 90.179688 "/>
    <path style=" stroke:none;fill-rule:nonzero;fill:rgb(100%,69.804382%,34.901428%);fill-opacity:1;" d="M 257.25 85.0625 C 257.105469 87.046875 255.832031 89.125 254.199219 89.089844 C 252.863281 89.058594 251.601562 87.789062 251.796875 85.652344 C 251.78125 83.410156 251.871094 81.992188 251.238281 78.738281 C 251 77.53125 249.855469 75.183594 249.125 73.765625 C 246.871094 69.398438 241.453125 66.574219 240.253906 65.542969 C 239.761719 65.125 239.808594 64.214844 240.816406 64.207031 C 245.121094 64.175781 253.726562 69.230469 256.074219 76.199219 C 257.140625 79.367188 257.496094 81.675781 257.25 85.0625 "/>
    <path style=" stroke:none;fill-rule:nonzero;fill:rgb(100%,69.804382%,34.901428%);fill-opacity:1;" d="M 246.40625 80.078125 C 246.351562 81.613281 245.375 83.191406 244.035156 83.257812 C 243.085938 83.304688 241.953125 82.511719 242.046875 80.851562 C 242.011719 79.164062 241.886719 77.824219 241.261719 75.328125 C 241.027344 74.394531 240.265625 72.890625 239.621094 71.8125 C 237.628906 68.488281 232.484375 66.050781 231.632812 65.265625 C 231.21875 64.882812 231.578125 64.390625 232.070312 64.351562 C 235.589844 64.074219 242.988281 67.925781 245.144531 73.257812 C 246.125 75.679688 246.496094 77.453125 246.40625 80.078125 "/>
    <path style=" stroke:none;fill-rule:nonzero;fill:rgb(100%,69.804382%,34.901428%);fill-opacity:1;" d="M 183.902344 86.105469 C 181.753906 84.644531 180.1875 81.816406 181.339844 80.015625 C 182.222656 78.636719 184.144531 77.875 186.4375 79.5 C 188.953125 80.925781 190.890625 82.023438 194.988281 83.429688 C 196.511719 83.953125 199.296875 84.285156 201.382812 84.382812 C 207.792969 84.691406 214.804688 80.085938 216.695312 79.875 C 217.402344 79.796875 217.722656 80.40625 217.371094 81.105469 C 214.828125 86.125 204.121094 92.457031 194.703125 90.558594 C 190.421875 89.699219 187.574219 88.59375 183.902344 86.105469 "/>
    <path style=" stroke:none;fill-rule:nonzero;fill:rgb(100%,69.804382%,34.901428%);fill-opacity:1;" d="M 195.214844 76.757812 C 193.566406 75.640625 192.402344 73.496094 193.25 72.101562 C 193.941406 70.957031 195.675781 70.496094 197.429688 71.738281 C 199.378906 72.847656 200.5625 73.632812 203.695312 74.710938 C 204.859375 75.109375 207.464844 75.289062 209.058594 75.363281 C 213.96875 75.601562 219.121094 72.320312 220.613281 71.792969 C 221.222656 71.578125 221.984375 72.074219 221.488281 72.949219 C 219.363281 76.695312 210.683594 81.617188 203.476562 80.167969 C 200.199219 79.511719 198.023438 78.660156 195.214844 76.757812 "/>
    <path style=" stroke:none;fill-rule:nonzero;fill:rgb(100%,69.804382%,34.901428%);fill-opacity:1;" d="M 204.953125 69.855469 C 203.648438 69.042969 202.769531 67.40625 203.382812 66.210938 C 203.816406 65.367188 205.070312 64.785156 206.460938 65.695312 C 207.941406 66.507812 209.160156 67.070312 211.636719 67.777344 C 212.558594 68.039062 214.246094 68.128906 215.5 68.109375 C 219.375 68.046875 224.058594 64.8125 225.164062 64.46875 C 225.707031 64.300781 225.953125 64.855469 225.738281 65.304688 C 224.21875 68.492188 217.183594 72.96875 211.488281 72.171875 C 208.898438 71.808594 207.179688 71.246094 204.953125 69.855469 "/>
    <path style=" stroke:none;fill-rule:nonzero;fill:rgb(100%,69.804382%,34.901428%);fill-opacity:1;" d="M 273.351562 39.894531 C 275.503906 41.355469 277.070312 44.1875 275.917969 45.980469 C 275.035156 47.359375 273.113281 48.125 270.820312 46.5 C 268.304688 45.074219 266.367188 43.976562 262.265625 42.570312 C 260.746094 42.046875 257.957031 41.714844 255.875 41.617188 C 249.460938 41.308594 242.453125 45.914062 240.5625 46.125 C 239.855469 46.203125 239.535156 45.59375 239.886719 44.894531 C 242.429688 39.875 253.136719 33.542969 262.554688 35.4375 C 266.835938 36.300781 269.679688 37.40625 273.351562 39.894531 "/>
    <path style=" stroke:none;fill-rule:nonzero;fill:rgb(100%,69.804382%,34.901428%);fill-opacity:1;" d="M 262.042969 49.242188 C 263.691406 50.359375 264.453125 52.335938 263.609375 53.734375 C 262.914062 54.875 261.582031 55.5 259.828125 54.261719 C 257.875 53.15625 256.695312 52.367188 253.5625 51.289062 C 252.398438 50.894531 249.789062 50.710938 248.199219 50.632812 C 243.289062 50.398438 238.136719 53.683594 236.640625 54.207031 C 236.03125 54.417969 235.269531 53.925781 235.765625 53.050781 C 237.894531 49.308594 246.574219 44.378906 253.78125 45.832031 C 257.058594 46.492188 259.234375 47.335938 262.042969 49.242188 "/>
    <path style=" stroke:none;fill-rule:nonzero;fill:rgb(100%,69.804382%,34.901428%);fill-opacity:1;" d="M 252.304688 56.144531 C 253.609375 56.957031 254.488281 58.59375 253.875 59.789062 C 253.441406 60.632812 252.1875 61.214844 250.792969 60.304688 C 249.316406 59.492188 248.097656 58.929688 245.617188 58.222656 C 244.695312 57.960938 243.011719 57.871094 241.757812 57.886719 C 237.878906 57.953125 233.199219 61.1875 232.089844 61.53125 C 231.550781 61.699219 231.308594 61.144531 231.519531 60.695312 C 233.039062 57.507812 240.074219 53.027344 245.769531 53.828125 C 248.359375 54.191406 250.078125 54.753906 252.304688 56.144531 "/>
    <path style=" stroke:none;fill-rule:nonzero;fill:rgb(100%,69.804382%,34.901428%);fill-opacity:1;" d="M 208.050781 61.101562 C 207.492188 60.347656 205.390625 59.046875 203.050781 57.242188 C 200.640625 55.382812 197.980469 52.988281 196.488281 50.09375 C 195.53125 48.242188 194.425781 45.664062 194.117188 44.082031 C 193.953125 43.246094 193.828125 42.503906 193.722656 41.800781 C 193.285156 38.945312 193.261719 37.035156 193.246094 34.710938 C 193.503906 31.914062 191.882812 30.632812 190.246094 30.554688 C 188.113281 30.457031 186.445312 33.226562 186.257812 35.820312 C 186.117188 37.742188 186.136719 39.394531 186.308594 40.992188 C 186.527344 43.074219 187.007812 45.058594 187.796875 47.398438 C 188.007812 48.019531 188.261719 48.625 188.535156 49.21875 C 191.113281 49.917969 193.050781 52.097656 193.050781 55.113281 C 193.050781 55.21875 193.039062 55.316406 193.035156 55.417969 C 195.703125 58.042969 198.878906 60.027344 201.8125 61.175781 C 203.859375 61.976562 205.785156 62.386719 207.320312 62.300781 C 208.101562 62.261719 208.46875 61.675781 208.050781 61.101562 "/>
    <path style=" stroke:none;fill-rule:nonzero;fill:rgb(13.725281%,21.176147%,30.587769%);fill-opacity:1;" d="M 57.292969 48.976562 L 45.675781 48.976562 L 45.675781 61.976562 L 57.292969 61.976562 C 60.722656 61.976562 63.625 59.074219 63.625 55.378906 C 63.625 51.683594 60.722656 48.976562 57.292969 48.976562 M 58.875 69.960938 L 45.675781 69.960938 L 45.675781 84.945312 L 35.777344 84.945312 L 35.777344 45.941406 C 35.777344 43.234375 38.019531 40.992188 40.726562 40.992188 L 58.875 40.992188 C 67.652344 40.992188 73.789062 47.523438 73.789062 55.378906 C 73.789062 63.230469 67.652344 69.960938 58.875 69.960938 "/>
    <path style=" stroke:none;fill-rule:nonzero;fill:rgb(13.725281%,21.176147%,30.587769%);fill-opacity:1;" d="M 106.328125 84.945312 L 106.328125 67.191406 L 86.664062 67.191406 L 86.664062 84.945312 L 76.761719 84.945312 L 76.761719 40.992188 L 86.664062 40.992188 L 86.664062 58.414062 L 106.328125 58.414062 L 106.328125 40.992188 L 116.160156 40.992188 L 116.160156 84.945312 Z "/>
    <path style=" stroke:none;fill-rule:nonzero;fill:rgb(13.725281%,21.176147%,30.587769%);fill-opacity:1;" d="M 140.121094 54.519531 L 134.972656 68.445312 L 145.269531 68.445312 Z M 151.539062 84.945312 L 148.105469 75.96875 L 132.070312 75.96875 L 128.636719 84.945312 L 118.804688 84.945312 L 135.964844 43.300781 C 136.691406 41.519531 138.40625 40.53125 140.121094 40.53125 C 141.835938 40.53125 143.488281 41.519531 144.214844 43.300781 L 161.371094 84.945312 Z "/>
    <path style=" stroke:none;fill-rule:nonzero;fill:rgb(13.725281%,21.176147%,30.587769%);fill-opacity:1;" d="M 186.714844 48.976562 L 173.914062 48.976562 L 173.914062 61.449219 L 186.714844 61.449219 C 190.148438 61.449219 193.050781 58.808594 193.050781 55.113281 C 193.050781 51.417969 190.148438 48.976562 186.714844 48.976562 M 193.710938 84.945312 L 184.738281 69.171875 L 173.914062 69.171875 L 173.914062 84.945312 L 164.015625 84.945312 L 164.015625 45.941406 C 164.015625 43.234375 166.257812 40.992188 168.964844 40.992188 L 188.761719 40.992188 C 197.144531 40.992188 203.214844 47.261719 203.214844 55.113281 C 203.214844 60.722656 199.914062 65.472656 195.097656 67.71875 L 205.0625 84.945312 Z "/>
    <path style=" stroke:none;fill-rule:nonzero;fill:rgb(13.725281%,21.176147%,30.587769%);fill-opacity:1;" d="M 228.65625 49.109375 C 220.671875 49.109375 215.851562 55.046875 215.851562 63.035156 C 215.851562 71.019531 220.671875 76.890625 228.65625 76.890625 C 236.640625 76.890625 241.457031 71.019531 241.457031 63.035156 C 241.457031 55.046875 236.640625 49.109375 228.65625 49.109375 M 228.65625 85.667969 C 215.191406 85.667969 205.953125 75.574219 205.953125 63.035156 C 205.953125 50.496094 215.191406 40.332031 228.65625 40.332031 C 242.117188 40.332031 251.292969 50.496094 251.292969 63.035156 C 251.292969 75.574219 242.117188 85.667969 228.65625 85.667969 "/>
    <path style=" stroke:none;fill-rule:nonzero;fill:rgb(13.725281%,21.176147%,30.587769%);fill-opacity:1;" d="M 270.605469 85.667969 C 264.796875 85.667969 258.527344 84.480469 252.71875 82.5 L 254.5 74.847656 C 259.582031 76.230469 265.652344 77.289062 270.734375 77.289062 C 276.34375 77.289062 279.644531 75.96875 279.644531 73.261719 C 279.644531 71.085938 275.15625 69.566406 266.84375 65.738281 C 259.1875 62.242188 254.238281 59.007812 254.238281 52.605469 C 254.238281 43.761719 259.914062 40.332031 272.386719 40.332031 C 277.335938 40.332031 284.925781 41.453125 288.6875 42.574219 L 287.234375 50.5625 C 282.085938 49.570312 277.070312 48.84375 272.515625 48.84375 C 266.3125 48.84375 264.070312 49.703125 264.070312 51.878906 C 264.070312 54.320312 266.777344 55.246094 275.421875 59.273438 C 284 63.296875 289.542969 65.078125 289.542969 72.472656 C 289.542969 82.5 279.976562 85.667969 270.605469 85.667969 "/>
  </g>
</svg>
