<svg id="Capa_1" enable-background="new 0 0 512.566 512.566" height="512" viewBox="0 0 512.566 512.566" width="512" xmlns="http://www.w3.org/2000/svg"><g id="XMLID_94_"><path id="XMLID_107_" d="m47.745 265.225c7.846 0 15.363-6.899 15-15-.364-8.127-6.591-15-15-15-7.846 0-15.363 6.899-15 15 .364 8.127 6.591 15 15 15z" fill="#75e2f8"/><path id="XMLID_124_" d="m182.668 178h145.243v30h-145.243z" fill="#00c0f1"/><path id="XMLID_1180_" d="m255.085 178h72.826v30h-72.826z" fill="#009ae4"/><path id="XMLID_123_" d="m165.748 241.283h179.085v30h-179.085z" fill="#00c0f1"/><path id="XMLID_1045_" d="m255.085 241.283h89.748v30h-89.748z" fill="#009ae4"/><path id="XMLID_122_" d="m182.26 304.566h145.651v30h-145.651z" fill="#00c0f1"/><path id="XMLID_1179_" d="m255.085 304.566h72.826v30h-72.826z" fill="#009ae4"/><path id="XMLID_121_" d="m191.704 447.745h126.187v30h-126.187z" fill="#00c0f1"/><path id="XMLID_1181_" d="m255.085 447.745h62.805v30h-62.805z" fill="#009ae4"/><path id="XMLID_120_" d="m193.279 35.9h124.021v30h-124.021z" fill="#00c0f1"/><path id="XMLID_1187_" d="m255.085 35.9h62.214v30h-62.214z" fill="#009ae4"/><path id="XMLID_102_" d="m100.242 469.041c7.846 0 15.363-6.899 15-15-.364-8.127-6.591-15-15-15-7.846 0-15.363 6.899-15 15 .364 8.127 6.591 15 15 15z" fill="#75e2f8"/><path id="XMLID_104_" d="m128.725 118.232c7.846 0 15.363-6.899 15-15-.364-8.127-6.591-15-15-15-7.846 0-15.363 6.899-15 15 .364 8.127 6.591 15 15 15z" fill="#75e2f8"/><path id="XMLID_112_" d="m412.324 469.041c7.846 0 15.363-6.899 15-15-.364-8.127-6.591-15-15-15-7.846 0-15.363 6.899-15 15 .364 8.127 6.591 15 15 15z" fill="#2ad8f6"/><path id="XMLID_118_" d="m383.841 118.232c7.846 0 15.363-6.899 15-15-.364-8.127-6.591-15-15-15-7.846 0-15.363 6.899-15 15 .364 8.127 6.591 15 15 15z" fill="#2ad8f6"/><path id="XMLID_130_" d="m197.668 512.566h-30c0-27.394 8.186-54.809 23.673-79.284 15.206-24.031 37.567-45.367 64.667-61.702 46.785-28.201 73.694-70.106 73.826-114.969.133-44.738-26.412-86.658-72.827-115.011l-2.147-1.312c-26.771-16.353-48.85-37.628-63.847-61.526-15.273-24.334-23.345-51.57-23.345-78.762h30c0 44.613 26.545 86.415 72.828 114.687l2.147 1.312c55.575 33.948 87.354 85.232 87.19 140.702-.164 55.595-32.362 106.832-88.339 140.573-46.917 28.281-73.826 70.303-73.826 115.292z" fill="#75e2f8"/><path id="XMLID_1190_" d="m272.644 115.998-2.147-1.312c-5.415-3.307-10.547-6.807-15.411-10.467v36.208l1.921 1.173c46.415 28.353 72.96 70.272 72.827 115.011-.132 44.863-27.041 86.768-73.826 114.969-.311.187-.613.384-.922.573v36.177c5.159-3.88 10.631-7.574 16.41-11.057 55.977-33.741 88.175-84.978 88.339-140.573.163-55.47-31.616-106.754-87.191-140.702z" fill="#2ad8f6"/><path id="XMLID_129_" d="m342.911 512.566h-30c0-44.99-26.909-87.012-73.826-115.292-55.978-33.741-88.176-84.979-88.34-140.574-.164-55.47 31.615-106.753 87.189-140.701l2.147-1.312c46.285-28.272 72.83-70.074 72.83-114.687h30c0 27.192-8.072 54.428-23.345 78.763-14.997 23.897-37.075 45.173-63.845 61.525l-2.147 1.312c-46.417 28.353-72.962 70.273-72.829 115.011.132 44.863 27.041 86.768 73.826 114.969 27.1 16.335 49.461 37.671 64.667 61.702 15.488 24.475 23.673 51.891 23.673 79.284z" fill="#2ad8f6"/><path id="XMLID_1189_" d="m255.085 140.677.636-.389c26.77-16.352 48.848-37.627 63.845-61.525 15.273-24.335 23.345-51.571 23.345-78.763h-30c0 39.539-20.864 76.861-57.826 104.522z" fill="#00c0f1"/><path id="XMLID_1191_" d="m255.085 371.899v36.132c36.977 27.653 57.826 64.943 57.826 104.535h30c0-27.394-8.186-54.81-23.673-79.284-15.109-23.877-37.287-45.089-64.153-61.383z" fill="#00c0f1"/><path id="XMLID_126_" d="m464.821 265.225c7.846 0 15.363-6.899 15-15-.364-8.127-6.591-15-15-15-7.846 0-15.363 6.899-15 15 .364 8.127 6.591 15 15 15z" fill="#2ad8f6"/></g></svg>