<svg height="499pt" viewBox="-24 0 499 499.18" width="499pt" xmlns="http://www.w3.org/2000/svg"><path d="m446.765625 117.351562c0 31.320313-12.703125 59.636719-33.203125 80.160157-20.519531 20.519531-48.859375 33.199219-80.160156 33.199219h-215.957032c-62.601562 0-113.359374-50.742188-113.359374-113.359376 0-6.242187.5-12.382812 1.476562-18.339843 3.902344-23.960938 15.320312-45.402344 31.722656-61.820313 20.519532-20.519531 48.859375-33.203125 80.160156-33.203125h215.957032c59.542968 0 108.382812 45.941407 113 104.300781.242187 2.980469.363281 6 .363281 9.0625zm0 0" fill="#1c868e"/><path d="m446.402344 108.289062c-3.898438 23.980469-15.296875 45.460938-31.738282 61.882813-20.519531 20.519531-48.859374 33.199219-80.160156 33.199219h-215.960937c-59.578125 0-108.398438-45.941406-112.980469-104.359375 3.902344-23.960938 15.320312-45.402344 31.722656-61.820313 20.519532-20.519531 48.859375-33.203125 80.160156-33.203125h215.957032c59.542968 0 108.382812 45.941407 113 104.300781zm0 0" fill="#40c4df"/><path d="m446.765625 381.828125c0 31.300781-12.703125 59.640625-33.203125 80.160156-20.519531 20.523438-48.859375 33.203125-80.160156 33.203125h-215.957032c-62.601562 0-113.359374-50.761718-113.359374-113.363281 0-6.238281.5-12.378906 1.476562-18.339844 3.902344-23.957031 15.300781-45.398437 31.722656-61.816406 20.519532-20.523437 48.859375-33.203125 80.160156-33.203125h215.957032c59.5625 0 108.382812 45.921875 113 104.300781.242187 2.980469.363281 6 .363281 9.058594zm0 0" fill="#d73735"/><path d="m446.402344 372.769531c-3.898438 23.980469-15.296875 45.441407-31.738282 61.859375-20.519531 20.519532-48.859374 33.199219-80.160156 33.199219h-215.960937c-59.558594 0-108.398438-45.9375-112.980469-104.339844 3.902344-23.957031 15.300781-45.398437 31.722656-61.816406 20.519532-20.523437 48.859375-33.203125 80.160156-33.203125h215.957032c59.5625 0 108.382812 45.921875 113 104.300781zm0 0" fill="#f85252"/><path d="m212.484375 117.351562c0 42.777344-31.199219 78.238282-72.058594 84.917969-4.5625.761719-9.242187 1.140625-14 1.140625-47.523437 0-86.0625-38.519531-86.0625-86.058594 0-47.523437 38.539063-86.042968 86.0625-86.042968 4.757813 0 9.4375.382812 14 1.140625 40.859375 6.679687 72.058594 42.140625 72.058594 84.902343zm0 0" fill="#d8d6d7"/><path d="m410.484375 381.828125c0 42.761719-31.199219 78.222656-72.058594 84.902344-4.5625.757812-9.242187 1.140625-14 1.140625-47.523437 0-86.0625-38.519532-86.0625-86.042969 0-47.539063 38.539063-86.058594 86.0625-86.058594 4.757813 0 9.4375.378907 14 1.140625 40.859375 6.679688 72.058594 42.140625 72.058594 84.917969zm0 0" fill="#d8d6d7"/><path d="m212.484375 117.351562c0 42.777344-31.199219 78.238282-72.058594 84.917969-40.863281-6.679687-72.0625-42.140625-72.0625-84.917969 0-42.761718 31.199219-78.222656 72.0625-84.902343 40.859375 6.679687 72.058594 42.140625 72.058594 84.902343zm0 0" fill="#fff"/><path d="m410.484375 381.828125c0 42.761719-31.199219 78.222656-72.058594 84.902344-40.863281-6.679688-72.0625-42.140625-72.0625-84.902344 0-42.777344 31.199219-78.238281 72.0625-84.917969 40.859375 6.679688 72.058594 42.140625 72.058594 84.917969zm0 0" fill="#fff"/><path d="m99.527344 160.472656-24.214844-20.753906c-5.871094-5.03125-6.550781-13.871094-1.519531-19.742188 5.03125-5.871093 13.867187-6.550781 19.742187-1.515624l16.003906 13.714843 37.234376-55.855469c4.289062-6.433593 12.980468-8.175781 19.414062-3.878906 6.433594 4.289063 8.171875 12.980469 3.882812 19.414063l-43.230468 64.851562c-6.140625 9.203125-18.945313 10.941407-27.3125 3.765625zm0 0" fill="#40c4df"/><path d="m344.222656 381.824219 24.75-24.75c5.46875-5.46875 5.46875-14.332031 0-19.796875-5.46875-5.46875-14.332031-5.46875-19.800781 0l-24.746094 24.75-24.75-24.75c-5.46875-5.46875-14.332031-5.46875-19.800781 0-5.46875 5.464844-5.46875 14.332031 0 19.796875l24.75 24.75-24.75 24.746093c-5.46875 5.46875-5.46875 14.332032 0 19.800782s14.332031 5.46875 19.800781 0l24.75-24.75 24.746094 24.75c5.46875 5.46875 14.332031 5.46875 19.800781 0s5.46875-14.332032 0-19.800782zm0 0" fill="#f85252"/><g fill="#491352"><path d="m117.445312 234.710938h215.957032c64.710937 0 117.359375-52.644532 117.359375-117.355469 0-64.710938-52.648438-117.355469-117.359375-117.355469h-215.957032c-64.710937 0-117.3554682 52.644531-117.3554682 117.355469 0 64.710937 52.6445312 117.355469 117.3554682 117.355469zm0-226.710938h215.957032c60.300781 0 109.359375 49.054688 109.359375 109.355469s-49.058594 109.355469-109.359375 109.355469h-215.957032c-60.296874 0-109.355468-49.054688-109.355468-109.355469s49.054687-109.355469 109.355468-109.355469zm0 0"/><path d="m126.425781 207.40625c49.652344 0 90.050781-40.394531 90.050781-90.050781 0-49.652344-40.398437-90.050781-90.050781-90.050781-49.652343 0-90.050781 40.398437-90.050781 90.050781 0 49.65625 40.398438 90.050781 90.050781 90.050781zm0-172.101562c45.242188 0 82.050781 36.808593 82.050781 82.050781 0 45.242187-36.808593 82.046875-82.050781 82.046875-45.242187 0-82.050781-36.804688-82.050781-82.046875 0-45.242188 36.808594-82.050781 82.050781-82.050781zm0 0"/><path d="m333.402344 264.46875h-215.957032c-64.710937 0-117.3554682 52.644531-117.3554682 117.355469 0 64.710937 52.6445312 117.355469 117.3554682 117.355469h215.957032c64.710937 0 117.359375-52.644532 117.359375-117.355469 0-64.710938-52.648438-117.355469-117.359375-117.355469zm0 226.710938h-215.957032c-60.296874 0-109.355468-49.054688-109.355468-109.355469s49.054687-109.355469 109.355468-109.355469h215.957032c60.300781 0 109.359375 49.054688 109.359375 109.355469s-49.058594 109.355469-109.359375 109.355469zm0 0"/><path d="m324.421875 291.773438c-49.652344 0-90.050781 40.398437-90.050781 90.050781 0 49.652343 40.398437 90.050781 90.050781 90.050781s90.050781-40.398438 90.050781-90.050781c0-49.652344-40.398437-90.050781-90.050781-90.050781zm0 172.101562c-45.242187 0-82.050781-36.808594-82.050781-82.050781 0-45.238281 36.808594-82.046875 82.050781-82.046875s82.050781 36.808594 82.050781 82.046875c0 45.242187-36.808594 82.050781-82.050781 82.050781zm0 0"/><path d="m72.710938 142.757812 24.214843 20.753907c10.171875 8.722656 25.769531 6.617187 33.238281-4.585938l43.234376-64.851562c2.667968-4 3.621093-8.800781 2.675781-13.515625-3.136719-15.6875-23.769531-19.742188-32.625-6.453125l-34.734375 52.097656c-12.730469-10.910156-16.445313-15.785156-25.671875-15.058594-16.042969 1.226563-22.394531 21.273438-10.332031 31.613281zm11.726562-23.667968c4.765625 0 5.390625 1.460937 22.5 16.125 1.839844 1.574218 4.609375 1.164062 5.929688-.820313l37.238281-55.851562c4.949219-7.417969 16.386719-5.085938 18.125 3.585937 1.117187 5.597656 2.308593 1.816406-44.71875 72.359375-4.800781 7.203125-14.839844 8.558594-21.378907 2.953125-26.03125-22.316406-27.257812-22.144531-27.679687-27.582031-.445313-5.78125 4.101563-10.769531 9.984375-10.769531zm0 0"/><path d="m349.878906 381.824219 21.921875-21.921875c7.015625-7.015625 7.015625-18.4375 0-25.457032-7.019531-7.019531-18.441406-7.015624-25.457031 0l-21.921875 21.921876-21.917969-21.921876c-7.019531-7.019531-18.441406-7.019531-25.457031 0-7.019531 7.019532-7.019531 18.441407 0 25.457032l21.917969 21.921875-21.917969 21.917969c-11.351563 11.355468-3.179687 30.730468 12.726563 30.730468 9.632812 0 11.945312-4.492187 34.648437-27.195312 22.726563 22.726562 25.03125 27.195312 34.644531 27.195312 15.90625 0 24.082032-19.375 12.730469-30.730468zm16.261719 41.71875c-3.917969 3.917969-10.238281 3.902343-14.140625 0l-24.75-24.746094c-1.5625-1.5625-4.09375-1.5625-5.65625 0-26.632812 26.632813-26.332031 27.675781-31.820312 27.675781-8.820313 0-13.382813-10.753906-7.070313-17.070312l24.75-24.75c1.5625-1.558594 1.5625-4.09375 0-5.65625l-24.75-24.75c-3.898437-3.894532-3.898437-10.238282 0-14.140625 3.894531-3.894531 10.242187-3.902344 14.144531 0l24.746094 24.75c.75.75 1.769531 1.171875 2.828125 1.171875 2.285156 0 .90625.75 27.578125-25.921875 3.898438-3.898438 10.242188-3.898438 14.140625 0 3.898437 3.902343 3.898437 10.246093 0 14.140625l-24.75 24.75c-.75.75-1.171875 1.769531-1.171875 2.828125 0 1.0625.421875 2.078125 1.171875 2.828125l24.75 24.75c3.902344 3.898437 3.902344 10.242187 0 14.140625zm0 0"/></g></svg>