<svg id="Layer_3" enable-background="new 0 0 64 64" height="512" viewBox="0 0 64 64" width="512" xmlns="http://www.w3.org/2000/svg"><g><g><path d="m52.707 39.707-1.415-1.415 4.757-4.757c2.548-2.547 3.951-5.933 3.951-9.535v-2.469h2v2.469c0 4.137-1.611 8.025-4.535 10.95z" fill="#a8b0bc"/></g><path d="m14 8h-4c-1.105 0-2 .895-2 2v48h-6v-50c0-3.314 2.686-6 6-6s6 2.686 6 6z" fill="#d5cec2"/><path d="m8 14v-4c0-1.105.895-2 2-2h4c0 3.314-2.686 6-6 6z" fill="#758190"/><path d="m48 14c3.314 0 6-2.686 6-6s-2.686-6-6-6h-40c3.314 0 6 2.686 6 6s-2.686 6-6 6z" fill="#a8b0bc"/><path d="m48 37v25h-40v-48h40v13" fill="#e7e4dd"/><path d="m38.601 27.964h19.799v7.071h-19.799z" fill="#c7e2fc" transform="matrix(.707 -.707 .707 .707 -8.069 43.521)"/><path d="m53 22 2.964-2.964c.663-.663 1.562-1.036 2.5-1.036 1.953 0 3.536 1.583 3.536 3.536 0 .938-.372 1.837-1.036 2.5l-2.964 2.964" fill="#758190"/><path d="m39 36-8 8 5 5 8-8" fill="#a8b0bc"/><path d="m31 44-3 6 2 2 6-3" fill="#758190"/><g><path d="m25.378 51.499h4.243v2h-4.243z" fill="#cbc3b6" transform="matrix(.707 -.707 .707 .707 -29.068 34.822)"/></g><g><path d="m38.6 30.499h19.799v2h-19.799z" fill="#243242" transform="matrix(.707 -.707 .707 .707 -8.068 43.52)"/></g><g><path d="m13 19h30v2h-30z" fill="#a8b0bc"/></g><g><path d="m13 23h30v2h-30z" fill="#a8b0bc"/></g><g><path d="m13 27h30v2h-30z" fill="#a8b0bc"/></g><g><path d="m13 31h28v2h-28z" fill="#a8b0bc"/></g><g><path d="m13 35h24v2h-24z" fill="#a8b0bc"/></g><g><path d="m13 51h11v2h-11z" fill="#a8b0bc"/></g><g><path d="m13 55h30v2h-30z" fill="#a8b0bc"/></g><path d="m55.206 24.206c2.773-.006 5.218-1.406 6.675-3.536-.388-1.532-1.764-2.67-3.417-2.67-.938 0-1.837.372-2.5 1.036l-2.964 2.964z" fill="#8892a0"/><path d="m31 44-3 6 .26.26c2.316-.418 4.432-1.394 6.214-2.786z" fill="#8892a0"/><path d="m39 36-8 8 3.474 3.474c3.169-2.477 5.254-6.26 5.457-10.543z" fill="#c1c8d1"/><g><path d="m62.999 21.535c0-2.5-2.034-4.535-4.535-4.535-1.211 0-2.35.472-3.207 1.328l-2.965 2.964-3.292 3.292v-9.665c3.386-.488 6-3.401 6-6.92 0-3.86-3.141-7-7-7h-39.99c-.003 0-.006 0-.01 0-3.86 0-7 3.141-7 7v50c0 .552.448 1 1 1h5v3c0 .553.447 1 1 1h40c.553 0 1-.447 1-1v-24.585l9.707-9.707 1.027-1.027c-.518 2.58-1.781 4.952-3.684 6.855l-4.757 4.757 1.415 1.415 4.757-4.757c2.838-2.838 4.424-6.586 4.517-10.585.647-.803 1.017-1.784 1.017-2.83zm-6.328-1.793c.479-.479 1.116-.742 1.793-.742 1.398 0 2.535 1.137 2.535 2.535 0 .678-.263 1.314-.742 1.793l-2.258 2.257-3.585-3.585zm-3.672 3.672 1.086 1.086-12.586 12.585-1.086-1.086zm-23.783 26.388 2.057-4.114 3.038 3.038-4.114 2.057zm3.198-5.803 6.586-6.585 3.585 3.585-6.585 6.586zm15.586-40.999c2.757 0 5 2.243 5 5s-2.243 5-5 5h-35.111c1.3-1.272 2.111-3.042 2.111-5s-.81-3.728-2.11-5zm-39 9.898v-2.898c0-.552.448-1 1-1h2.899c-.399 1.956-1.943 3.499-3.899 3.898zm-6 44.102v-49c0-2.757 2.243-5 5-5h.005c2.412.002 4.43 1.722 4.894 4h-2.899c-1.654 0-3 1.346-3 3v5 42zm44 3.999h-38v-45.999h38v11.585l-4.416 4.415h-29.584v2h27.585l-2 2h-25.585v2h23.585l-6.293 6.293c-.078.078-.129.172-.176.266l-.011-.005-3 6c-.193.385-.117.85.187 1.154l.293.293-2.293 2.293 1.415 1.415 2.293-2.293.293.293c.191.189.447.291.707.291.152 0 .305-.035.447-.106l6-3-.005-.011c.094-.047.187-.098.266-.176l8-8 2.292-2.293zm-3-21.414-1.086-1.086 12.586-12.585 1.085 1.086z"/><path d="m13 19h30v2h-30z"/><path d="m13 23h30v2h-30z"/><path d="m13 27h30v2h-30z"/><path d="m13 51h11v2h-11z"/><path d="m13 55h30v2h-30z"/></g></g></svg>